<?xml version="1.0" standalone="no"?>
<!DOCTYPE svg PUBLIC "-//W3C//DTD SVG 1.1//EN" "http://www.w3.org/Graphics/SVG/1.1/DTD/svg11.dtd">
<svg xmlns="http://www.w3.org/2000/svg">
<metadata>Copyright (C) 2016 by original authors @ fontello.com</metadata>
<defs>
<font id="brix" horiz-adv-x="1000" >
<font-face font-family="brix" font-weight="400" font-stretch="normal" units-per-em="1000" ascent="850" descent="-150" />
<missing-glyph horiz-adv-x="1000" />
<glyph glyph-name="add-16" unicode="&#xe800;" d="M583 433l0 334c0 45-37 83-83 83-46 0-83-37-83-83l0-334-333 0c-46 0-84-37-84-83 0-46 37-83 84-83l333 0 0-334c0-45 37-83 83-83 46 0 83 37 83 83l0 334 334 0c45 0 83 37 83 83 0 46-37 83-83 83l-334 0z" horiz-adv-x="1000" />

<glyph glyph-name="drag-sort" unicode="&#xe801;" d="M500 850l313-312-625 0 312 312z m0-1000l313 313-625 0 312-313z" horiz-adv-x="1000" />

<glyph glyph-name="load-template" unicode="&#xe802;" d="M0 850l1000 0 0-350-1000 0 0 350z m100-100l150 0 0-150-150 0 0 150z m250 0l150 0 0-150-150 0 0 150z m50-900l0 550 600 0 0-550-600 0z m-400 0l0 550 300 0 0-550-300 0z" horiz-adv-x="1000" />

<glyph glyph-name="add" unicode="&#xe803;" d="M375 475l-312 0c-35 0-63-28-63-63l0-124c0-35 28-63 63-63l312 0 0-312c0-35 28-63 63-63l124 0c35 0 63 28 63 63l0 312 312 0c35 0 63 28 63 63l0 124c0 35-28 63-63 63l-312 0 0 312c0 35-28 63-63 63l-124 0c-35 0-63-28-63-63l0-312z" horiz-adv-x="1000" />

<glyph glyph-name="gradient" unicode="&#xe804;" d="M888 405l0 333-776 0 0-333 109 0 0-110 112 0 0-112 112 0 0 112 110 0 0-112 112 0 0 112 112 0 0 110 109 0z m-109-388l0 112-112 0 0-112 112 0z m-224 0l0 112-110 0 0-112 110 0z m-222 0l0 112-112 0 0-112 112 0z m555 833c30 0 56-11 78-34 23-22 34-48 34-78l0-776c0-30-11-56-34-78-22-23-48-34-78-34l-776 0c-29 0-56 11-78 34-23 22-34 48-34 78l0 776c0 30 11 56 34 78 22 23 49 34 78 34l776 0z m-667-333l112 0 0-112-112 0 0 112z m446 0l112 0 0-112-112 0 0 112z m-222 0l110 0 0-112 112 0 0-110-112 0 0 110-110 0 0-110-112 0 0 110 112 0 0 112z m334-222l0-112 109 0 0 112-109 0z m-558 0l-109 0 0-112 109 0 0 112z" horiz-adv-x="1000" />

<glyph glyph-name="background-video" unicode="&#xe805;" d="M779 421l221 214 0-588-221 214 0-189c0-15-6-27-17-37-12-10-25-15-41-15l-666 0c-16 0-29 5-39 15-11 10-16 22-16 37l0 538c0 15 5 27 16 37 10 11 23 16 39 16l666 0c16 0 29-5 41-16 11-10 17-22 17-37l0-189z" horiz-adv-x="1000" />

<glyph glyph-name="close-full-screen" unicode="&#xe806;" d="M785 635l215 0 0-141-356 0 0 356 141 0 0-215z m-141-785l0 356 356 0 0-141-215 0 0-215-141 0z m-429 785l0 215 141 0 0-356-356 0 0 141 215 0z m-215-570l0 141 356 0 0-356-141 0 0 215-215 0z" horiz-adv-x="1000" />

<glyph glyph-name="edit-16" unicode="&#xe809;" d="M984 626l-101-101-208 208 101 101c11 11 24 16 39 16 16 0 29-5 39-16l130-130c11-10 16-23 16-39 0-15-5-28-16-39l0 0z m-984-568l615 615 208-208-615-615-208 0 0 208z" horiz-adv-x="1000" />

<glyph glyph-name="edit" unicode="&#xe80a;" d="M984 626l-101-101-208 208 101 101c11 11 24 16 39 16 16 0 29-5 39-16l130-130c11-10 16-23 16-39 0-15-5-28-16-39l0 0z m-984-568l615 615 208-208-615-615-208 0 0 208z" horiz-adv-x="1000" />

<glyph glyph-name="full-screen" unicode="&#xe80b;" d="M644 850l356 0 0-356-141 0 0 215-215 0 0 141z m215-859l0 215 141 0 0-356-356 0 0 141 215 0z m-859 503l0 356 356 0 0-141-215 0 0-215-141 0z m141-288l0-215 215 0 0-141-356 0 0 356 141 0z" horiz-adv-x="1000" />

<glyph glyph-name="merge" unicode="&#xe80d;" d="M688 350l312 313 0-625-312 312z m-375 0l-313 313 0-625 313 312z" horiz-adv-x="1000" />

<glyph glyph-name="move-down" unicode="&#xe80e;" d="M0 350l500-500 500 500-88 88-351-348 0 760-122 0 0-760-351 348-88-88z" horiz-adv-x="1000" />

<glyph glyph-name="move-up" unicode="&#xe80f;" d="M0 350l500 500 500-500-88-88-351 348 0-760-122 0 0 760-351-348-88 88z" horiz-adv-x="1000" />

<glyph glyph-name="ok-alt" unicode="&#xe810;" d="M354 168l482 482 64-64-546-546-254 254 64 64 190-190z" horiz-adv-x="1000" />

<glyph glyph-name="ok" unicode="&#xe811;" d="M399 99l451 451-71 72-380-380-178 178-71-70 249-251z m101 751c138 0 256-49 353-147 98-97 147-215 147-353 0-138-49-255-147-353-97-98-215-147-353-147-138 0-255 49-353 147-98 98-147 215-147 353 0 138 49 256 147 353 98 98 215 147 353 147l0 0z" horiz-adv-x="1000" />

<glyph glyph-name="redo" unicode="&#xe812;" d="M486 500c-111 0-211-33-300-99-89-66-151-151-186-255l115-36c26 79 73 144 141 193 68 50 145 75 230 75 95 0 179-31 253-92l-179-176 440 0 0 440-174-177c-97 85-210 127-340 127l0 0z" horiz-adv-x="1000" />

<glyph glyph-name="reduce" unicode="&#xe813;" d="M63 475c-35 0-63-28-63-63l0-124c0-35 28-63 63-63l874 0c35 0 63 28 63 63l0 124c0 35-28 63-63 63l-874 0z" horiz-adv-x="1000" />

<glyph glyph-name="remove-16" unicode="&#xe814;" d="M500 438l-177 177-88-88 177-177-177-177 88-88 177 177 177-177 88 88-177 177 177 177-88 88-177-177z m-500-88c0 276 224 500 500 500 276 0 500-224 500-500 0-276-224-500-500-500-276 0-500 224-500 500z" horiz-adv-x="1000" />

<glyph glyph-name="remove" unicode="&#xe815;" d="M500 429l-196 196-79-79 196-196-196-196 79-79 196 196 196-196 79 79-196 196 196 196-79 79-196-196z m-500-79c0 276 224 500 500 500 276 0 500-224 500-500 0-276-224-500-500-500-276 0-500 224-500 500z" horiz-adv-x="1000" />

<glyph glyph-name="replace-section-with-template" unicode="&#xe816;" d="M498 705c-87 0-163-27-229-81-65-53-106-122-124-205l-145 0c18 121 74 223 168 306 95 84 205 125 330 125 137 0 255-49 354-148l148 148 0-431-431 0 182 182c-70 69-154 104-253 104z m233-629c65 54 106 122 124 205l145 0c-18-121-74-223-168-306-95-83-205-125-330-125-137 0-255 49-354 148l-148-148 0 431 431 0-182-182c70-69 154-104 253-104 87 0 164 27 229 81z" horiz-adv-x="1000" />

<glyph glyph-name="reset-builder" unicode="&#xe817;" d="M500 262l203-204 89 89-204 203 204 203-89 89-203-204-203 204-89-89 204-203-204-203 89-89 203 204z m-500 88c0 276 224 500 500 500 276 0 500-224 500-500 0-276-224-500-500-500-276 0-500 224-500 500z" horiz-adv-x="1000" />

<glyph glyph-name="responsive" unicode="&#xe819;" d="M900 600l0 100-800 0c-27 0-50-22-50-50l0-500 100 0 0 450 750 0z m-900-450l600 0 0-100-600 0 0 100z m900 0l0 300-150 0 0-300 150 0z m57 400c12 0 23-4 31-13 8-8 12-19 12-32l0-458c0-13-4-24-12-33-8-9-19-14-31-14l-262 0c-12 0-23 5-32 14-9 9-13 20-13 33l0 458c0 13 4 24 13 32 9 9 20 13 32 13l262 0z" horiz-adv-x="1000" />

<glyph glyph-name="row-layout" unicode="&#xe81a;" d="M738 750l262 0 0-800-262 0 0 800z m-738-800l0 800 262 0 0-800-262 0z m369 0l0 800 262 0 0-800-262 0z" horiz-adv-x="1000" />

<glyph glyph-name="save-section-template" unicode="&#xe81b;" d="M667 517l0 221-555 0 0-221 555 0z m-167-555c45 0 84 16 117 50 33 32 50 72 50 117 0 45-17 84-50 117-33 33-72 49-117 49-45 0-84-16-117-49-33-33-50-72-50-117 0-45 17-85 50-117 33-34 72-50 117-50l0 0z m-500 763c0 69 56 125 125 125l655 0 220-221 0-654c0-69-56-125-125-125l-750 0c-69 0-125 56-125 125l0 750z" horiz-adv-x="1000" />

<glyph glyph-name="save-template" unicode="&#xe81c;" d="M0 751c0 54 45 99 100 99l680 0 220-221 0-679c0-55-45-100-99-100l-801 0c-55 0-100 45-100 99l0 802z m700-201l0 200-600 0 0-200 600 0z m-175-600c47 0 88 17 123 52 35 35 52 76 52 123 0 47-17 88-52 123-35 35-76 52-123 52-47 0-88-17-123-52-35-35-52-76-52-123 0-47 17-88 52-123 35-35 76-52 123-52l0 0z" horiz-adv-x="1000" />

<glyph glyph-name="split" unicode="&#xe81d;" d="M850 801l150 0 0-50-350-352-101 101 301 301z m-350-477c17 0 26 9 26 26 0 17-9 26-26 26-17 0-26-9-26-26 0-17 9-26 26-26l0 0z m-300-375c26 0 50 9 70 29 20 19 31 43 31 72 0 28-11 52-31 71-20 20-44 30-70 30-27 0-50-10-71-30-20-19-30-43-30-71 0-29 10-53 30-72 21-20 44-29 71-29l0 0z m0 601c26 0 50 9 70 29 20 19 31 43 31 72 0 28-11 52-31 71-20 20-44 29-70 29-27 0-50-9-71-29-20-19-30-43-30-71 0-29 10-53 30-72 21-20 44-29 71-29l0 0z m183 18l617-619 0-50-150 0-350 350-117-117c11-24 16-51 16-82 0-55-19-102-59-141-39-39-86-59-140-59-55 0-102 20-141 59-39 39-59 86-59 141 0 54 20 101 59 140 39 40 86 59 141 59 31 0 58-5 82-16l117 117-117 117c-24-11-51-16-82-16-55 0-102 20-141 59-39 39-59 86-59 141 0 54 20 101 59 140 39 39 86 59 141 59 54 0 101-20 140-59 40-39 59-86 59-140 0-32-5-59-16-83l0 0z" horiz-adv-x="1000" />

<glyph glyph-name="undo" unicode="&#xe81e;" d="M514 500c111 0 212-33 300-99 89-66 151-151 186-255l-115-36c-26 79-73 144-141 193-68 50-145 75-230 75-95 0-179-31-252-92l178-176-440 0 0 440 174-177c97 85 210 127 340 127l0 0z" horiz-adv-x="1000" />

<glyph glyph-name="vertical-alignment" unicode="&#xe81f;" d="M150 395l700 0 0-90-700 0 0 90z m524 272l-174-181-174 181 131 0 0 183 86 0 0-183 131 0z m-348-634l174 181 174-181-131 0 0-183-86 0 0 183-131 0z" horiz-adv-x="1000" />

<glyph glyph-name="carousel" unicode="&#xe820;" d="M813 600l187 0 0-500-187 0 0 500z m-813-500l0 500 188 0 0-500-188 0z m250-125l0 750 500 0 0-750-500 0z" horiz-adv-x="1000" />

<glyph glyph-name="drag-sort-horz" unicode="&#xe821;" d="M0 350l313 313 0-625-313 312z m1000 0l-312 313 0-625 312 312z" horiz-adv-x="1000" />

<glyph glyph-name="responsive-resize-col-1" unicode="&#xe822;" d="M607 443c19-24 29-52 29-83 0-37-13-69-40-96-27-27-59-41-96-41-8 0-16 1-24 2l-49-82c23-7 47-11 73-11 62 0 116 22 161 67 44 45 67 98 67 161 0 62-23 116-67 160-2 2-4 4-5 5l-49-82z m123 206c26-12 50-26 74-43 91-62 156-144 196-246-40-103-105-185-196-247-90-63-192-94-304-94-48 0-93 6-137 17l-111-186-100 0 598 1000 100 0-120-201z m-222 51c-2 0-5 0-8 0-112 0-213-31-304-94-91-62-156-144-196-246 36-92 92-168 169-228l108 181c-3 15-5 30-5 47 0 62 23 116 67 160 29 29 61 48 97 59l72 121z" horiz-adv-x="1000" />

<glyph glyph-name="up" unicode="&#xe823;" d="M0 354q0 26 18 44l391 390 390-390q18-18 18-44 0-26-18-43-18-18-43-18t-43 18l-243 243v-642q0-25-18-43t-43-18q-26 0-44 18t-17 43v642l-244-243q-18-18-43-18t-43 18q-18 17-18 43z" horiz-adv-x="817.4" />

<glyph glyph-name="right" unicode="&#xe824;" d="M0 347q0 26 18 43t43 17h642l-242 244q-19 18-19 44t19 42q17 19 42 19t44-19l390-390-390-391q-20-18-44-18t-42 18-19 44 19 43l242 242h-642q-25 0-43 18t-18 44z" horiz-adv-x="938" />

<glyph glyph-name="down" unicode="&#xe825;" d="M0 283q0 25 18 43t44 18 42-18l244-243v642q0 25 18 43t43 18 43-18 18-43v-642l243 243q18 18 43 18t43-18q18-18 18-43t-18-44l-390-390-391 390q-18 20-18 44z" horiz-adv-x="817.4" />

<glyph glyph-name="left" unicode="&#xe826;" d="M0 353l390 391q19 18 44 18 25 0 43-18t18-44-18-43l-243-243h642q25 0 43-18t18-43-18-43-43-18h-642l243-243q18-18 18-44t-18-43-43-18-44 18z" horiz-adv-x="938" />

<glyph glyph-name="up-circled" unicode="&#xe827;" d="M717 351q0 15-10 25l-202 202-51 51q-10 10-25 10t-25-10l-51-51-202-202q-10-10-10-25t10-26l51-50q10-10 25-10t25 10l105 105v-280q0-14 11-25t25-11h71q15 0 25 11t11 25v280l106-105q10-11 25-11t25 11l51 50q10 11 10 26z m140-1q0-117-57-215t-156-156-215-58-216 58-155 156-58 215 58 215 155 156 216 58 215-58 156-156 57-215z" horiz-adv-x="857.1" />

<glyph glyph-name="right-circled" unicode="&#xe828;" d="M717 350q0 15-10 25l-51 51-202 202q-10 10-25 10t-25-10l-51-51q-10-10-10-25t10-25l106-106h-280q-15 0-25-10t-11-25v-72q0-14 11-25t25-10h280l-106-106q-10-10-10-25t10-25l51-51q10-10 25-10t25 10l202 202 51 51q10 10 10 25z m140 0q0-117-57-215t-156-156-215-58-216 58-155 156-58 215 58 215 155 156 216 58 215-58 156-156 57-215z" horiz-adv-x="857.1" />

<glyph glyph-name="down-circled" unicode="&#xe829;" d="M717 349q0 16-10 26l-51 50q-10 10-25 10t-25-10l-106-105v280q0 15-11 25t-25 11h-71q-15 0-25-11t-11-25v-280l-105 105q-11 11-25 11t-25-11l-51-50q-10-10-10-26t10-25l202-202 51-50q10-10 25-10t25 10l51 50 202 202q10 10 10 25z m140 1q0-117-57-215t-156-156-215-58-216 58-155 156-58 215 58 215 155 156 216 58 215-58 156-156 57-215z" horiz-adv-x="857.1" />

<glyph glyph-name="left-circled" unicode="&#xe82a;" d="M714 314v72q0 14-10 25t-25 10h-281l106 106q11 11 11 25t-11 25l-51 51q-10 10-25 10t-25-10l-202-202-51-51q-10-10-10-25t10-25l51-51 202-202q10-10 25-10t25 10l51 51q10 10 10 25t-10 25l-106 106h281q14 0 25 10t10 25z m143 36q0-117-57-215t-156-156-215-58-216 58-155 156-58 215 58 215 155 156 216 58 215-58 156-156 57-215z" horiz-adv-x="857.1" />

<glyph glyph-name="add_section" unicode="&#xe84b;" d="M688 413l0 187-125 0 0-187-188 0 0-125 188 0 0-188 125 0 0 188 187 0 0 125-187 0z m-688 312c0 69 56 125 125 125l500 0 0-125-500 0 0-752 500 3 0-126-500 0c-69 0-125 56-125 125l0 750z m1250 0c0 69-55 125-125 125l-500 0 0-125 500 0 0-752-500 3 0-126 500 0c69 0 125 56 125 125l0 750z" horiz-adv-x="1250" />

<glyph glyph-name="duplicate_16" unicode="&#xe84c;" d="M750 683l0 1c0 91-74 166-166 166l-418 0c-91 0-166-74-166-166l0-418c0-91 75-166 166-166l1 0 0 583 583 0z m-500-249c0 92 74 166 167 166l166 0 0-166-166-1 0-418 166 3 0-168-166 0c-92 0-167 75-167 166l0 418z m750 0c0 92-74 166-167 166l-250 0 0-166 250-1 0-418-250 3 0-168 250 0c92 0 167 75 167 166l0 418z" horiz-adv-x="1000" />

<glyph glyph-name="duplicate" unicode="&#xe84d;" d="M750 600l0 125c0 69-56 125-125 125l-499 0c-70 0-126-56-126-125l0-499c0-70 56-126 126-126l124 0 0 125-125 0 0 500 500 0 0-125 125 0z m250-187c0 69-56 125-125 125l-250 0 0-125 249 0 0-437-249 0 0-126 250 0c69 0 125 56 125 124l0 439z m-687 0c0 69 55 125 125 125l187 0 0-125-186 0 0-437 186 0 0-126-187 0c-69 0-125 56-125 124l0 439z" horiz-adv-x="1000" />

<glyph glyph-name="responsive_hide_col" unicode="&#xe84e;" d="M0 751c0 54 44 99 100 99l400 0 0-100-400 0 0-802 400 3 0-101-400 0c-55 0-100 45-100 99l0 802z m1000 0c0 54-44 99-100 99l-400 0 0-100 400 0 0-802-400 3 0-101 400 0c55 0 100 45 100 99l0 802z m-850-401l200 200 0-400-200 200z m700 0l-200 200 0-400 200 200z" horiz-adv-x="1000" />

<glyph glyph-name="background_image" unicode="&#xe84f;" d="M0 725c0 69 56 125 125 125l438 0 0-125-438 0 0-750 438 0 0-125-438 0c-69 0-125 56-125 125l0 750z m1000 0c0 69-55 125-125 125l-312 0 0-125 312 0 0-750-312 0 0-125 312 0c69 0 125 56 125 125l0 750z m-187-461l0-226-625 0 0 97 142 162 71-81 227 259 185-211z m-438 242c0-26-9-48-27-66-19-18-41-27-67-27-26 0-48 9-66 27-18 18-27 40-27 66 0 26 9 48 27 67 18 18 40 27 66 27 26 0 48-9 67-27 18-19 27-41 27-67z" horiz-adv-x="1000" />
</font>
</defs>
</svg>
