<svg xmlns="http://www.w3.org/2000/svg" width="20" height="20" viewBox="0 0 20 20"><path fill="#3E6274" fill-rule="evenodd" d="M10,17.2300469 C12.5352233,17.2300469 14.5383331,16.1502468 16.0093897,13.9906103 C15.9780898,13.114237 15.2738734,12.3787208 13.8967136,11.7840376 C12.5195538,11.1893544 11.2206633,10.8920188 10,10.8920188 C8.77933671,10.8920188 7.4804462,11.1815301 6.10328638,11.7605619 C4.72612657,12.3395966 4.02191023,13.0829371 3.99061033,13.9906103 C5.46166685,16.1502468 7.46477671,17.2300469 10,17.2300469 L10,17.2300469 Z M10,3.00469484 C9.18622347,3.00469484 8.48200714,3.30203042 7.88732394,3.89671362 C7.29264075,4.49139681 6.99530516,5.19561315 6.99530516,6.00938967 C6.99530516,6.8231662 7.29264075,7.52738254 7.88732394,8.12206573 C8.48200714,8.71674892 9.18622347,9.01408451 10,9.01408451 C10.8137765,9.01408451 11.5179929,8.71674892 12.1126761,8.12206573 C12.7073592,7.52738254 13.0046948,6.8231662 13.0046948,6.00938967 C13.0046948,5.19561315 12.7073592,4.49139681 12.1126761,3.89671362 C11.5179929,3.30203042 10.8137765,3.00469484 10,3.00469484 L10,3.00469484 Z M10,0 C12.7543166,0 15.1095377,0.978082254 17.0657292,2.9342708 C19.0219177,4.89046235 20,7.24568338 20,10 C20,12.7543166 19.0219177,15.1095377 17.0657292,17.0657277 C15.1095377,19.0219189 12.7543166,20 10,20 C7.24568338,20 4.89046235,19.0219189 2.9342723,17.0657277 C0.978081052,15.1095377 0,12.7543166 0,10 C0,7.24568338 0.978081052,4.89046235 2.9342723,2.9342708 C4.89046235,0.978082254 7.24568338,0 10,0 L10,0 Z"/></svg>