<svg xmlns="http://www.w3.org/2000/svg" width="20" height="20" viewBox="0 0 20 20"><path fill="#3E6274" fill-rule="evenodd" d="M19.0215539,4.38591496 C19.3191243,4.41567286 19.5646176,4.53469873 19.7580368,4.74299828 C19.9514589,4.95129784 20.0332909,5.18935243 20.003533,5.45716493 L19.3786372,17.1962791 C19.3488793,17.49385 19.2298535,17.7319032 19.0215539,17.9104457 C18.8132544,18.0889883 18.5603222,18.1633799 18.2627519,18.1336228 L3.53306488,17.4194562 C3.23549449,17.3896991 2.99000114,17.2855508 2.79658053,17.1070083 C2.60315935,16.9284657 2.52132871,16.6904126 2.55108575,16.3928416 L2.64035658,14.3396125 L1.97082535,14.3842479 C1.70301143,14.4140058 1.4723976,14.3470513 1.27897642,14.18339 C1.08555524,14.0197259 0.973967841,13.8188679 0.944210803,13.5808105 L0.00686708591,3.04685251 C-0.0228900098,2.80879506 0.0440624558,2.5930596 0.207726454,2.39964042 C0.371390595,2.20621838 0.587126054,2.09463128 0.854939972,2.06487338 L14.0670228,0.993623418 C14.3348353,0.963865522 14.5654512,1.03082007 14.7588703,1.19448136 C14.9522924,1.3581455 15.0638795,1.55900344 15.0936374,1.79706089 L15.3168145,4.2073733 L19.0215539,4.38591496 Z M3.17598156,4.65372745 C3.20573945,4.38591496 3.31732656,4.15529913 3.51074574,3.96187709 C3.70416778,3.76845791 3.94966113,3.67174832 4.24723152,3.67174832 L14.0223874,4.16273789 L13.9331166,2.77904002 L13.8884812,2.77904002 L13.8884812,2.73440461 C13.8289682,2.49634715 13.6801845,2.37732129 13.442127,2.37732129 L1.79228369,3.35930042 C1.49471273,3.35930042 1.34592954,3.49320666 1.34592954,3.76101915 L1.34592954,3.80565457 L2.06009618,11.7507585 L2.86353365,10.6348731 L3.17598156,4.65372745 Z M18.0842102,15.1876854 L18.5305643,6.34987323 L18.5305643,6.30523781 C18.5305643,6.00766743 18.3669031,5.85888366 18.0395748,5.85888366 L15.4507207,5.72497742 L14.1562937,5.63570659 L5.05066899,5.23398785 C4.7530986,5.23398785 4.57455694,5.3678941 4.51504401,5.63570659 L4.51504401,5.680342 L4.38113776,8.49237315 L4.06868986,14.2057063 L4.06868986,14.5181542 L4.33650235,14.2057063 L8.88931469,9.34044604 C9.06785635,9.16190438 9.27615305,9.07263355 9.5142105,9.07263355 C9.78202299,9.07263355 9.99031969,9.1767819 10.1391063,9.38508145 L12.0584292,11.5722168 L12.1923354,11.706123 C12.3113641,11.8251518 12.4601479,11.8846647 12.6386896,11.8846647 C12.7279604,11.8846647 12.8618666,11.8400293 13.0404083,11.7507585 L13.7992103,11.2151335 C13.947997,11.0961047 14.1116583,11.0365918 14.2901999,11.0365918 C14.5282574,11.0365918 14.6919186,11.1109823 14.7811895,11.2597689 L15.9863457,12.7327376 L18.0842102,15.1876854 Z M15.2275436,9.8314356 C14.7811866,9.8314356 14.4092286,9.68265184 14.1116583,9.38508145 C13.8140879,9.08751107 13.6653041,8.71555308 13.6653041,8.26919608 C13.6653041,7.82283907 13.8215266,7.45088108 14.1339745,7.1533107 C14.4464253,6.85574031 14.8109445,6.70695655 15.2275436,6.70695655 C15.6739006,6.70695655 16.0458586,6.86317907 16.343429,7.17562698 C16.6409994,7.48807774 16.7897832,7.85259696 16.7897832,8.26919608 C16.7897832,8.68579519 16.6335606,9.05031441 16.3211127,9.36276517 C16.008662,9.67521308 15.6441427,9.8314356 15.2275436,9.8314356 Z"/></svg>