<svg height="1000" width="640" xmlns="http://www.w3.org/2000/svg"><path d="M520 730q50 0 85 35t35 85 -35 85 -85 35q-80 0 -110 -74l-164 0q-88 0 -131 -54t-43 -118l0 -464q-72 -34 -72 -110 0 -50 35 -85t85 -35 85 35 35 85q0 76 -72 110l0 114q0 78 78 78l164 0q30 -72 110 -72 50 0 85 35t35 85 -35 85 -85 35q-80 0 -110 -74l-164 0q-42 0 -78 -16l0 194q0 78 78 78l164 0q30 -72 110 -72zm0 -300q-28 0 -49 20t-21 50q0 28 21 48t49 20 49 -20 21 -48q0 -30 -21 -50t-49 -20zm-470 -280q0 28 21 48t49 20 49 -20 21 -48q0 -30 -21 -50t-49 -20 -49 20 -21 50zm470 768q28 0 49 -20t21 -48q0 -30 -21 -50t-49 -20 -49 20 -21 50q0 28 21 48t49 20z"/></svg>