<svg height="1000" width="896" xmlns="http://www.w3.org/2000/svg"><path d="M48 278q0 -58 25 -102t56 -65 69 -34 56 -15 26 -2l230 0l0 4q0 22 -78 36 -28 0 -38 6 40 20 54 56t14 96q0 102 -68 158 -38 38 -38 54 0 18 50 64 104 90 104 178 0 140 -116 194 -68 34 -150 34l-4 0l-4 -2q-2 2 -4 2 -24 0 -54 -5t-75 -21 -74 -57 -29 -103q0 -60 32 -101t83 -57 88 -22 71 -6l2 0q-16 -22 -24 -47t-8 -39l2 -14l-14 0q-64 0 -110 -30 -74 -44 -74 -160zm370 452q-4 -52 -43 -84t-103 -32l-16 0q-64 2 -114 46 -46 42 -42 94t53 80 119 24q68 -4 109 -40t37 -88zm-60 -500q-30 -108 -122 -108 -12 0 -20 2 -40 12 -58 62 -16 50 -2 106 14 52 47 85t71 33q12 0 18 -2 42 -12 63 -65t3 -113zm388 174l150 0l0 94l-150 0l0 150l-94 0l0 -150l-150 0l0 -94l150 0l0 -150l94 0l0 150z"/></svg>