<svg height="1000" width="920" xmlns="http://www.w3.org/2000/svg"><path d="M438 370q-30 -54 -66 -109t-56 -84 -24 -33q-82 40 -139 112t-77 162q182 0 362 -48zm50 132q8 -4 14 -4 -10 -28 -32 -68 -182 56 -402 56l0 14q0 150 100 262 4 -8 13 -21t39 -50 64 -69 89 -66 115 -54zm-270 306q-2 0 -4 -2l-4 -4zm148 -690zm354 86q-114 -98 -260 -98 -48 0 -92 12 82 108 146 228 138 -52 204 -140zm-260 756q-190 0 -325 -135t-135 -325 135 -325 325 -135 325 135 135 325 -135 325 -325 135zm68 -396q-216 74 -308 242l-2 2q110 84 242 84 78 0 154 -32 -24 -140 -84 -298zm16 -158q12 24 26 56 2 2 5 9t5 11q66 -8 129 -4t101 10 42 8q0 -138 -88 -246l-8 10q-8 10 -26 27t-42 36 -62 42 -82 41zm60 138q52 148 76 280 140 -92 168 -262 -8 -4 -39 -11t-88 -12 -117 5z"/></svg>