<svg height="1000" width="913" xmlns="http://www.w3.org/2000/svg"><path d="M522.372 70q174 0 286 49t104 105q-6 38 -48 307t-44 281q-2 18 -37 44t-107 50 -154 24 -153 -24 -106 -50 -37 -44q0 -2 -4 -30 82 6 163 -35t139 -117q28 0 48 -20t20 -50q0 -28 -20 -49t-50 -21q-28 0 -49 21t-21 49q0 20 10 36 -48 58 -115 89t-131 27q-102 -10 -157 -57t-59 -109q-8 -122 156 -184 -18 -94 -22 -138 -8 -56 104 -105t284 -49zm-452 470q4 32 37 59t91 39l-32 -204q-100 44 -96 106zm452 -212q82 0 157 -18t113 -39 38 -35 -38 -35 -112 -39 -158 -18q-82 0 -156 18t-112 39 -38 35 38 35 112 39 156 18z"/></svg>