<svg height="1000" width="960" xmlns="http://www.w3.org/2000/svg"><path d="M478 246q114 0 180 74 66 72 66 186 0 110 -68 184 -74 74 -180 74 -80 0 -142 -50 -58 -48 -70 -138l120 0q6 86 106 86 50 0 82 -42 30 -44 30 -118 0 -76 -28 -116 -30 -40 -82 -40 -96 0 -108 86l36 0l-96 94 -94 -94l36 0q14 -90 72 -138t140 -48zm2 -226q200 0 340 140t140 340q0 198 -140 339t-340 141q-198 0 -339 -141t-141 -339q0 -200 141 -340t339 -140zm0 872q162 0 277 -115t115 -277q0 -164 -115 -278t-277 -114 -277 114 -115 278q0 162 115 277t277 115z"/></svg>