<svg height="1000" width="960" xmlns="http://www.w3.org/2000/svg"><path d="M480 20q198 0 339 140t141 340q0 120 -56 224t-152 170q-108 -186 -338 -192 -176 -6 -296 114 -118 -138 -118 -316 0 -200 140 -340t340 -140zm234 650q14 -26 -10 -40 -188 -114 -460 -54 -30 8 -22 36 8 30 36 22 246 -58 416 46 26 14 40 -10zm58 -136q18 -34 -12 -50 -110 -68 -256 -85t-276 21q-34 10 -24 46 10 34 46 26 112 -34 244 -19t228 73q32 20 50 -12zm4 -142q38 24 62 -14 20 -38 -16 -62 -126 -74 -314 -89t-306 27q-18 4 -27 21t-3 33q6 18 22 27t34 3q102 -36 271 -23t277 77zm-364 454q130 4 186 118 -60 16 -118 16 -126 0 -234 -62 66 -74 166 -72z"/></svg>