<svg height="1000" width="960" xmlns="http://www.w3.org/2000/svg"><path d="M676 362q12 0 20 8t8 18l0 354q0 10 -8 18t-20 8l-260 0q-12 0 -20 -8t-8 -18l0 -104l-104 0q-10 0 -18 -8t-8 -20l0 -352q0 -12 6 -18 4 -6 18 -10l264 0q10 0 18 8t8 20l0 104l104 0zm-264 0l108 0l0 -78l-210 0l0 300l78 0l0 -196q0 -10 8 -18 4 -4 16 -8zm238 354l0 -302l-210 0l0 302l210 0zm-170 -696q200 0 340 140t140 340q0 198 -140 339t-340 141q-198 0 -339 -141t-141 -339q0 -200 141 -340t339 -140zm0 872q162 0 277 -115t115 -277q0 -164 -115 -278t-277 -114 -277 114 -115 278q0 162 115 277t277 115z"/></svg>