<svg height="1000" width="920" xmlns="http://www.w3.org/2000/svg"><path d="M224 346q-22 0 -42 10 -48 -52 -92 -128 54 -74 128 -118 92 38 152 82 -6 16 -6 32 0 6 4 22 -62 48 -116 104 -16 -4 -28 -4zm-98 98q0 34 20 60 -60 114 -80 232 -66 -106 -66 -236 0 -110 50 -206 38 62 84 112 -8 24 -8 38zm336 -318q-28 0 -50 14 -58 -42 -114 -70 84 -30 162 -30 120 0 230 62 -76 14 -162 50 -26 -26 -66 -26zm146 460q-160 -24 -290 -112 4 -20 4 -30 0 -24 -14 -52 38 -44 98 -90 26 20 56 20 14 0 38 -8 94 108 134 240 -16 14 -26 32zm128 132q38 -14 54 -60 58 -4 108 -18 -46 146 -166 232 6 -48 6 -98 0 -10 -1 -28t-1 -28zm-150 -66q-190 96 -304 272 -90 -36 -158 -110 12 -144 80 -274 6 2 20 2 30 0 52 -14 142 98 310 124zm184 -492q150 136 150 340 0 22 -4 66 -64 18 -130 24 -24 -56 -88 -60 -48 -146 -148 -264 10 -20 10 -42l0 -10q100 -42 210 -54zm-136 544q14 10 32 18 2 18 2 52 0 80 -14 144 -86 42 -194 42 -58 0 -112 -12 110 -160 286 -244z"/></svg>