<svg height="1000" width="1000" xmlns="http://www.w3.org/2000/svg"><path d="M154.545 344q-8 8 -11 22t-3 25 -2 11q-2 2 -17 15t-19 17q-16 14 -28 -4l-70 -76q-10 -12 2 -24 2 -2 18 -14t20 -16q6 -6 27 -6t37 -14q14 -14 18 -38t10 -30q2 0 9 -7t26 -22 41 -31q134 -90 186 -96 122 0 148 2 12 0 -8 8 -120 52 -152 76 -80 56 -36 114 34 46 38 48 8 8 -2 14 -2 2 -38 35t-38 35q-14 8 -18 4 -42 -48 -71 -60t-67 12zm286 26l410 476q18 22 -2 38l-48 42q-22 14 -38 -4l-414 -472q-8 -8 0 -20l72 -62q12 -8 20 2zm554 -202q16 104 -16 166 -50 88 -154 62 -56 -12 -100 32l-82 78 -68 -78 68 -70q24 -24 31 -53t6 -65 5 -58q12 -56 140 -112 12 -6 18 3t2 15q-12 12 -46 80 -14 10 -12 35t40 53q58 40 96 -22 6 -12 26 -41t22 -33q4 -10 13 -9t11 17zm-858 684l254 -248 76 86 -246 242q-20 20 -38 4l-46 -46q-22 -18 0 -38z"/></svg>