<svg height="1000" width="905" xmlns="http://www.w3.org/2000/svg"><path d="M84.629 316q-16 14 -36 12t-34 -18q-14 -14 -12 -36t18 -36q48 -40 79 -60t89 -40 129 -4 159 66 155 53 100 -16 89 -67q38 -30 70 6 32 40 -6 72 -122 110 -234 110 -100 0 -222 -70 -68 -38 -119 -52t-93 0 -65 29 -67 51zm736 110q38 -32 70 6 32 40 -6 72 -40 34 -65 53t-72 38 -97 19q-96 0 -222 -70 -68 -38 -119 -52t-93 0 -65 29 -67 51q-14 14 -35 12t-35 -18q-32 -40 6 -72 38 -34 60 -50t69 -38 88 -23 105 15 134 56q68 38 119 52t93 0 65 -29 67 -51zm0 256q38 -32 70 6 14 14 12 36t-18 36q-40 34 -65 53t-72 38 -97 19q-96 0 -222 -70 -68 -38 -119 -52t-93 -1 -66 29 -66 52q-14 14 -35 12t-35 -18q-32 -40 6 -72 38 -34 60 -50t69 -38 88 -23 105 15 134 56q68 38 119 52t93 0 65 -29 67 -51z"/></svg>