<svg height="1000" width="640" xmlns="http://www.w3.org/2000/svg"><path d="M640 200q0 80 -74 110 -6 58 -28 101t-61 69 -68 38 -75 26q-42 14 -63 22t-47 24 -38 40 -16 60q70 30 70 110 0 50 -35 85t-85 35 -85 -35 -35 -85q0 -78 72 -112l0 -378q-72 -34 -72 -110 0 -50 35 -85t85 -35 85 35 35 85q0 76 -72 110l0 204q40 -30 138 -60 58 -18 84 -29t51 -41 29 -76q-70 -32 -70 -108 0 -50 35 -85t85 -35 85 35 35 85zm-588 0q0 28 20 48t48 20 49 -20 21 -48q0 -30 -21 -50t-49 -20 -48 20 -20 50zm68 668q28 0 49 -20t21 -48q0 -30 -21 -50t-49 -20 -48 20 -20 50q0 28 20 48t48 20zm400 -600q28 0 49 -20t21 -48q0 -30 -21 -50t-49 -20 -48 20 -20 50q0 28 20 48t48 20z"/></svg>