<svg height="1000" width="960" xmlns="http://www.w3.org/2000/svg"><path d="M480 20q200 0 340 140t140 340q0 198 -140 339t-340 141q-198 0 -339 -141t-141 -339q0 -200 141 -340t339 -140zm-370 352q-22 62 -22 128 0 162 115 277t277 115q110 0 201 -55t143 -149l-246 -108l-174 0q10 36 26 56 38 40 104 40 46 0 92 -20l18 90q-56 30 -124 30 -128 0 -196 -92 -34 -44 -46 -104l-52 0l0 -58l44 0l0 -14q0 -4 1 -12t1 -12l-46 0l0 -56l10 0zm488 112l262 116q12 -48 12 -100 0 -164 -115 -278t-277 -114q-102 0 -189 48t-141 130l158 70q8 -14 28 -38 72 -82 184 -82 70 0 122 24l-24 92q-40 -20 -88 -20 -64 0 -100 44 -10 10 -16 28l56 24l136 0l0 56l-8 0z"/></svg>