<svg height="1000" width="920" xmlns="http://www.w3.org/2000/svg"><path d="M454.116 40q190 -2 326 130t140 322q2 190 -131 327t-323 141q-190 2 -327 -131t-139 -323q-4 -190 130 -327t324 -139zm0 60q-94 0 -178 44l62 104q56 -28 122 -28t122 28l62 -104q-88 -46 -190 -44zm-246 522q-28 -60 -28 -122 0 -64 28 -124l-102 -62q-46 88 -46 190 2 96 46 180zm258 278q98 -4 178 -46l-62 -104q-60 30 -122 30t-122 -30l-62 104q86 46 190 46zm-6 -180q92 0 156 -65t64 -155q0 -92 -64 -156t-156 -64 -156 64 -64 156q0 90 64 155t156 65zm252 -98l104 62q46 -96 44 -190 0 -96 -44 -180l-104 62q28 60 28 124 0 62 -28 122z"/></svg>