<svg height="1000" width="960" xmlns="http://www.w3.org/2000/svg"><path d="M480 222q108 0 153 81t45 197q0 114 -45 195t-153 81 -153 -81 -45 -195q0 -116 45 -197t153 -81zm-86 278q0 18 4 66l106 -194q14 -24 -6 -42 -12 -4 -18 -4 -86 0 -86 174zm86 172q86 0 86 -172 0 -40 -6 -84l-118 204q-22 30 12 46 2 2 6 2 2 0 2 2 2 0 8 1t10 1zm0 -652q200 0 340 140t140 340q0 198 -140 339t-340 141q-198 0 -339 -141t-141 -339q0 -200 141 -340t339 -140zm0 872q162 0 277 -115t115 -277q0 -164 -115 -278t-277 -114 -277 114 -115 278q0 162 115 277t277 115z"/></svg>