<svg height="1000" width="922" xmlns="http://www.w3.org/2000/svg"><path d="M811.836 650q30 22 38 53t-12 61q-110 154 -298 187t-344 -77q-24 -16 -38 -30 76 24 148 25t128 -18 101 -43 80 -57 53 -52 28 -35q20 -30 53 -33t63 19zm-612 -30q14 32 1 61t-47 45q-32 16 -64 7t-46 -41q-80 -172 -14 -352t238 -260q24 -10 44 -16 -84 76 -123 170t-32 178 18 130 25 78zm302 -580q190 18 312 164t106 336q-4 32 -8 48 -20 -92 -67 -163t-98 -109 -110 -63 -92 -32 -57 -9q-34 -2 -54 -29t-16 -63q4 -38 26 -60t58 -20zm-196 486q16 -38 34 -46l0 -6q0 -12 8 -24l0 -2q0 -8 2 -12 4 -50 33 -82t79 -32q48 0 78 32t32 82q2 4 2 12l0 2q8 8 8 24l0 6q18 8 34 46 26 54 6 66 -12 6 -30 -22 -6 28 -30 46 26 10 26 26 0 14 -18 23t-44 9q-52 0 -60 -26l-8 0q-12 26 -62 26 -26 0 -44 -9t-18 -23q0 -16 26 -26 -24 -20 -30 -46 -18 28 -28 22 -22 -10 4 -66z"/></svg>