<svg height="1000" width="910" xmlns="http://www.w3.org/2000/svg"><path d="M176.041 262q42 -42 149 5t217 157 157 217 5 149q-28 28 -92 67t-156 78 -194 29 -176 -84 -84 -176 29 -194 78 -156 67 -92zm464 480q8 -10 -3 -49t-49 -101 -96 -118q-56 -58 -118 -96t-101 -49 -49 -3q-8 10 3 49t49 101 94 120q58 56 120 94t101 49 49 3zm6 -394q-18 0 -34 -16 -16 -14 -16 -35t16 -35l94 -96q36 -32 72 0 32 36 0 72l-96 94q-16 16 -36 16zm-180 -124q-18 -10 -23 -30t5 -38l54 -96q26 -44 68 -20 18 10 23 30t-5 38l-54 96q-14 26 -42 26 -14 0 -26 -6zm438 150q10 18 4 38t-24 30l-96 54q-16 8 -24 8 -28 0 -44 -26 -10 -18 -4 -38t24 -30l96 -54q18 -10 38 -5t30 23z"/></svg>