<svg height="1000" width="940" xmlns="http://www.w3.org/2000/svg"><path d="M868 738q72 34 72 112 0 50 -35 85t-85 35 -85 -35 -35 -85q0 -78 72 -112l0 -114q0 -78 -76 -78l-100 0q-44 0 -78 -12l0 204q72 34 72 112 0 50 -35 85t-85 35 -85 -35 -35 -85q0 -78 72 -112l0 -204q-30 12 -76 12l-100 0q-34 0 -53 19t-22 33 -3 26l0 114q72 34 72 112 0 50 -35 85t-85 35 -85 -35 -35 -85q0 -78 72 -112l0 -114q0 -64 43 -118t131 -54l100 0q76 0 76 -52l0 -140q-72 -34 -72 -110 0 -50 35 -85t85 -35 85 35 35 85q0 76 -72 110l0 140q0 52 78 52l100 0q86 0 129 54t43 118l0 114zm-678 112q0 -30 -21 -50t-49 -20 -48 20 -20 50q0 28 20 48t48 20 49 -20 21 -48zm212 -700q0 28 20 48t48 20 49 -20 21 -48q0 -30 -21 -50t-49 -20 -48 20 -20 50zm138 700q0 -30 -21 -50t-49 -20 -48 20 -20 50q0 28 20 48t48 20 49 -20 21 -48zm280 68q28 0 49 -20t21 -48q0 -30 -21 -50t-49 -20 -48 20 -20 50q0 28 20 48t48 20z"/></svg>