<svg height="1000" width="960" xmlns="http://www.w3.org/2000/svg"><path d="M434 364q8 30 -1 57t-31 33l-10 0q-42 0 -60 -60 -6 -30 2 -54 10 -24 30 -30 2 -2 10 -2 44 0 60 56zm46 -344q200 0 340 140t140 340q0 198 -140 339t-340 141q-198 0 -339 -141t-141 -339q0 -200 141 -340t339 -140zm-28 686q60 -30 60 -98 0 -44 -52 -92 -26 -22 -26 -32 0 -12 20 -26 34 -34 34 -80 0 -58 -36 -78 2 -2 10 -3t10 -1q40 -4 40 -16l0 -4l-116 0q-12 0 -33 4t-53 32 -32 76q0 56 38 80 22 16 56 16l6 0q-4 24 16 50l-2 0q-138 0 -138 94 0 40 28 63t49 27 39 4l8 0q40 0 74 -16zm254 -208l0 -48l-76 0l0 -76l-48 0l0 76l-76 0l0 48l76 0l0 76l48 0l0 -76l76 0zm-314 58q32 0 52 17t22 43 -19 44 -55 20q-34 4 -60 -11t-28 -41q0 -26 22 -48 20 -20 58 -24l8 0z"/></svg>