<svg height="1000" width="1000" xmlns="http://www.w3.org/2000/svg"><path d="M930 200q28 0 49 21t21 49l0 460q0 30 -21 50t-49 20l-860 0q-28 0 -49 -20t-21 -50l0 -460q0 -28 21 -49t49 -21l860 0zm-380 100l0 100l100 0l0 -100l-100 0zm150 150l-100 0l0 100l100 0l0 -100zm-300 -150l0 100l100 0l0 -100l-100 0zm150 150l-100 0l0 100l100 0l0 -100zm-300 -150l0 100l100 0l0 -100l-100 0zm150 150l-100 0l0 100l100 0l0 -100zm-300 -150l0 100l100 0l0 -100l-100 0zm150 150l-100 0l0 100l100 0l0 -100zm-50 250l0 -100l-100 0l0 100l100 0zm550 0l0 -100l-500 0l0 100l500 0zm150 0l0 -100l-100 0l0 100l100 0zm-150 -150l100 0l0 -100l-100 0l0 100zm150 -150l0 -100l-200 0l0 100l200 0z"/></svg>