<svg height="1000" width="960" xmlns="http://www.w3.org/2000/svg"><path d="M480 20q198 0 339 140t141 340q0 198 -141 339t-339 141q-200 0 -340 -141t-140 -339q0 -200 140 -340t340 -140zm132 620q120 0 120 -80 0 -66 -76 -84l-38 -8q-32 -8 -32 -34 0 -30 40 -30 44 0 46 34l58 -6q-6 -74 -100 -74 -102 0 -102 84 0 60 66 76l40 8q40 10 40 36 0 32 -62 32 -76 0 -100 -74l-20 -58q-18 -58 -45 -81t-85 -23q-54 0 -95 40t-41 106q0 62 39 99t93 37 86 -26l-18 -50q-28 28 -66 28 -32 0 -55 -25t-23 -65q0 -50 25 -73t57 -23q34 0 49 18t27 56l18 58q32 102 154 102z"/></svg>