<svg height="1000" width="1001" xmlns="http://www.w3.org/2000/svg"><path d="M988 544q30 82 -10 176t-134 160q-10 0 -12 -2t-16 -19 -16 -19q-2 -6 2 -10 86 -60 117 -152t-11 -148q-16 38 -39 76t-59 80 -86 65 -106 15q-52 -6 -84 -41t-32 -93q0 -84 60 -148 50 -50 114 -66l-2 -100q-140 24 -146 24 -6 2 -10 -4 0 -2 -5 -29t-5 -31q-2 -2 1 -4t7 -2l156 -28q0 -110 -2 -114 0 -8 8 -8 46 0 52 -2 10 0 10 8l0 104q158 -22 164 -22 8 -4 10 6 0 2 4 23t4 25q4 10 -4 12l-176 30l0 102l12 0q86 0 148 36t86 100zm-370 160q28 6 62 -6l-4 -214q-34 12 -60 40 -44 44 -44 108 0 66 46 72zm122 -28q28 -24 58 -68t45 -79 7 -41q-36 -18 -96 -18 -2 0 -6 1t-6 1zm-448 -382q10 28 53 165t83 261 40 126q0 4 -4 4l-86 0q-6 0 -6 -4l-50 -166l-176 0q-48 164 -50 166 0 4 -6 4l-86 0q-4 0 -4 -4 10 -18 176 -552 2 -8 10 -8l96 0q10 0 10 8zm-130 316l144 0l-72 -264z"/></svg>