<svg height="1000" width="960" xmlns="http://www.w3.org/2000/svg"><path d="M474.112 20q198 -2 340 136t146 336q2 200 -136 342t-338 146q-198 2 -341 -137t-145 -337q-4 -200 135 -342t339 -144zm12 858q156 -2 266 -114t108 -270 -115 -267 -269 -107q-158 2 -267 114t-107 270 114 267 270 107zm-124 -298q40 0 58 -40l56 30q-20 36 -50 52 -32 20 -70 20 -62 0 -100 -38 -38 -36 -38 -104t38 -106 96 -38q86 0 124 66l-62 32q-10 -20 -24 -28t-28 -8q-60 0 -60 82 0 38 14 58 18 22 46 22zm266 0q42 0 56 -40l58 30q-18 32 -50 52t-70 20q-64 0 -100 -38 -38 -36 -38 -104 0 -64 38 -106 38 -38 98 -38 84 0 120 66l-60 32q-10 -20 -24 -28t-28 -8q-62 0 -62 82 0 36 16 58t46 22z"/></svg>