<svg height="1000" width="960" xmlns="http://www.w3.org/2000/svg"><path d="M794 508l10 4l0 136l-10 4 -116 50 -4 2 -6 -2 -252 -104 -8 -4 -124 52 -124 -54l0 -122l116 -48 -2 -2l0 -136l130 -56 294 122l0 118zm-136 158l0 -86l-2 0l0 -2l-220 -90l0 86l220 92l0 -2zm14 -112l78 -32 -72 -30 -76 32zm102 74l0 -84l-86 36l0 84zm-294 -608q200 0 340 140t140 340q0 198 -140 339t-340 141q-198 0 -339 -141t-141 -339q0 -200 141 -340t339 -140zm0 872q162 0 277 -115t115 -277q0 -164 -115 -278t-277 -114 -277 114 -115 278q0 162 115 277t277 115z"/></svg>