<svg height="1000" width="960" xmlns="http://www.w3.org/2000/svg"><path d="M480 20q200 0 340 140t140 340q0 198 -140 339t-340 141q-198 0 -339 -141t-141 -339q0 -200 141 -340t339 -140zm-370 352q-22 62 -22 128 0 162 115 277t277 115q110 0 201 -55t143 -149l-424 -188q2 54 28 96t76 42q36 0 64 -26l6 -6 70 84q-4 2 -10 7t-8 9q-62 42 -136 42 -86 0 -159 -58t-73 -188q0 -32 6 -62zm310 34l440 194q12 -48 12 -100 0 -164 -115 -278t-277 -114q-102 0 -189 48t-141 130l148 66q64 -102 196 -102 88 0 150 54l-78 80q-8 -8 -14 -12 -22 -16 -52 -16 -52 0 -80 50z"/></svg>