<svg height="1000" width="800" xmlns="http://www.w3.org/2000/svg"><path d="M700 50q42 0 71 29t29 71l0 700q0 40 -29 70t-71 30l-600 0q-40 0 -70 -30t-30 -70l0 -700q0 -42 30 -71t70 -29l600 0zm0 800l0 -700l-600 0l0 700l600 0zm-250 -250l0 50l-250 0l0 -50l250 0zm150 -200l0 50l-200 0l0 -50l200 0zm-200 -50l0 -100l200 0l0 100l-200 0zm-50 -100l0 200l-150 0l0 -200l150 0zm-50 250l0 50l-100 0l0 -50l100 0zm50 50l0 -50l250 0l0 50l-250 0zm250 150l0 50l-400 0l0 -50l400 0zm-100 -50l0 -50l100 0l0 50l-100 0z"/></svg>