<svg height="1000" width="1000" xmlns="http://www.w3.org/2000/svg"><path d="M34 672q0 4 -10 4 -6 0 -10 -4l-14 -70 14 -72q4 -4 10 -4 10 0 10 4l16 72zm102 38q0 8 -12 8t-12 -8l-12 -108 12 -166q0 -8 12 -8t12 8l14 166zm102 -2q0 10 -14 10t-14 -8l-10 -108 10 -222q0 -10 14 -10t14 10l12 222zm102 0q0 10 -16 10t-16 -10l-8 -106 8 -224q0 -10 16 -10t16 10l10 224zm102 -2q0 12 -18 12 -16 0 -18 -12l-6 -104 6 -256q4 -14 18 -14 18 0 18 14l8 256zm72 12q-14 0 -14 -14l0 -396q0 -10 12 -14 36 -14 84 -14 88 0 153 58t73 142q24 -10 50 -10 52 0 90 37t38 87q0 52 -38 89t-90 37z"/></svg>