<svg height="1000" width="998" xmlns="http://www.w3.org/2000/svg"><path d="M477.184 862q-184 0 -319 -101t-155 -255q-22 -170 108 -308t336 -164 366 77 182 273q14 118 -35 244t-165 225 -270 117l0 -108l-48 0zm306 -220l0 -276q0 -34 -10 -52 -8 -18 -30 -38 -16 -12 -44 -20 -28 -6 -56 -6 -44 0 -74 16 -24 12 -42 30 -10 -16 -36 -32 -30 -14 -70 -14 -66 0 -110 38l0 -30l-88 0l0 384l92 0l0 -236q0 -4 4 -20 4 -10 16 -26 10 -14 26 -20 20 -10 40 -10 18 0 30 6 8 4 16 10 4 8 8 20 4 16 4 28l0 248l90 0l0 -236q0 -36 22 -54 22 -22 62 -22 20 0 32 6 10 2 16 12 8 8 8 18 4 20 4 28l0 248l90 0z"/></svg>