<svg height="1000" width="700" xmlns="http://www.w3.org/2000/svg"><path d="M350 340q68 0 114 47t46 113q0 68 -46 114t-114 46q-66 0 -113 -46t-47 -114q0 -66 47 -113t113 -47zm0 264q44 0 73 -30t29 -74q0 -42 -29 -72t-73 -30q-42 0 -72 30t-30 72q0 44 30 74t72 30zm-300 -144q20 0 35 12t15 28q0 40 -50 40t-50 -40q0 -16 15 -28t35 -12zm546 -204q28 28 -8 64 -14 14 -33 16t-29 -10q-12 -12 -10 -31t16 -33q36 -34 64 -6zm54 204q20 0 35 12t15 28q0 40 -50 40 -48 0 -48 -40 0 -16 14 -28t34 -12zm-300 290q16 0 28 15t12 35 -12 35 -28 15 -28 -15 -12 -35 12 -35 28 -15zm-238 -62q36 -36 64 -8t-8 64q-14 14 -33 16t-29 -8q-30 -28 6 -64zm-10 -430q28 -28 64 8 14 14 16 33t-8 29q-30 28 -64 -6 -36 -36 -8 -64zm432 484q-34 -36 -6 -64t64 8q14 14 16 33t-10 29q-30 28 -64 -6zm-184 -492q-16 0 -28 -15t-12 -35 12 -35 28 -15 28 15 12 35 -12 35 -28 15z"/></svg>