<svg height="1000" width="996" xmlns="http://www.w3.org/2000/svg"><path d="M732 502q118 38 118 136 0 102 -127 197t-313 95q-160 0 -285 -78t-125 -196q0 -130 146 -280 92 -92 186 -129t134 3q36 36 10 116 -4 14 8 14l16 -2q74 -34 134 -34t84 34q24 36 -2 100 -6 18 16 24zm-322 354q122 -12 202 -77t72 -145q-10 -80 -100 -128t-212 -36 -202 77 -70 145q8 80 98 128t212 36zm586 -488l0 2q0 14 -11 24t-25 10 -24 -10 -10 -24q0 -96 -68 -163t-162 -67q-16 0 -26 -10t-10 -26q0 -34 36 -34 124 0 212 87t88 211zm-140 -4q4 14 -4 27t-22 15q-34 4 -42 -28 -8 -38 -36 -66t-66 -36q-34 -8 -26 -40 8 -36 42 -28 58 12 100 55t54 101zm-528 210q48 -10 88 12t48 62q10 40 -19 77t-79 45q-48 10 -88 -12t-48 -62 20 -76 78 -46z"/></svg>