<svg height="1000" width="960" xmlns="http://www.w3.org/2000/svg"><path d="M480 20q200 0 340 140t140 340q0 198 -140 339t-340 141q-198 0 -339 -141t-141 -339q0 -200 141 -340t339 -140zm-370 350q-22 62 -22 130 0 162 115 277t277 115q110 0 202 -56t142 -148l-178 -80q-8 46 -46 74 -38 30 -86 34l0 74l-56 0l0 -74q-78 0 -146 -58l66 -66q50 44 108 44 24 0 42 -12t18 -36q0 -18 -14 -30l-46 -20 -56 -26 -76 -32zm506 122l242 108q14 -44 14 -100 0 -164 -115 -278t-277 -114q-102 0 -188 48t-140 130l182 82q12 -36 46 -62 32 -22 78 -24l0 -74l56 0l0 74q68 4 120 44l-62 64q-44 -28 -84 -28 -24 0 -38 8 -18 10 -18 30 0 8 4 12l60 28 42 18z"/></svg>