<svg height="1000" width="920" xmlns="http://www.w3.org/2000/svg"><path d="M556 40q152 0 258 106t106 256q0 142 -96 247t-236 115q-34 86 -112 141t-172 55q-126 0 -215 -90t-89 -214q0 -96 54 -173t140 -111q12 -140 116 -236t246 -96zm-252 818q118 0 174 -100 -104 -22 -179 -97t-97 -179q-100 56 -100 174 0 84 59 143t143 59zm4 -404q16 76 70 129t128 69q-2 -80 -60 -138t-138 -60zm300 198q88 -18 145 -88t57 -162q0 -106 -75 -180t-179 -74q-90 0 -161 58t-87 146q124 2 211 89t89 211zm-504 -398q-42 0 -73 -30t-31 -72q0 -44 31 -74t73 -30q44 0 74 30t30 74q0 42 -30 72t-74 30zm0 -160q-24 0 -40 17t-16 41q0 22 16 39t40 17 41 -17 17 -39q0 -24 -17 -41t-41 -17z"/></svg>