<svg height="1000" width="960" xmlns="http://www.w3.org/2000/svg"><path d="M480 496q16 0 42 -2t41 -2 32 4 29 14q26 26 26 60 0 64 -43 84t-127 20 -127 -20 -43 -84q0 -34 26 -60 12 -10 29 -14t32 -4 41 2 42 2zm-80 128q14 0 23 -14t9 -32q0 -46 -32 -46t-32 46q0 18 9 32t23 14zm160 0q14 0 24 -14t10 -32q0 -20 -10 -33t-24 -13q-32 0 -32 46 0 18 9 32t23 14zm-80 -604q200 0 340 140t140 340q0 198 -140 339t-340 141q-198 0 -339 -141t-141 -339q0 -200 141 -340t339 -140zm44 676q188 0 188 -184 0 -56 -38 -98 4 -4 1 -41t-17 -71q-44 6 -114 52 -20 -6 -64 -6 -40 0 -64 6 -30 -20 -59 -33t-41 -17l-14 -2q-14 34 -17 71t1 41q-38 42 -38 98 0 184 188 184l88 0z"/></svg>