<svg height="1000" width="880" xmlns="http://www.w3.org/2000/svg"><path d="M440 60q182 0 311 129t129 311q0 110 -51 205t-139 157q-100 -170 -310 -176 -162 -6 -272 104 -108 -124 -108 -290 0 -184 128 -312t312 -128zm214 596q16 -22 -8 -38 -172 -106 -422 -48 -26 8 -20 32 6 26 32 22 228 -54 382 40 22 14 36 -8zm54 -124q18 -30 -12 -48 -100 -62 -235 -77t-251 19q-32 10 -24 44 12 32 42 22 104 -32 225 -18t209 68q28 20 46 -10zm4 -130q34 20 56 -14 20 -34 -14 -56 -116 -68 -288 -82t-282 24q-14 4 -22 19t-4 31q10 38 50 28 94 -34 249 -22t255 72zm-336 414q120 6 172 110 -64 14 -108 14 -114 0 -214 -56 58 -72 150 -68z"/></svg>