<svg height="1000" width="1000" xmlns="http://www.w3.org/2000/svg"><path d="M394 628l34 100q-64 52 -168 52 -106 0 -183 -73t-77 -199q0 -130 80 -209t188 -79q112 0 167 45t91 159l36 116q48 146 202 146 120 0 120 -60 0 -54 -78 -72l-78 -18q-134 -34 -134 -152 0 -88 58 -126t146 -38q184 0 198 146l-114 14q-8 -70 -90 -70t-82 62q0 50 66 66l74 16q150 36 150 166 0 160 -238 160 -136 0 -204 -53t-100 -149l-36 -116q-14 -40 -22 -60t-25 -43 -42 -33 -61 -10q-64 0 -113 46t-49 142q0 80 46 130t110 50q60 0 128 -56z"/></svg>