<svg height="1000" width="920" xmlns="http://www.w3.org/2000/svg"><path d="M894 600q26 58 26 118 0 108 -75 185t-179 77q-62 0 -120 -32 -52 8 -80 8 -182 0 -311 -132t-129 -320q0 -44 10 -90 -36 -60 -36 -134 0 -108 74 -184t180 -76q74 0 136 40 32 -8 76 -8 182 0 310 132t128 320q0 46 -10 96zm-204 120q30 -46 30 -100 0 -44 -16 -80 -16 -30 -50 -54 -36 -22 -76 -36 -68 -20 -96 -26 -14 -2 -35 -7t-27 -7q-24 -8 -34 -14 -16 -8 -26 -22 -10 -10 -10 -26 0 -24 28 -42 26 -20 76 -20t74 18q26 22 38 50 16 26 26 36 16 12 38 12 26 0 46 -20 18 -18 18 -44 0 -20 -14 -52 -16 -24 -42 -48 -28 -22 -74 -38 -48 -14 -102 -14 -72 0 -128 22 -56 20 -86 60t-30 92 28 90q34 40 76 56 48 22 116 36 12 2 29 7t30 8 21 5q28 10 46 28 18 14 18 42 0 34 -32 56 -36 24 -90 24 -40 0 -64 -12 -26 -14 -36 -28 -24 -44 -26 -46 -8 -24 -24 -40 -20 -14 -40 -14 -28 0 -46 18t-18 42q0 38 28 82 26 40 72 66 64 34 158 34 78 0 138 -24 60 -28 88 -70z"/></svg>