<svg height="1000" width="960" xmlns="http://www.w3.org/2000/svg"><path d="M494 498q-44 14 -82 44t-55 51 -25 35q-48 -58 -48 -128l0 -4q106 0 200 -28l14 28zm114 -148q-32 42 -100 68 -26 -48 -70 -110 14 -4 42 -4 72 0 128 46zm-246 304q40 -80 152 -120 34 92 40 146 -36 16 -74 16 -68 0 -118 -42zm104 -222q-92 24 -176 24 18 -92 104 -134 32 40 72 110zm90 92q12 -2 38 -2 30 0 80 10 -16 82 -82 128 -6 -56 -36 -136zm-76 -504q200 0 340 140t140 340q0 198 -140 339t-340 141q-198 0 -339 -141t-141 -339q0 -200 141 -340t339 -140zm0 714q98 0 167 -69t69 -165q0 -98 -69 -167t-167 -69 -166 69 -68 167q0 96 68 165t166 69zm46 -282q72 -28 108 -74 42 52 42 116 -48 -8 -90 -8 -30 0 -44 2 -2 -2 -2 -4 0 -4 -2 -4 -2 -4 -6 -13t-6 -15z"/></svg>