<svg height="1000" width="560" xmlns="http://www.w3.org/2000/svg"><path d="M560 228q0 44 -48 96t-97 99 -49 77 49 76 97 97 48 97l0 118q0 34 -86 73t-194 39 -194 -39 -86 -73l0 -118q0 -46 48 -97t97 -97 49 -76 -49 -77 -97 -99 -48 -96l0 -118q0 -32 87 -71t193 -39 193 39 87 71l0 118zm-482 -112l-18 14q-4 8 4 14 92 52 216 52 132 0 220 -50 14 -10 -16 -30 -96 -54 -202 -54 -120 0 -204 54zm228 384q0 -18 4 -33t18 -33 20 -25 31 -31 29 -28q92 -92 92 -122l2 -50q-100 54 -222 54t-222 -54l4 50q0 32 90 122 6 6 22 21t23 22l19 19t17 21 11 20 9 23 3 24q0 10 -1 19t-6 18 -8 16 -11 17l-12 15t-15 16 -16 15 -18 16 -17 16q-90 90 -90 122l0 66q8 -4 66 -23t92 -43 34 -58q0 -30 26 -30t26 30q0 34 33 58t94 43 67 23l0 -66q0 -30 -92 -122 -4 -4 -21 -20t-22 -21 -18 -19 -18 -22 -12 -20 -9 -23 -2 -23z"/></svg>