<svg height="1000" width="960" xmlns="http://www.w3.org/2000/svg"><path d="M588 492q20 12 28 30 10 20 10 44 0 32 -18 56 -12 22 -48 40 -38 14 -78 14 -54 0 -88 -20 -22 -12 -40 -36 -16 -26 -16 -46 0 -14 10 -24 14 -10 26 -10 14 0 22 8 8 4 14 22 2 6 7 15t7 11q6 8 20 16 16 6 36 6 32 0 50 -12 18 -14 18 -32 0 -16 -10 -24 -10 -10 -26 -16 -6 -2 -21 -5t-23 -5q-20 -4 -66 -20 -20 -10 -42 -32 -16 -22 -16 -52 0 -28 18 -50 16 -22 48 -34 30 -12 72 -12 34 0 56 8 20 4 42 20 18 18 24 28 6 16 6 30t-10 24 -24 10q-12 0 -22 -6 -8 -8 -14 -20 -10 -18 -22 -28 -10 -10 -42 -10 -26 0 -42 10 -16 12 -16 24 0 10 6 16 8 8 14 10 4 2 20 8 18 6 34 10 36 8 54 14 28 10 42 20zm-108 -472q200 0 340 140t140 340q0 198 -140 339t-340 141q-198 0 -339 -141t-141 -339q0 -200 141 -340t339 -140zm116 748q58 0 100 -43t42 -103q0 -34 -16 -66 6 -28 6 -54 0 -104 -72 -178t-174 -74q-28 0 -42 2 -34 -22 -74 -22 -60 0 -102 43t-42 103q0 40 20 76 -4 16 -4 50 0 104 72 178t172 74q32 0 46 -4 30 18 68 18z"/></svg>