<svg height="1000" width="960" xmlns="http://www.w3.org/2000/svg"><path d="M480 20q200 0 340 140t140 340q0 198 -140 339t-340 141q-198 0 -339 -141t-141 -339q0 -200 141 -340t339 -140zm-374 364q-18 54 -18 116 0 162 115 277t277 115q106 0 195 -52t141 -140l-152 -68l0 68l-126 0l0 108l-118 0l0 -108l-124 0l0 -74l124 0l0 -36l-12 -24l-112 0l0 -74l54 0zm432 242l112 0l-106 -48 -6 12l0 36zm126 -100l192 86q16 -58 16 -112 0 -164 -115 -278t-277 -114q-106 0 -194 51t-140 137l158 70 -54 -98l128 0l76 166 46 20 82 -186l128 0l-122 224l76 0l0 34z"/></svg>