<svg height="1000" width="860" xmlns="http://www.w3.org/2000/svg"><path d="M690 500q0 -26 -6 -50l176 0l0 344q0 56 -39 96t-95 40l-592 0q-56 0 -95 -40t-39 -96l0 -344l174 0q-4 32 -4 50 0 106 76 183t184 77q106 0 183 -77t77 -183zm36 -430q56 0 95 39t39 95l0 146l-218 0q-78 -110 -212 -110 -138 0 -212 110l-218 0l0 -146q0 -56 39 -95t95 -39l592 0zm64 166l0 -72q0 -24 -24 -24l-72 0q-24 0 -24 24l0 72q0 8 7 16t17 8l72 0q24 0 24 -24zm-200 264q0 66 -47 113t-113 47 -113 -47 -47 -113q0 -68 47 -114t113 -46 113 46 47 114z"/></svg>