<svg height="1000" width="860" xmlns="http://www.w3.org/2000/svg"><path d="M791.481 350q58 138 67 258t-39 140q-28 12 -61 -3t-65 -40 -99 -41 -149 -8q-28 4 -42 19t-6 37q22 56 46 108 4 10 24 22t24 20q14 34 -22 46 -50 22 -102 40 -30 10 -54 -42 -32 -76 -58 -132 -6 -12 -34 -17t-46 -31q-30 10 -38 14 -34 12 -74 -12t-54 -60q-16 -32 -5 -79t43 -61q126 -52 213 -108t124 -103 59 -92 25 -78 15 -59 36 -36q48 -20 130 70t142 228zm-28 300q8 -4 10 -38t-11 -98 -41 -128q-28 -66 -67 -123t-67 -84 -36 -23 -10 42 10 105 40 133 68 119 68 76 36 19z"/></svg>