<svg height="1000" width="1000" xmlns="http://www.w3.org/2000/svg"><path d="M900 150q42 0 71 30t29 70l0 500q0 42 -29 71t-71 29l-800 0q-40 0 -70 -29t-30 -71l0 -500q0 -40 30 -70t70 -30l800 0zm0 600l0 -300l-800 0l0 300l800 0zm0 -450l0 -50l-800 0l0 50l800 0zm-700 256l30 0l0 30l-30 0l0 -30zm180 60l30 0l0 -30l30 0l0 -30l60 0l0 30l-30 0l0 30l-30 0l0 30l-60 0l0 -30zm120 30l-30 0l0 -30l30 0l0 30zm-150 0l-60 0l0 -30l60 0l0 30zm30 -60l0 30l-30 0l0 -60l60 0l0 30l-30 0zm-120 30l0 30l-60 0l0 -30l30 0l0 -30l30 0l0 -30l60 0l0 30l-30 0l0 30l-30 0z"/></svg>