<svg height="1000" width="1000" xmlns="http://www.w3.org/2000/svg"><path d="M404 464q56 0 85 40t31 80l0 40q0 56 -20 96t-50 58 -59 27 -49 11l-342 0l0 -646l322 0q78 0 127 44t49 128q0 50 -23 81t-47 37zm-262 -180l0 144l170 0q26 0 40 -15t14 -61q0 -30 -11 -47t-23 -19l-10 -2l-180 0zm172 416q74 0 74 -84 0 -40 -16 -62t-32 -24l-18 -2l-180 0l0 172l172 0zm468 -366q70 0 118 29t67 70 27 82 6 69l-2 30l-320 0q0 54 27 82t55 28l26 2q46 0 71 -17t27 -33l2 -18l108 0q0 82 -53 124t-105 44l-54 2q-72 0 -122 -25t-72 -62 -33 -73 -11 -60l0 -26q0 -10 1 -27t14 -60 36 -75 72 -59 115 -27zm98 194q0 -4 -1 -11t-6 -24 -13 -30 -28 -24 -46 -11q-42 0 -70 25t-34 51l-6 24l204 0zm26 -320l0 78l-256 0l0 -78l256 0z"/></svg>