<svg height="1000" width="1000" xmlns="http://www.w3.org/2000/svg"><path d="M770 500q0 98 36 157t78 59l66 0q-30 46 -64 65t-118 19l-500 0q-130 0 -199 -94t-69 -206q0 -110 69 -205t199 -95l500 0q84 0 118 19t64 65l-66 0q-42 0 -78 60t-36 156zm-136 90q10 -12 -8 -26 -136 -134 -178 -164 -16 -10 -26 -13t-18 5 -10 12 -8 18l-22 56 -148 -66q-26 -12 -34 0 -8 14 8 28 136 132 180 162 34 16 42 11t18 -31l24 -58 146 68q26 12 34 -2zm310 -192q22 0 39 27t17 71 -17 72 -39 28l-38 0q-22 0 -38 -28t-16 -72 16 -71 38 -27l38 0z"/></svg>