<svg height="1000" width="1000" xmlns="http://www.w3.org/2000/svg"><path d="M500 400q64 0 107 44t43 106 -44 106 -106 44 -106 -44 -44 -106 44 -106 106 -44zm400 -150q42 0 71 29t29 71l0 450q0 40 -29 70t-71 30l-800 0q-40 0 -70 -30t-30 -70l0 -450q0 -42 30 -71t70 -29l120 0q28 0 40 -30l30 -92q10 -28 40 -28l340 0q30 0 40 28l30 92q12 30 40 30l120 0zm-400 550q104 0 177 -73t73 -177 -73 -177 -177 -73 -177 73 -73 177 73 177 177 73zm366 -380q14 0 24 -11t10 -25 -10 -24 -24 -10q-36 0 -36 34 0 16 11 26t25 10z"/></svg>