<?xml version="1.0" encoding="UTF-8" standalone="no"?>
<svg width="20px" height="20px" viewBox="0 0 20 20" version="1.1" xmlns="http://www.w3.org/2000/svg" xmlns:xlink="http://www.w3.org/1999/xlink" xmlns:sketch="http://www.bohemiancoding.com/sketch/ns">
    <!-- Generator: Sketch 3.5.1 (25234) - http://www.bohemiancoding.com/sketch -->
    <title>widgets_icon</title>
    <desc>Created with Sketch.</desc>
    <defs></defs>
    <g id="Page-1" stroke="none" stroke-width="1" fill="none" fill-rule="evenodd" sketch:type="MSPage">
        <g id="widgets_icon" sketch:type="MSArtboardGroup" fill="#3E6274">
            <path d="M20,17.8 L20,2.2 C20,1.87199836 19.8843149,1.59000118 19.6529412,1.354 C19.4215675,1.11799882 19.1450996,1 18.8235294,1 L1.17647059,1 C0.854900353,1 0.578432529,1.11799882 0.347058824,1.354 C0.115685118,1.59000118 0,1.87199836 0,2.2 L0,17.8 C0,18.1280016 0.115685118,18.4099988 0.347058824,18.646 C0.578432529,18.8820012 0.854900353,19 1.17647059,19 L18.8235294,19 C19.1450996,19 19.4215675,18.8820012 19.6529412,18.646 C19.8843149,18.4099988 20,18.1280016 20,17.8 L20,17.8 Z M2.35294118,3.35294118 L17.6470588,3.35294118 L17.6470588,8.05882353 L2.35294118,8.05882353 L2.35294118,3.35294118 Z M3.52941176,4.52941176 L3.52941176,6.88235294 L7.05882353,6.88235294 L7.05882353,4.52941176 L3.52941176,4.52941176 Z M8.23529412,4.52941176 L8.23529412,6.88235294 L11.7647059,6.88235294 L11.7647059,4.52941176 L8.23529412,4.52941176 Z M12.9411765,4.52941176 L12.9411765,6.88235294 L16.4705882,6.88235294 L16.4705882,4.52941176 L12.9411765,4.52941176 Z M2.94117647,10.4117647 C3.10588318,10.4117647 3.24509747,10.4686269 3.35882353,10.5823529 C3.47254959,10.696079 3.52941176,10.8352933 3.52941176,11 C3.52941176,11.1647067 3.47254959,11.303921 3.35882353,11.4176471 C3.24509747,11.5313731 3.10588318,11.5882353 2.94117647,11.5882353 C2.77646976,11.5882353 2.63725547,11.5313731 2.52352941,11.4176471 C2.40980335,11.303921 2.35294118,11.1647067 2.35294118,11 C2.35294118,10.8352933 2.40980335,10.696079 2.52352941,10.5823529 C2.63725547,10.4686269 2.77646976,10.4117647 2.94117647,10.4117647 L2.94117647,10.4117647 Z M4.70588235,10.4117647 L9.41176471,10.4117647 L9.41176471,11.5882353 L4.70588235,11.5882353 L4.70588235,10.4117647 Z M11.7647059,10.4117647 L17.6470588,10.4117647 L17.6470588,16.2941176 L11.7647059,16.2941176 L11.7647059,10.4117647 Z M2.94117647,12.7647059 C3.10588318,12.7647059 3.24509747,12.8215681 3.35882353,12.9352941 C3.47254959,13.0490202 3.52941176,13.1882345 3.52941176,13.3529412 C3.52941176,13.5176479 3.47254959,13.6568622 3.35882353,13.7705882 C3.24509747,13.8843143 3.10588318,13.9411765 2.94117647,13.9411765 C2.77646976,13.9411765 2.63725547,13.8843143 2.52352941,13.7705882 C2.40980335,13.6568622 2.35294118,13.5176479 2.35294118,13.3529412 C2.35294118,13.1882345 2.40980335,13.0490202 2.52352941,12.9352941 C2.63725547,12.8215681 2.77646976,12.7647059 2.94117647,12.7647059 L2.94117647,12.7647059 Z M4.70588235,12.7647059 L9.41176471,12.7647059 L9.41176471,13.9411765 L4.70588235,13.9411765 L4.70588235,12.7647059 Z M12.9411765,12.7647059 L12.9411765,15.1176471 L16.4705882,15.1176471 L16.4705882,12.7647059 L12.9411765,12.7647059 Z M2.94117647,15.1176471 C3.10588318,15.1176471 3.24509747,15.1745092 3.35882353,15.2882353 C3.47254959,15.4019614 3.52941176,15.5411756 3.52941176,15.7058824 C3.52941176,15.8705891 3.47254959,16.0098034 3.35882353,16.1235294 C3.24509747,16.2372555 3.10588318,16.2941176 2.94117647,16.2941176 C2.77646976,16.2941176 2.63725547,16.2372555 2.52352941,16.1235294 C2.40980335,16.0098034 2.35294118,15.8705891 2.35294118,15.7058824 C2.35294118,15.5411756 2.40980335,15.4019614 2.52352941,15.2882353 C2.63725547,15.1745092 2.77646976,15.1176471 2.94117647,15.1176471 L2.94117647,15.1176471 Z M4.70588235,15.1176471 L9.41176471,15.1176471 L9.41176471,16.2941176 L4.70588235,16.2941176 L4.70588235,15.1176471 Z" id="" sketch:type="MSShapeGroup"></path>
        </g>
    </g>
</svg>