<?xml version="1.0" encoding="UTF-8" standalone="no"?>
<svg width="20px" height="20px" viewBox="0 0 20 20" version="1.1" xmlns="http://www.w3.org/2000/svg" xmlns:xlink="http://www.w3.org/1999/xlink" xmlns:sketch="http://www.bohemiancoding.com/sketch/ns">
    <!-- Generator: Sketch 3.5.1 (25234) - http://www.bohemiancoding.com/sketch -->
    <title>accordion_icon</title>
    <desc>Created with Sketch.</desc>
    <defs></defs>
    <g id="Page-1" stroke="none" stroke-width="1" fill="none" fill-rule="evenodd" sketch:type="MSPage">
        <g id="accordion_icon" sketch:type="MSArtboardGroup" fill="#3E6274">
            <path d="M4.42708333,6.66666667 C5.01736333,6.66666667 5.53819333,6.44097333 5.98958333,5.98958333 C6.44097333,5.53819333 6.66666667,5.01736333 6.66666667,4.42708333 C6.66666667,3.83680333 6.44097333,3.32465333 5.98958333,2.89062667 C5.53819333,2.45659667 5.01736333,2.23958333 4.42708333,2.23958333 C3.83680333,2.23958333 3.324655,2.45659667 2.890625,2.89062667 C2.456595,3.32465333 2.23958333,3.83680333 2.23958333,4.42708333 C2.23958333,5.01736333 2.456595,5.53819333 2.890625,5.98958333 C3.324655,6.44097333 3.83680333,6.66666667 4.42708333,6.66666667 L4.42708333,6.66666667 Z M18.90625,0 C19.21875,0 19.4791667,0.104166667 19.6875,0.3125 C19.8958333,0.520833333 20,0.78125 20,1.09375 L20,7.76041667 C20,8.07291667 19.8958333,8.34201333 19.6875,8.56770667 C19.4791667,8.79340333 19.21875,8.90625 18.90625,8.90625 L1.09375,8.90625 C0.781248333,8.90625 0.520834333,8.79340333 0.3125,8.56770667 C0.104165633,8.34201333 0,8.07291667 0,7.76041667 L0,1.09375 C0,0.78125 0.104165633,0.520833333 0.3125,0.3125 C0.520834333,0.104166667 0.781248333,0 1.09375,0 L18.90625,0 Z M4.42708333,17.7604167 C5.01736333,17.7604167 5.53819333,17.543405 5.98958333,17.109375 C6.44097333,16.675345 6.66666667,16.1631967 6.66666667,15.5729167 C6.66666667,14.9826367 6.44097333,14.4618067 5.98958333,14.0104167 C5.53819333,13.5590267 5.01736333,13.3333333 4.42708333,13.3333333 C3.83680333,13.3333333 3.324655,13.5590267 2.890625,14.0104167 C2.456595,14.4618067 2.23958333,14.9826367 2.23958333,15.5729167 C2.23958333,16.1631967 2.456595,16.675345 2.890625,17.109375 C3.324655,17.543405 3.83680333,17.7604167 4.42708333,17.7604167 L4.42708333,17.7604167 Z M18.90625,11.09375 C19.21875,11.09375 19.4791667,11.2065967 19.6875,11.4322933 C19.8958333,11.6579867 20,11.9270833 20,12.2395833 L20,18.90625 C20,19.2187517 19.8958333,19.4791657 19.6875,19.6875 C19.4791667,19.8958344 19.21875,20 18.90625,20 L1.09375,20 C0.781248333,20 0.520834333,19.8958344 0.3125,19.6875 C0.104165633,19.4791657 0,19.2187517 0,18.90625 L0,12.2395833 C0,11.9270833 0.104165633,11.6579867 0.3125,11.4322933 C0.520834333,11.2065967 0.781248333,11.09375 1.09375,11.09375 L18.90625,11.09375 Z" id="Page-1" sketch:type="MSShapeGroup"></path>
        </g>
    </g>
</svg>