<?xml version="1.0" encoding="UTF-8" standalone="no"?>
<svg width="48px" height="48px" viewBox="0 0 48 48" version="1.1" xmlns="http://www.w3.org/2000/svg" xmlns:xlink="http://www.w3.org/1999/xlink" xmlns:sketch="http://www.bohemiancoding.com/sketch/ns">
    <!-- Generator: Sketch 3.4.4 (17249) - http://www.bohemiancoding.com/sketch -->
    <title>1-1</title>
    <desc>Created with Sketch.</desc>
    <defs></defs>
    <g id="layout" stroke="none" stroke-width="1" fill="none" fill-rule="evenodd" sketch:type="MSPage">
        <g id="1-1" sketch:type="MSArtboardGroup" fill="#3E6274">
            <path d="M0,2.00746124 C0,0.89877101 0.894938439,0 2.00138927,0 L45.9986107,0 C47.1039475,0 48,0.900345519 48,2.00746124 L48,32.9925388 C48,34.101229 47.1050616,35 45.9986107,35 L2.00138927,35 C0.896052496,35 0,34.0996545 0,32.9925388 L0,2.00746124 Z M3,3 L45,3 L45,32 L3,32 L3,3 Z M6,18 L10,14 L10,22 L6,18 Z M42,18 L38,14 L38,22 L42,18 Z M20.4255,45 L20.4255,38.997 L19.3095,38.997 L17.4195,40.896 L18.1485,41.661 L19.1475,40.644 L19.1475,45 L20.4255,45 Z M22.8475,45.18 L24.9805,38.817 L24.1525,38.817 L22.0195,45.18 L22.8475,45.18 Z M29.0855,45 L29.0855,38.997 L27.9695,38.997 L26.0795,40.896 L26.8085,41.661 L27.8075,40.644 L27.8075,45 L29.0855,45 Z" id="Rectangle-1" sketch:type="MSShapeGroup"></path>
        </g>
    </g>
</svg>