<?xml version="1.0" encoding="UTF-8" standalone="no"?>
<svg width="32px" height="32px" viewBox="0 0 32 32" version="1.1" xmlns="http://www.w3.org/2000/svg" xmlns:xlink="http://www.w3.org/1999/xlink" xmlns:sketch="http://www.bohemiancoding.com/sketch/ns">
    <!-- Generator: Sketch 3.4.4 (17249) - http://www.bohemiancoding.com/sketch -->
    <title>1-11</title>
    <desc>Created with Sketch.</desc>
    <defs></defs>
    <g id="layout" stroke="none" stroke-width="1" fill="none" fill-rule="evenodd" sketch:type="MSPage">
        <g id="1-11" sketch:type="MSArtboardGroup" fill="#3E6274">
            <path d="M0,2.00174332 C0,0.89621101 0.889261723,0 2.00174332,0 L29.9982567,0 C31.103789,0 32,0.889261723 32,2.00174332 L32,29.9982567 C32,31.103789 31.1107383,32 29.9982567,32 L2.00174332,32 C0.89621101,32 0,31.1107383 0,29.9982567 L0,2.00174332 Z M3,3 L29,3 L29,29 L3,29 L3,3 Z" id="Rectangle-1" sketch:type="MSShapeGroup"></path>
            <path d="M11.006,19.183 L11.006,13.18 L9.89,13.18 L8,15.079 L8.729,15.844 L9.728,14.827 L9.728,19.183 L11.006,19.183 Z M13.428,19.363 L15.561,13 L14.733,13 L12.6,19.363 L13.428,19.363 Z M19.666,19.183 L19.666,13.18 L18.55,13.18 L16.66,15.079 L17.389,15.844 L18.388,14.827 L18.388,19.183 L19.666,19.183 Z M24.365,19.183 L24.365,13.18 L23.249,13.18 L21.359,15.079 L22.088,15.844 L23.087,14.827 L23.087,19.183 L24.365,19.183 Z" id="1/11" sketch:type="MSShapeGroup"></path>
        </g>
    </g>
</svg>