<?xml version="1.0" encoding="UTF-8" standalone="no"?>
<svg width="32px" height="32px" viewBox="0 0 32 32" version="1.1" xmlns="http://www.w3.org/2000/svg" xmlns:xlink="http://www.w3.org/1999/xlink" xmlns:sketch="http://www.bohemiancoding.com/sketch/ns">
    <!-- Generator: Sketch 3.4.4 (17249) - http://www.bohemiancoding.com/sketch -->
    <title>1-12</title>
    <desc>Created with Sketch.</desc>
    <defs></defs>
    <g id="layout" stroke="none" stroke-width="1" fill="none" fill-rule="evenodd" sketch:type="MSPage">
        <g id="1-12" sketch:type="MSArtboardGroup" fill="#3E6274">
            <path d="M0,2.00174332 C0,0.89621101 0.889261723,0 2.00174332,0 L29.9982567,0 C31.103789,0 32,0.889261723 32,2.00174332 L32,29.9982567 C32,31.103789 31.1107383,32 29.9982567,32 L2.00174332,32 C0.89621101,32 0,31.1107383 0,29.9982567 L0,2.00174332 Z M3,3 L29,3 L29,29 L3,29 L3,3 Z" id="Rectangle-1" sketch:type="MSShapeGroup"></path>
            <path d="M10.006,19.183 L10.006,13.18 L8.89,13.18 L7,15.079 L7.729,15.844 L8.728,14.827 L8.728,19.183 L10.006,19.183 Z M12.428,19.363 L14.561,13 L13.733,13 L11.6,19.363 L12.428,19.363 Z M18.666,19.183 L18.666,13.18 L17.55,13.18 L15.66,15.079 L16.389,15.844 L17.388,14.827 L17.388,19.183 L18.666,19.183 Z M25.201,19.183 L25.201,18.058 L22.753,18.058 C24.31,16.924 25.156,16.033 25.156,15.007 C25.156,13.81 24.139,13.09 22.861,13.09 C22.024,13.09 21.133,13.396 20.548,14.071 L21.277,14.917 C21.682,14.494 22.204,14.224 22.888,14.224 C23.383,14.224 23.86,14.485 23.86,15.007 C23.86,15.745 23.14,16.366 20.683,18.184 L20.683,19.183 L25.201,19.183 Z" id="1/12" sketch:type="MSShapeGroup"></path>
        </g>
    </g>
</svg>