<?xml version="1.0" encoding="UTF-8" standalone="no"?>
<svg width="48px" height="48px" viewBox="0 0 48 48" version="1.1" xmlns="http://www.w3.org/2000/svg" xmlns:xlink="http://www.w3.org/1999/xlink" xmlns:sketch="http://www.bohemiancoding.com/sketch/ns">
    <!-- Generator: Sketch 3.4.4 (17249) - http://www.bohemiancoding.com/sketch -->
    <title>1-2_1-2</title>
    <desc>Created with Sketch.</desc>
    <defs></defs>
    <g id="layout" stroke="none" stroke-width="1" fill="none" fill-rule="evenodd" sketch:type="MSPage">
        <g id="1-2_1-2" sketch:type="MSArtboardGroup" fill="#3E6274">
            <path d="M0,2.00746124 C0,0.89877101 0.894938439,0 2.00138927,0 L45.9986107,0 C47.1039475,0 48,0.900345519 48,2.00746124 L48,32.9925388 C48,34.101229 47.1050616,35 45.9986107,35 L2.00138927,35 C0.896052496,35 0,34.0996545 0,32.9925388 L0,2.00746124 Z M3,3 L45,3 L45,32 L3,32 L3,3 Z M23,3 L25,3 L25,8 L23,8 L23,3 Z M23,11 L25,11 L25,16 L23,16 L23,11 Z M23,19 L25,19 L25,24 L23,24 L23,19 Z M23,27 L25,27 L25,32 L23,32 L23,27 Z M41.653,45.093 L41.653,43.968 L39.205,43.968 C40.762,42.834 41.608,41.943 41.608,40.917 C41.608,39.72 40.591,39 39.313,39 C38.476,39 37.585,39.306 37,39.981 L37.729,40.827 C38.134,40.404 38.656,40.134 39.34,40.134 C39.835,40.134 40.312,40.395 40.312,40.917 C40.312,41.655 39.592,42.276 37.135,44.094 L37.135,45.093 L41.653,45.093 Z M31.006,45.003 L31.006,39 L29.89,39 L28,40.899 L28.729,41.664 L29.728,40.647 L29.728,45.003 L31.006,45.003 Z M33.828,45.363 L35.961,39 L35.133,39 L33,45.363 L33.828,45.363 Z M19.653,45.093 L19.653,43.968 L17.205,43.968 C18.762,42.834 19.608,41.943 19.608,40.917 C19.608,39.72 18.591,39 17.313,39 C16.476,39 15.585,39.306 15,39.981 L15.729,40.827 C16.134,40.404 16.656,40.134 17.34,40.134 C17.835,40.134 18.312,40.395 18.312,40.917 C18.312,41.655 17.592,42.276 15.135,44.094 L15.135,45.093 L19.653,45.093 Z M9.006,45.003 L9.006,39 L7.89,39 L6,40.899 L6.729,41.664 L7.728,40.647 L7.728,45.003 L9.006,45.003 Z M11.828,45.363 L13.961,39 L13.133,39 L11,45.363 L11.828,45.363 Z" id="Rectangle-1" sketch:type="MSShapeGroup"></path>
        </g>
    </g>
</svg>