<?xml version="1.0" encoding="UTF-8" standalone="no"?>
<svg width="32px" height="32px" viewBox="0 0 32 32" version="1.1" xmlns="http://www.w3.org/2000/svg" xmlns:xlink="http://www.w3.org/1999/xlink" xmlns:sketch="http://www.bohemiancoding.com/sketch/ns">
    <!-- Generator: Sketch 3.4.4 (17249) - http://www.bohemiancoding.com/sketch -->
    <title>1-5</title>
    <desc>Created with Sketch.</desc>
    <defs></defs>
    <g id="layout" stroke="none" stroke-width="1" fill="none" fill-rule="evenodd" sketch:type="MSPage">
        <g id="1-5" sketch:type="MSArtboardGroup" fill="#3E6274">
            <path d="M0,2.00174332 C0,0.89621101 0.889261723,0 2.00174332,0 L29.9982567,0 C31.103789,0 32,0.889261723 32,2.00174332 L32,29.9982567 C32,31.103789 31.1107383,32 29.9982567,32 L2.00174332,32 C0.89621101,32 0,31.1107383 0,29.9982567 L0,2.00174332 Z M3,3 L29,3 L29,29 L3,29 L3,3 Z" id="Rectangle-1" sketch:type="MSShapeGroup"></path>
            <path d="M12.006,19.183 L12.006,13.18 L10.89,13.18 L9,15.079 L9.729,15.844 L10.728,14.827 L10.728,19.183 L12.006,19.183 Z M14.428,19.363 L16.561,13 L15.733,13 L13.6,19.363 L14.428,19.363 Z M20.315,19.291 C21.764,19.291 22.718,18.49 22.718,17.212 C22.718,15.997 21.809,15.268 20.792,15.268 C20.243,15.268 19.757,15.484 19.469,15.772 L19.469,14.305 L22.313,14.305 L22.313,13.18 L18.191,13.18 L18.191,16.627 L19.082,16.861 C19.442,16.519 19.847,16.375 20.342,16.375 C21.026,16.375 21.422,16.735 21.422,17.266 C21.422,17.752 21.017,18.157 20.306,18.157 C19.676,18.157 19.118,17.923 18.713,17.5 L18.002,18.391 C18.515,18.949 19.271,19.291 20.315,19.291 L20.315,19.291 Z" id="1/5" sketch:type="MSShapeGroup"></path>
        </g>
    </g>
</svg>