<?xml version="1.0" encoding="UTF-8" standalone="no"?>
<svg width="32px" height="32px" viewBox="0 0 32 32" version="1.1" xmlns="http://www.w3.org/2000/svg" xmlns:xlink="http://www.w3.org/1999/xlink" xmlns:sketch="http://www.bohemiancoding.com/sketch/ns">
    <!-- Generator: Sketch 3.4.4 (17249) - http://www.bohemiancoding.com/sketch -->
    <title>1-6</title>
    <desc>Created with Sketch.</desc>
    <defs></defs>
    <g id="layout" stroke="none" stroke-width="1" fill="none" fill-rule="evenodd" sketch:type="MSPage">
        <g id="1-6" sketch:type="MSArtboardGroup" fill="#3E6274">
            <path d="M0,2.00174332 C0,0.89621101 0.889261723,0 2.00174332,0 L29.9982567,0 C31.103789,0 32,0.889261723 32,2.00174332 L32,29.9982567 C32,31.103789 31.1107383,32 29.9982567,32 L2.00174332,32 C0.89621101,32 0,31.1107383 0,29.9982567 L0,2.00174332 Z M3,3 L29,3 L29,29 L3,29 L3,3 Z" id="Rectangle-1" sketch:type="MSShapeGroup"></path>
            <path d="M12.006,19.183 L12.006,13.18 L10.89,13.18 L9,15.079 L9.729,15.844 L10.728,14.827 L10.728,19.183 L12.006,19.183 Z M14.428,19.363 L16.561,13 L15.733,13 L13.6,19.363 L14.428,19.363 Z M20.459,19.291 C21.827,19.291 22.754,18.4 22.754,17.23 C22.754,15.952 21.791,15.277 20.711,15.277 C20.054,15.277 19.451,15.646 19.172,16.051 C19.163,16.006 19.163,15.97 19.163,15.925 C19.163,14.971 19.784,14.224 20.666,14.224 C21.197,14.224 21.539,14.386 21.863,14.692 L22.439,13.711 C22.007,13.342 21.395,13.09 20.666,13.09 C18.893,13.09 17.867,14.377 17.867,16.195 C17.867,17.887 18.632,19.291 20.459,19.291 L20.459,19.291 Z M20.387,18.157 C19.55,18.157 19.226,17.518 19.172,16.942 C19.46,16.582 19.892,16.375 20.342,16.375 C20.918,16.375 21.458,16.645 21.458,17.275 C21.458,17.698 21.08,18.157 20.387,18.157 L20.387,18.157 Z" id="1/6" sketch:type="MSShapeGroup"></path>
        </g>
    </g>
</svg>