<?xml version="1.0" encoding="UTF-8" standalone="no"?>
<svg width="32px" height="32px" viewBox="0 0 32 32" version="1.1" xmlns="http://www.w3.org/2000/svg" xmlns:xlink="http://www.w3.org/1999/xlink" xmlns:sketch="http://www.bohemiancoding.com/sketch/ns">
    <!-- Generator: Sketch 3.4.4 (17249) - http://www.bohemiancoding.com/sketch -->
    <title>1-7</title>
    <desc>Created with Sketch.</desc>
    <defs></defs>
    <g id="layout" stroke="none" stroke-width="1" fill="none" fill-rule="evenodd" sketch:type="MSPage">
        <g id="1-7" sketch:type="MSArtboardGroup" fill="#3E6274">
            <path d="M0,2.00174332 C0,0.89621101 0.889261723,0 2.00174332,0 L29.9982567,0 C31.103789,0 32,0.889261723 32,2.00174332 L32,29.9982567 C32,31.103789 31.1107383,32 29.9982567,32 L2.00174332,32 C0.89621101,32 0,31.1107383 0,29.9982567 L0,2.00174332 Z M3,3 L29,3 L29,29 L3,29 L3,3 Z" id="Rectangle-1" sketch:type="MSShapeGroup"></path>
            <path d="M12.006,19.183 L12.006,13.18 L10.89,13.18 L9,15.079 L9.729,15.844 L10.728,14.827 L10.728,19.183 L12.006,19.183 Z M14.428,19.363 L16.561,13 L15.733,13 L13.6,19.363 L14.428,19.363 Z M20.054,19.183 L22.286,14.071 L22.286,13.18 L17.777,13.18 L17.777,14.305 L20.801,14.305 L18.65,19.183 L20.054,19.183 Z" id="1/7" sketch:type="MSShapeGroup"></path>
        </g>
    </g>
</svg>