<?xml version="1.0" encoding="UTF-8" standalone="no"?>
<svg width="32px" height="32px" viewBox="0 0 32 32" version="1.1" xmlns="http://www.w3.org/2000/svg" xmlns:xlink="http://www.w3.org/1999/xlink" xmlns:sketch="http://www.bohemiancoding.com/sketch/ns">
    <!-- Generator: Sketch 3.4.4 (17249) - http://www.bohemiancoding.com/sketch -->
    <title>1-8</title>
    <desc>Created with Sketch.</desc>
    <defs></defs>
    <g id="layout" stroke="none" stroke-width="1" fill="none" fill-rule="evenodd" sketch:type="MSPage">
        <g id="1-8" sketch:type="MSArtboardGroup" fill="#3E6274">
            <path d="M0,2.00174332 C0,0.89621101 0.889261723,0 2.00174332,0 L29.9982567,0 C31.103789,0 32,0.889261723 32,2.00174332 L32,29.9982567 C32,31.103789 31.1107383,32 29.9982567,32 L2.00174332,32 C0.89621101,32 0,31.1107383 0,29.9982567 L0,2.00174332 Z M3,3 L29,3 L29,29 L3,29 L3,3 Z" id="Rectangle-1" sketch:type="MSShapeGroup"></path>
            <path d="M12.006,19.183 L12.006,13.18 L10.89,13.18 L9,15.079 L9.729,15.844 L10.728,14.827 L10.728,19.183 L12.006,19.183 Z M14.428,19.363 L16.561,13 L15.733,13 L13.6,19.363 L14.428,19.363 Z M20.288,19.291 C21.548,19.291 22.7,18.742 22.7,17.626 C22.7,16.897 22.124,16.339 21.404,16.087 C22.07,15.853 22.601,15.421 22.601,14.674 C22.601,13.549 21.395,13.09 20.288,13.09 C19.172,13.09 17.975,13.549 17.975,14.674 C17.975,15.421 18.497,15.853 19.163,16.087 C18.443,16.339 17.876,16.897 17.876,17.626 C17.876,18.751 19.028,19.291 20.288,19.291 L20.288,19.291 Z M20.288,15.583 C19.919,15.529 19.271,15.322 19.271,14.872 C19.271,14.44 19.694,14.188 20.288,14.188 C20.873,14.188 21.296,14.44 21.296,14.872 C21.296,15.322 20.657,15.529 20.288,15.583 L20.288,15.583 Z M20.288,18.193 C19.658,18.193 19.172,17.905 19.172,17.464 C19.172,16.96 19.91,16.717 20.288,16.663 C20.657,16.717 21.404,16.96 21.404,17.464 C21.404,17.905 20.9,18.193 20.288,18.193 L20.288,18.193 Z" id="1/8" sketch:type="MSShapeGroup"></path>
        </g>
    </g>
</svg>