<?xml version="1.0" encoding="UTF-8" standalone="no"?>
<svg width="32px" height="32px" viewBox="0 0 32 32" version="1.1" xmlns="http://www.w3.org/2000/svg" xmlns:xlink="http://www.w3.org/1999/xlink" xmlns:sketch="http://www.bohemiancoding.com/sketch/ns">
    <!-- Generator: Sketch 3.4.4 (17249) - http://www.bohemiancoding.com/sketch -->
    <title>1-9</title>
    <desc>Created with Sketch.</desc>
    <defs></defs>
    <g id="layout" stroke="none" stroke-width="1" fill="none" fill-rule="evenodd" sketch:type="MSPage">
        <g id="1-9" sketch:type="MSArtboardGroup" fill="#3E6274">
            <path d="M0,2.00174332 C0,0.89621101 0.889261723,0 2.00174332,0 L29.9982567,0 C31.103789,0 32,0.889261723 32,2.00174332 L32,29.9982567 C32,31.103789 31.1107383,32 29.9982567,32 L2.00174332,32 C0.89621101,32 0,31.1107383 0,29.9982567 L0,2.00174332 Z M3,3 L29,3 L29,29 L3,29 L3,3 Z" id="Rectangle-1" sketch:type="MSShapeGroup"></path>
            <path d="M12.006,19.183 L12.006,13.18 L10.89,13.18 L9,15.079 L9.729,15.844 L10.728,14.827 L10.728,19.183 L12.006,19.183 Z M14.428,19.363 L16.561,13 L15.733,13 L13.6,19.363 L14.428,19.363 Z M19.928,19.282 C21.701,19.282 22.718,17.995 22.718,16.186 C22.718,14.485 21.953,13.081 20.135,13.081 C18.767,13.081 17.831,13.972 17.831,15.142 C17.831,16.42 18.803,17.095 19.883,17.095 C20.54,17.095 21.143,16.726 21.431,16.321 L21.431,16.456 C21.431,17.32 20.918,18.148 19.928,18.148 C19.397,18.148 19.055,17.986 18.731,17.68 L18.164,18.661 C18.587,19.039 19.199,19.282 19.928,19.282 L19.928,19.282 Z M20.243,15.997 C19.685,15.997 19.136,15.727 19.136,15.097 C19.136,14.683 19.514,14.215 20.198,14.215 C21.044,14.215 21.368,14.863 21.422,15.439 C21.134,15.79 20.693,15.997 20.243,15.997 L20.243,15.997 Z" id="1/9" sketch:type="MSShapeGroup"></path>
        </g>
    </g>
</svg>