<?xml version="1.0" encoding="UTF-8" standalone="no"?>
<svg width="48px" height="48px" viewBox="0 0 48 48" version="1.1" xmlns="http://www.w3.org/2000/svg" xmlns:xlink="http://www.w3.org/1999/xlink" xmlns:sketch="http://www.bohemiancoding.com/sketch/ns">
    <!-- Generator: Sketch 3.4.4 (17249) - http://www.bohemiancoding.com/sketch -->
    <title>2-3_1-3</title>
    <desc>Created with Sketch.</desc>
    <defs></defs>
    <g id="layout" stroke="none" stroke-width="1" fill="none" fill-rule="evenodd" sketch:type="MSPage">
        <g id="2-3_1-3" sketch:type="MSArtboardGroup" fill="#3E6274">
            <path d="M0,2.00746124 C0,0.89877101 0.894938439,0 2.00138927,0 L45.9986107,0 C47.1039475,0 48,0.900345519 48,2.00746124 L48,32.9925388 C48,34.101229 47.1050616,35 45.9986107,35 L2.00138927,35 C0.896052496,35 0,34.0996545 0,32.9925388 L0,2.00746124 Z M3,3 L45,3 L45,32 L3,32 L3,3 Z M30,3 L32,3 L32,8 L30,8 L30,3 Z M30,11 L32,11 L32,16 L30,16 L30,11 Z M30,19 L32,19 L32,24 L30,24 L30,19 Z M30,27 L32,27 L32,32 L30,32 L30,27 Z M11.119,45 L11.119,43.875 L8.671,43.875 C10.228,42.741 11.074,41.85 11.074,40.824 C11.074,39.627 10.057,38.907 8.779,38.907 C7.942,38.907 7.051,39.213 6.466,39.888 L7.195,40.734 C7.6,40.311 8.122,40.041 8.806,40.041 C9.301,40.041 9.778,40.302 9.778,40.824 C9.778,41.562 9.058,42.183 6.601,44.001 L6.601,45 L11.119,45 Z M13.406,45.18 L15.539,38.817 L14.711,38.817 L12.578,45.18 L13.406,45.18 Z M19.086,45.108 C20.526,45.108 21.453,44.379 21.453,43.344 C21.453,42.444 20.661,41.967 20.049,41.904 C20.715,41.787 21.363,41.292 21.363,40.536 C21.363,39.537 20.499,38.907 19.095,38.907 C18.042,38.907 17.286,39.312 16.8,39.861 L17.439,40.662 C17.862,40.257 18.384,40.041 18.96,40.041 C19.59,40.041 20.076,40.275 20.076,40.752 C20.076,41.193 19.635,41.391 18.969,41.391 C18.744,41.391 18.33,41.391 18.222,41.382 L18.222,42.534 C18.312,42.525 18.717,42.516 18.969,42.516 C19.806,42.516 20.175,42.732 20.175,43.209 C20.175,43.659 19.77,43.974 19.041,43.974 C18.456,43.974 17.799,43.722 17.385,43.29 L16.719,44.145 C17.16,44.685 17.979,45.108 19.086,45.108 Z M32.1335,45 L32.1335,38.997 L31.0175,38.997 L29.1275,40.896 L29.8565,41.661 L30.8555,40.644 L30.8555,45 L32.1335,45 Z M34.5555,45.18 L36.6885,38.817 L35.8605,38.817 L33.7275,45.18 L34.5555,45.18 Z M40.2355,45.108 C41.6755,45.108 42.6025,44.379 42.6025,43.344 C42.6025,42.444 41.8105,41.967 41.1985,41.904 C41.8645,41.787 42.5125,41.292 42.5125,40.536 C42.5125,39.537 41.6485,38.907 40.2445,38.907 C39.1915,38.907 38.4355,39.312 37.9495,39.861 L38.5885,40.662 C39.0115,40.257 39.5335,40.041 40.1095,40.041 C40.7395,40.041 41.2255,40.275 41.2255,40.752 C41.2255,41.193 40.7845,41.391 40.1185,41.391 C39.8935,41.391 39.4795,41.391 39.3715,41.382 L39.3715,42.534 C39.4615,42.525 39.8665,42.516 40.1185,42.516 C40.9555,42.516 41.3245,42.732 41.3245,43.209 C41.3245,43.659 40.9195,43.974 40.1905,43.974 C39.6055,43.974 38.9485,43.722 38.5345,43.29 L37.8685,44.145 C38.3095,44.685 39.1285,45.108 40.2355,45.108 Z" id="Rectangle-1" sketch:type="MSShapeGroup"></path>
        </g>
    </g>
</svg>