<?xml version="1.0" encoding="UTF-8" standalone="no"?>
<svg width="48px" height="48px" viewBox="0 0 48 48" version="1.1" xmlns="http://www.w3.org/2000/svg" xmlns:xlink="http://www.w3.org/1999/xlink" xmlns:sketch="http://www.bohemiancoding.com/sketch/ns">
    <!-- Generator: Sketch 3.4.4 (17249) - http://www.bohemiancoding.com/sketch -->
    <title>3-4_1-4</title>
    <desc>Created with Sketch.</desc>
    <defs></defs>
    <g id="layout" stroke="none" stroke-width="1" fill="none" fill-rule="evenodd" sketch:type="MSPage">
        <g id="3-4_1-4" sketch:type="MSArtboardGroup" fill="#3E6274">
            <path d="M0,2.00746124 C0,0.89877101 0.894938439,0 2.00138927,0 L45.9986107,0 C47.1039475,0 48,0.900345519 48,2.00746124 L48,32.9925388 C48,34.101229 47.1050616,35 45.9986107,35 L2.00138927,35 C0.896052496,35 0,34.0996545 0,32.9925388 L0,2.00746124 Z M3,3 L45,3 L45,32 L3,32 L3,3 Z M34,3 L36,3 L36,8 L34,8 L34,3 Z M34,11 L36,11 L36,16 L34,16 L34,11 Z M34,19 L36,19 L36,24 L34,24 L34,19 Z M34,27 L36,27 L36,32 L34,32 L34,27 Z M8.7385,45.108 C10.1785,45.108 11.1055,44.379 11.1055,43.344 C11.1055,42.444 10.3135,41.967 9.7015,41.904 C10.3675,41.787 11.0155,41.292 11.0155,40.536 C11.0155,39.537 10.1515,38.907 8.7475,38.907 C7.6945,38.907 6.9385,39.312 6.4525,39.861 L7.0915,40.662 C7.5145,40.257 8.0365,40.041 8.6125,40.041 C9.2425,40.041 9.7285,40.275 9.7285,40.752 C9.7285,41.193 9.2875,41.391 8.6215,41.391 C8.3965,41.391 7.9825,41.391 7.8745,41.382 L7.8745,42.534 C7.9645,42.525 8.3695,42.516 8.6215,42.516 C9.4585,42.516 9.8275,42.732 9.8275,43.209 C9.8275,43.659 9.4225,43.974 8.6935,43.974 C8.1085,43.974 7.4515,43.722 7.0375,43.29 L6.3715,44.145 C6.8125,44.685 7.6315,45.108 8.7385,45.108 Z M13.3025,45.18 L15.4355,38.817 L14.6075,38.817 L12.4745,45.18 L13.3025,45.18 Z M20.8095,45 L20.8095,43.758 L21.5835,43.758 L21.5835,42.633 L20.8095,42.633 L20.8095,38.997 L19.0455,38.997 L16.6605,42.75 L16.6605,43.758 L19.5315,43.758 L19.5315,45 L20.8095,45 Z M19.5315,42.633 L17.9115,42.633 L19.5315,40.131 L19.5315,42.633 Z M32.0885,45 L32.0885,38.997 L30.9725,38.997 L29.0825,40.896 L29.8115,41.661 L30.8105,40.644 L30.8105,45 L32.0885,45 Z M34.5105,45.18 L36.6435,38.817 L35.8155,38.817 L33.6825,45.18 L34.5105,45.18 Z M42.0175,45 L42.0175,43.758 L42.7915,43.758 L42.7915,42.633 L42.0175,42.633 L42.0175,38.997 L40.2535,38.997 L37.8685,42.75 L37.8685,43.758 L40.7395,43.758 L40.7395,45 L42.0175,45 Z M40.7395,42.633 L39.1195,42.633 L40.7395,40.131 L40.7395,42.633 Z" id="Rectangle-1" sketch:type="MSShapeGroup"></path>
        </g>
    </g>
</svg>