<?xml version="1.0" encoding="UTF-8" standalone="no"?>
<svg width="48px" height="48px" viewBox="0 0 48 48" version="1.1" xmlns="http://www.w3.org/2000/svg" xmlns:xlink="http://www.w3.org/1999/xlink" xmlns:sketch="http://www.bohemiancoding.com/sketch/ns">
    <!-- Generator: Sketch 3.4.4 (17249) - http://www.bohemiancoding.com/sketch -->
    <title>3_cols</title>
    <desc>Created with Sketch.</desc>
    <defs></defs>
    <g id="layout" stroke="none" stroke-width="1" fill="none" fill-rule="evenodd" sketch:type="MSPage">
        <g id="3_cols" sketch:type="MSArtboardGroup" fill="#3E6274">
            <path d="M0,2.00746124 C0,0.89877101 0.894938439,0 2.00138927,0 L45.9986107,0 C47.1039475,0 48,0.900345519 48,2.00746124 L48,32.9925388 C48,34.101229 47.1050616,35 45.9986107,35 L2.00138927,35 C0.896052496,35 0,34.0996545 0,32.9925388 L0,2.00746124 Z M3,3 L45,3 L45,32 L3,32 L3,3 Z M30,3 L32,3 L32,8 L30,8 L30,3 Z M30,11 L32,11 L32,16 L30,16 L30,11 Z M30,19 L32,19 L32,24 L30,24 L30,19 Z M30,27 L32,27 L32,32 L30,32 L30,27 Z M16,3 L18,3 L18,8 L16,8 L16,3 Z M16,11 L18,11 L18,16 L16,16 L16,11 Z M16,19 L18,19 L18,24 L16,24 L16,19 Z M16,27 L18,27 L18,32 L16,32 L16,27 Z" id="Rectangle-1" sketch:type="MSShapeGroup"></path>
            <path d="M19.6335,45 L19.6335,38.997 L18.5175,38.997 L16.6275,40.896 L17.3565,41.661 L18.3555,40.644 L18.3555,45 L19.6335,45 Z M22.0555,45.18 L24.1885,38.817 L23.3605,38.817 L21.2275,45.18 L22.0555,45.18 Z M27.7355,45.108 C29.1755,45.108 30.1025,44.379 30.1025,43.344 C30.1025,42.444 29.3105,41.967 28.6985,41.904 C29.3645,41.787 30.0125,41.292 30.0125,40.536 C30.0125,39.537 29.1485,38.907 27.7445,38.907 C26.6915,38.907 25.9355,39.312 25.4495,39.861 L26.0885,40.662 C26.5115,40.257 27.0335,40.041 27.6095,40.041 C28.2395,40.041 28.7255,40.275 28.7255,40.752 C28.7255,41.193 28.2845,41.391 27.6185,41.391 C27.3935,41.391 26.9795,41.391 26.8715,41.382 L26.8715,42.534 C26.9615,42.525 27.3665,42.516 27.6185,42.516 C28.4555,42.516 28.8245,42.732 28.8245,43.209 C28.8245,43.659 28.4195,43.974 27.6905,43.974 C27.1055,43.974 26.4485,43.722 26.0345,43.29 L25.3685,44.145 C25.8095,44.685 26.6285,45.108 27.7355,45.108 L27.7355,45.108 Z" id="1/3" sketch:type="MSShapeGroup"></path>
        </g>
    </g>
</svg>