<?xml version="1.0" encoding="UTF-8" standalone="no"?>
<svg width="19px" height="19px" viewBox="0 0 19 19" version="1.1" xmlns="http://www.w3.org/2000/svg" xmlns:xlink="http://www.w3.org/1999/xlink" xmlns:sketch="http://www.bohemiancoding.com/sketch/ns">
    <!-- Generator: Sketch 3.4.4 (17249) - http://www.bohemiancoding.com/sketch -->
    <title>wp menu logo 19</title>
    <desc>Created with Sketch.</desc>
    <defs></defs>
    <g id="Page-1" stroke="none" stroke-width="1" fill="none" fill-rule="evenodd" sketch:type="MSPage">
        <g id="wp-menu-logo-19" sketch:type="MSArtboardGroup" fill="#FFFFFF">
            <g id="Polygon-1-+-Rectangle-1-+-Rectangle-1" sketch:type="MSLayerGroup" transform="translate(1.000000, 0.000000)">
                <g id="Page-1" sketch:type="MSShapeGroup">
                    <g>
                        <g id="logo">
                            <g id="Group">
                                <g id="Polygon-1-+-Rectangle-1-+-Rectangle-1">
                                    <path d="M7.6155679,0.186345688 C7.9716397,-0.0194048834 8.54905021,-0.0193447469 8.90501793,0.186345688 L15.8647914,4.20794307 C16.2208632,4.41369365 16.5095164,4.91419532 16.5095164,5.32557616 L16.5095164,13.368771 C16.5095164,13.7802721 16.2207591,14.2807136 15.8647914,14.4864041 L8.90501793,18.5080014 C8.54894614,18.713752 7.97153563,18.7136919 7.6155679,18.5080014 L0.655794415,14.4864041 C0.299722627,14.2806535 0.0110694113,13.7801518 0.0110694113,13.368771 L0.0110694113,5.32557616 C0.0110694113,4.91407504 0.2998267,4.41363351 0.655794415,4.20794307 L7.6155679,0.186345688 L7.6155679,0.186345688 Z M7.93796702,1.48964177 C8.1159827,1.38677816 8.40486844,1.38693147 8.58261881,1.48964177 L14.8982494,5.13903112 C15.076265,5.24189471 15.2205752,5.49236362 15.2205752,5.69778422 L15.2205752,12.9965629 C15.2205752,13.2022901 15.0759997,13.4526057 14.8982494,13.555316 L8.58261881,17.2047054 C8.40460314,17.307569 8.1157174,17.3074157 7.93796702,17.2047054 L1.62233648,13.555316 C1.4443208,13.4524524 1.30001059,13.2019835 1.30001059,12.9965629 L1.30001059,5.69778422 C1.30001059,5.49205699 1.44458611,5.24174143 1.62233648,5.13903112 L7.93796702,1.48964177 L7.93796702,1.48964177 Z" id="Polygon-1"></path>
                                    <path d="M8.24100506,12.1134718 L5.85701134,10.7335758 L5.85701134,7.95866609 L10.6286983,5.18208509 L12.7247225,6.39550973 C12.9027778,6.49858909 13.0471202,6.74919981 13.0471202,6.95474557 L13.0471202,11.7408777 C13.0471202,11.9466557 12.9026288,12.19696 12.7247833,12.2997203 L8.24100506,14.8904778 L8.24100506,12.1134718 L8.24100506,12.1134718 Z" id="Rectangle-1"></path>
                                    <path d="M3.77783008,6.77710679 C3.59981978,6.67422587 3.59999609,6.50737201 3.77783008,6.40465573 L7.93900246,4.00117648 C8.11701274,3.89835835 8.40574965,3.89846016 8.58352071,4.00117648 L12.7432212,6.40465562 C12.9211686,6.50747375 12.9209923,6.67432769 12.7432212,6.77710667 L8.26131861,9.36833546 L3.77783008,6.77710679 L3.77783008,6.77710679 Z" id="Rectangle-1"></path>
                                </g>
                            </g>
                        </g>
                    </g>
                </g>
            </g>
        </g>
    </g>
</svg>