<?xml version="1.0" encoding="UTF-8" standalone="no"?>
<svg width="32px" height="32px" viewBox="0 0 32 32" version="1.1" xmlns="http://www.w3.org/2000/svg" xmlns:xlink="http://www.w3.org/1999/xlink">
    <g id="Page-1" stroke="none" stroke-width="1" fill="none" fill-rule="evenodd">
        <g id="docs" fill="#000000">
            <path d="M27.1924883,7.92488263 L27.1924883,4.76995305 L11.1924883,4.76995305 L11.1924883,7.92488263 L27.1924883,7.92488263 Z M20.8075117,20.7699531 L20.8075117,17.5399061 L11.1924883,17.5399061 L11.1924883,20.7699531 L20.8075117,20.7699531 Z M27.1924883,14.3849765 L27.1924883,11.1549296 L11.1924883,11.1549296 L11.1924883,14.3849765 L27.1924883,14.3849765 Z M28.8450704,-0.0375586854 C29.6964038,-0.0375586854 30.435054,0.275429559 31.0610353,0.901406047 C31.6870118,1.52738734 32,2.26603748 32,3.11737089 L32,22.3474178 C32,23.1987512 31.6870118,23.9499202 31.0610353,24.600939 C30.435054,25.2519578 29.6964038,25.5774648 28.8450704,25.5774648 L9.61502347,25.5774648 C8.76369007,25.5774648 8.01252116,25.2519578 7.36150235,24.600939 C6.71048353,23.9499202 6.38497653,23.1987512 6.38497653,22.3474178 L6.38497653,3.11737089 C6.38497653,2.26603748 6.71048353,1.52738734 7.36150235,0.901406047 C8.01252116,0.275429559 8.76369007,-0.0375586854 9.61502347,-0.0375586854 L28.8450704,-0.0375586854 Z M3.15492958,6.34741784 L3.15492958,28.8075117 L25.6150235,28.8075117 L25.6150235,31.9624413 L3.15492958,31.9624413 C2.30359521,31.9624413 1.56494843,31.6494554 0.938967136,31.0234742 C0.312985937,30.3974929 0,29.6588461 0,28.8075117 L0,6.34741784 L3.15492958,6.34741784 Z" id="Page-1"></path>
        </g>
    </g>
</svg>