<svg xmlns="http://www.w3.org/2000/svg" xmlns:xlink="http://www.w3.org/1999/xlink" width="24" height="24" viewBox="0 0 24 24" version="1.1"><g id="Page-1" stroke="none" stroke-width="1" fill="none" fill-rule="evenodd"><g id="facebook" fill="#000000"><path d="M18.46 0.17L18.46 3.98 16.2 3.98C15.37 3.98 14.81 4.15 14.52 4.5 14.24 4.85 14.09 5.37 14.09 6.06L14.09 8.78 18.32 8.78 17.75 13.05 14.09 13.05 14.09 24 9.68 24 9.68 13.05 6 13.05 6 8.78 9.68 8.78 9.68 5.64C9.68 3.85 10.18 2.46 11.18 1.48 12.18 0.49 13.51 0 15.17 0 16.59 0 17.68 0.06 18.46 0.17L18.46 0.17Z" id="Page-1"/></g></g></svg>