<svg xmlns="http://www.w3.org/2000/svg" xmlns:xlink="http://www.w3.org/1999/xlink" width="24" height="24" viewBox="0 0 24 24" version="1.1"><g id="Page-1" stroke="none" stroke-width="1" fill="none" fill-rule="evenodd"><g id="newsletter" fill="#000000"><path d="M12 8.5L7.5 8.5 7.5 13 12 13 12 8.5ZM13.5 16L13.5 17.5 6 17.5 6 16 13.5 16ZM13.5 7L13.5 14.5 6 14.5 6 7 13.5 7ZM21 16L21 17.5 15 17.5 15 16 21 16ZM21 13L21 14.5 15 14.5 15 13 21 13ZM21 10L21 11.5 15 11.5 15 10 21 10ZM21 7L21 8.5 15 8.5 15 7 21 7ZM3 18.25L3 7 1.5 7 1.5 18.25C1.5 18.45 1.57 18.63 1.72 18.78 1.87 18.93 2.05 19 2.25 19 2.45 19 2.63 18.93 2.78 18.78 2.93 18.63 3 18.45 3 18.25L3 18.25ZM22.5 18.25L22.5 5.5 4.5 5.5 4.5 18.25C4.5 18.51 4.46 18.76 4.37 19L21.75 19C21.95 19 22.13 18.93 22.28 18.78 22.43 18.63 22.5 18.45 22.5 18.25L22.5 18.25ZM24 4L24 18.25C24 18.88 23.78 19.41 23.34 19.84 22.91 20.28 22.38 20.5 21.75 20.5L2.25 20.5C1.62 20.5 1.09 20.28 0.66 19.84 0.22 19.41 0 18.88 0 18.25L0 5.5 3 5.5 3 4 24 4Z" id="Page-1"/></g></g></svg>