<?xml version="1.0" encoding="UTF-8" standalone="no"?>
<svg width="62px" height="62px" viewBox="0 0 62 62" version="1.1" xmlns="http://www.w3.org/2000/svg" xmlns:xlink="http://www.w3.org/1999/xlink" xmlns:sketch="http://www.bohemiancoding.com/sketch/ns">
    <!-- Generator: Sketch 3.4.4 (17249) - http://www.bohemiancoding.com/sketch -->
    <title>sect_1-1</title>
    <desc>Created with Sketch.</desc>
    <defs></defs>
    <g id="sections" stroke="none" stroke-width="1" fill="none" fill-rule="evenodd" sketch:type="MSPage">
        <g id="sect_1-1" sketch:type="MSArtboardGroup">
            <path d="M0,2.00449605 C0,0.89744345 0.900351021,0 1.99263021,0 L60.0073698,0 C61.1078691,0 62,0.896918893 62,2.00449605 L62,44.995504 C62,46.1025565 61.099649,47 60.0073698,47 L1.99263021,47 C0.892130935,47 0,46.1030811 0,44.995504 L0,2.00449605 Z M3,3 L59,3 L59,44 L3,44 L3,3 Z" id="Rectangle-1" fill="#3E6274" sketch:type="MSShapeGroup"></path>
            <rect id="Rectangle-4" fill="#B8C5CC" sketch:type="MSShapeGroup" x="3" y="16" width="3" height="1"></rect>
            <path d="M29.4255,59 L29.4255,52.997 L28.3095,52.997 L26.4195,54.896 L27.1485,55.661 L28.1475,54.644 L28.1475,59 L29.4255,59 Z M31.8475,59.18 L33.9805,52.817 L33.1525,52.817 L31.0195,59.18 L31.8475,59.18 Z M38.0855,59 L38.0855,52.997 L36.9695,52.997 L35.0795,54.896 L35.8085,55.661 L36.8075,54.644 L36.8075,59 L38.0855,59 Z" id="1/1" fill="#3E6274" sketch:type="MSShapeGroup"></path>
            <rect id="Rectangle-6" fill="#B8C5CC" sketch:type="MSShapeGroup" x="14" y="17" width="1" height="3"></rect>
            <rect id="Rectangle-4" fill="#B8C5CC" sketch:type="MSShapeGroup" x="8" y="16" width="3" height="1"></rect>
            <rect id="Rectangle-4" fill="#B8C5CC" sketch:type="MSShapeGroup" x="13" y="16" width="3" height="1"></rect>
            <rect id="Rectangle-4" fill="#B8C5CC" sketch:type="MSShapeGroup" x="18" y="16" width="3" height="1"></rect>
            <rect id="Rectangle-4" fill="#B8C5CC" sketch:type="MSShapeGroup" x="23" y="16" width="3" height="1"></rect>
            <rect id="Rectangle-4" fill="#B8C5CC" sketch:type="MSShapeGroup" x="3" y="30" width="3" height="1"></rect>
            <rect id="Rectangle-4" fill="#B8C5CC" sketch:type="MSShapeGroup" x="8" y="30" width="3" height="1"></rect>
            <rect id="Rectangle-4" fill="#B8C5CC" sketch:type="MSShapeGroup" x="13" y="30" width="3" height="1"></rect>
            <rect id="Rectangle-4" fill="#B8C5CC" sketch:type="MSShapeGroup" x="18" y="30" width="3" height="1"></rect>
            <rect id="Rectangle-4" fill="#B8C5CC" sketch:type="MSShapeGroup" x="23" y="30" width="3" height="1"></rect>
            <rect id="Rectangle-6" fill="#B8C5CC" sketch:type="MSShapeGroup" x="14" y="22" width="1" height="3"></rect>
            <rect id="Rectangle-6" fill="#B8C5CC" sketch:type="MSShapeGroup" x="14" y="27" width="1" height="3"></rect>
            <rect id="Rectangle-6" fill="#B8C5CC" sketch:type="MSShapeGroup" x="29" y="3" width="1" height="3"></rect>
            <rect id="Rectangle-6" fill="#B8C5CC" sketch:type="MSShapeGroup" x="29" y="8" width="1" height="3"></rect>
            <rect id="Rectangle-6" fill="#B8C5CC" sketch:type="MSShapeGroup" x="29" y="13" width="1" height="3"></rect>
            <rect id="Rectangle-6" fill="#B8C5CC" sketch:type="MSShapeGroup" x="29" y="31" width="1" height="3"></rect>
            <rect id="Rectangle-6" fill="#B8C5CC" sketch:type="MSShapeGroup" x="29" y="36" width="1" height="3"></rect>
            <rect id="Rectangle-6" fill="#B8C5CC" sketch:type="MSShapeGroup" x="29" y="41" width="1" height="3"></rect>
            <rect id="Rectangle-4" fill="#B8C5CC" sketch:type="MSShapeGroup" x="28" y="16" width="3" height="1"></rect>
            <rect id="Rectangle-4" fill="#B8C5CC" sketch:type="MSShapeGroup" x="28" y="30" width="3" height="1"></rect>
            <rect id="Rectangle-4" fill="#B8C5CC" sketch:type="MSShapeGroup" x="33" y="16" width="3" height="1"></rect>
            <rect id="Rectangle-4" fill="#B8C5CC" sketch:type="MSShapeGroup" x="33" y="30" width="3" height="1"></rect>
            <rect id="Rectangle-6" fill="#B8C5CC" sketch:type="MSShapeGroup" x="29" y="17" width="1" height="3"></rect>
            <rect id="Rectangle-6" fill="#B8C5CC" sketch:type="MSShapeGroup" x="29" y="22" width="1" height="3"></rect>
            <rect id="Rectangle-6" fill="#B8C5CC" sketch:type="MSShapeGroup" x="29" y="27" width="1" height="3"></rect>
            <rect id="Rectangle-4" fill="#B8C5CC" sketch:type="MSShapeGroup" x="38" y="16" width="3" height="1"></rect>
            <rect id="Rectangle-4" fill="#B8C5CC" sketch:type="MSShapeGroup" x="38" y="30" width="3" height="1"></rect>
            <rect id="Rectangle-4" fill="#B8C5CC" sketch:type="MSShapeGroup" x="43" y="16" width="3" height="1"></rect>
            <rect id="Rectangle-4" fill="#B8C5CC" sketch:type="MSShapeGroup" x="43" y="30" width="3" height="1"></rect>
            <rect id="Rectangle-4" fill="#B8C5CC" sketch:type="MSShapeGroup" x="48" y="16" width="3" height="1"></rect>
            <rect id="Rectangle-4" fill="#B8C5CC" sketch:type="MSShapeGroup" x="48" y="30" width="3" height="1"></rect>
            <rect id="Rectangle-4" fill="#B8C5CC" sketch:type="MSShapeGroup" x="53" y="16" width="3" height="1"></rect>
            <rect id="Rectangle-4" fill="#B8C5CC" sketch:type="MSShapeGroup" x="53" y="30" width="3" height="1"></rect>
            <rect id="Rectangle-4" fill="#B8C5CC" sketch:type="MSShapeGroup" x="58" y="16" width="1" height="1"></rect>
            <rect id="Rectangle-4" fill="#B8C5CC" sketch:type="MSShapeGroup" x="58" y="30" width="1" height="1"></rect>
            <rect id="Rectangle-6" fill="#B8C5CC" sketch:type="MSShapeGroup" x="44" y="17" width="1" height="3"></rect>
            <rect id="Rectangle-6" fill="#B8C5CC" sketch:type="MSShapeGroup" x="44" y="22" width="1" height="3"></rect>
            <rect id="Rectangle-6" fill="#B8C5CC" sketch:type="MSShapeGroup" x="44" y="27" width="1" height="3"></rect>
        </g>
    </g>
</svg>