<?xml version="1.0" encoding="UTF-8" standalone="no"?>
<svg width="90px" height="80px" viewBox="0 0 90 80" version="1.1" xmlns="http://www.w3.org/2000/svg" xmlns:xlink="http://www.w3.org/1999/xlink">
    <!-- Generator: Sketch 3.7.1 (28215) - http://www.bohemiancoding.com/sketch -->
    <title>stretched</title>
    <desc>Created with Sketch.</desc>
    <defs></defs>
    <g id="sections" stroke="none" stroke-width="1" fill="none" fill-rule="evenodd">
        <g id="stretched">
            <g id="Group-3" transform="translate(0.000000, 3.000000)">
                <rect id="Rectangle-1" fill="#3E6274" x="0" y="17" width="90" height="40"></rect>
                <rect id="Rectangle-1" fill="#B8C5CC" x="18" y="20" width="53" height="34" rx="1"></rect>
                <rect id="Rectangle-1" fill="#FFFFFF" x="21.1666667" y="23" width="46.8333333" height="28"></rect>
                <g id="Group" transform="translate(18.000000, 0.000000)" fill="#E1E4E6">
                    <rect id="Rectangle-248" x="0" y="12" width="53" height="2"></rect>
                    <rect id="Rectangle-248" x="0" y="8" width="53" height="2"></rect>
                    <rect id="Rectangle-248" x="0" y="4" width="53" height="2"></rect>
                    <rect id="Rectangle-248" x="0" y="0" width="53" height="2"></rect>
                    <rect id="Rectangle-248" x="0" y="72" width="53" height="2"></rect>
                    <rect id="Rectangle-248" x="0" y="68" width="53" height="2"></rect>
                    <rect id="Rectangle-248" x="0" y="64" width="53" height="2"></rect>
                    <rect id="Rectangle-248" x="0" y="60" width="53" height="2"></rect>
                </g>
                <g id="Group-2" transform="translate(23.000000, 23.000000)" fill="#E1E4E6">
                    <rect id="Rectangle-6" x="6" y="8" width="1" height="3"></rect>
                    <rect id="Rectangle-4" x="0" y="8" width="3" height="1"></rect>
                    <rect id="Rectangle-4" x="5" y="8" width="3" height="1"></rect>
                    <rect id="Rectangle-4" x="10" y="8" width="3" height="1"></rect>
                    <rect id="Rectangle-4" x="15" y="8" width="3" height="1"></rect>
                    <rect id="Rectangle-4" x="0" y="19" width="3" height="1"></rect>
                    <rect id="Rectangle-4" x="5" y="19" width="3" height="1"></rect>
                    <rect id="Rectangle-4" x="10" y="19" width="3" height="1"></rect>
                    <rect id="Rectangle-4" x="15" y="19" width="3" height="1"></rect>
                    <rect id="Rectangle-6" x="6" y="13" width="1" height="3"></rect>
                    <rect id="Rectangle-6" x="6" y="18" width="1" height="2"></rect>
                    <rect id="Rectangle-6" x="21" y="0" width="1" height="2"></rect>
                    <rect id="Rectangle-6" x="21" y="4" width="1" height="3"></rect>
                    <rect id="Rectangle-6" x="21" y="22" width="1" height="3"></rect>
                    <rect id="Rectangle-6" x="21" y="27" width="1" height="1"></rect>
                    <rect id="Rectangle-4" x="20" y="8" width="3" height="1"></rect>
                    <rect id="Rectangle-4" x="20" y="19" width="3" height="1"></rect>
                    <rect id="Rectangle-4" x="25" y="8" width="3" height="1"></rect>
                    <rect id="Rectangle-4" x="25" y="19" width="3" height="1"></rect>
                    <rect id="Rectangle-6" x="21" y="8" width="1" height="3"></rect>
                    <rect id="Rectangle-6" x="21" y="13" width="1" height="3"></rect>
                    <rect id="Rectangle-6" x="21" y="18" width="1" height="2"></rect>
                    <rect id="Rectangle-4" x="30" y="8" width="3" height="1"></rect>
                    <rect id="Rectangle-4" x="30" y="19" width="3" height="1"></rect>
                    <rect id="Rectangle-4" x="35" y="8" width="3" height="1"></rect>
                    <rect id="Rectangle-4" x="35" y="19" width="3" height="1"></rect>
                    <rect id="Rectangle-4" x="40" y="8" width="3" height="1"></rect>
                    <rect id="Rectangle-4" x="40" y="19" width="3" height="1"></rect>
                    <rect id="Rectangle-6" x="36" y="8" width="1" height="3"></rect>
                    <rect id="Rectangle-6" x="36" y="13" width="1" height="3"></rect>
                    <rect id="Rectangle-6" x="36" y="18" width="1" height="2"></rect>
                </g>
            </g>
        </g>
    </g>
</svg>