<?xml version="1.0" encoding="UTF-8" standalone="no"?>
<svg width="32px" height="32px" viewBox="0 0 32 32" version="1.1" xmlns="http://www.w3.org/2000/svg" xmlns:xlink="http://www.w3.org/1999/xlink">
    <g id="Page-1" stroke="none" stroke-width="1" fill="none" fill-rule="evenodd">
        <g id="support" fill="#000000">
            <path d="M16.0723404,0 C19.7035664,0 22.7900593,1.28225716 25.3319149,3.84680633 C27.8737705,6.41135986 29.1446809,9.48650594 29.1446809,13.0723404 L29.1446809,27.6425532 C29.1446809,28.822701 28.713481,29.8439671 27.8510638,30.706383 C26.9886467,31.5687987 25.9673831,32 24.787234,32 L16.0723404,32 L16.0723404,29.0723404 L26.2170213,29.0723404 L26.2170213,27.6425532 L20.4297872,27.6425532 L20.4297872,16 L26.2170213,16 L26.2170213,13.0723404 C26.2170213,10.2581401 25.2297981,7.86384068 23.2553213,5.88935952 C21.2808402,3.91488272 18.8865408,2.92765957 16.0723404,2.92765957 C13.2581401,2.92765957 10.8638407,3.91488272 8.88935952,5.88935952 C6.91488359,7.86384068 5.92765957,10.2581401 5.92765957,13.0723404 L5.92765957,16 L11.7148936,16 L11.7148936,27.6425532 L7.35744681,27.6425532 C6.17729901,27.6425532 5.15603287,27.2113533 4.29361702,26.3489362 C3.43120135,25.486519 3,24.4652555 3,23.2851064 L3,13.0723404 C3,9.48650594 4.27090949,6.41135986 6.81276596,3.84680633 C9.35462155,1.28225716 12.4411144,0 16.0723404,0 L16.0723404,0 Z" id="Page-1"></path>
        </g>
    </g>
</svg>