<svg xmlns="http://www.w3.org/2000/svg" xmlns:xlink="http://www.w3.org/1999/xlink" width="24" height="24" viewBox="0 0 24 24" version="1.1"><g id="Page-1" stroke="none" stroke-width="1" fill="none" fill-rule="evenodd"><g id="twitter" fill="#000000"><path d="M24 4.31C23.32 5.31 22.49 6.16 21.53 6.86 21.54 7 21.55 7.21 21.55 7.5 21.55 8.82 21.35 10.13 20.97 11.45 20.58 12.76 20 14.02 19.21 15.23 18.42 16.44 17.49 17.51 16.4 18.44 15.31 19.37 14 20.11 12.47 20.66 10.94 21.21 9.3 21.49 7.55 21.49 4.8 21.49 2.28 20.75 0 19.28 0.36 19.32 0.75 19.34 1.19 19.34 3.47 19.34 5.51 18.64 7.29 17.24 6.23 17.22 5.27 16.89 4.43 16.26 3.59 15.63 3.01 14.82 2.7 13.83 3.03 13.88 3.34 13.91 3.62 13.91 4.06 13.91 4.49 13.85 4.92 13.74 3.78 13.51 2.84 12.94 2.09 12.04 1.35 11.14 0.97 10.1 0.97 8.91L0.97 8.85C1.66 9.24 2.41 9.45 3.2 9.48 2.53 9.03 1.99 8.45 1.6 7.73 1.2 7 1 6.22 1 5.38 1 4.49 1.23 3.66 1.67 2.9 2.9 4.41 4.4 5.62 6.16 6.53 7.92 7.44 9.81 7.94 11.82 8.04 11.73 7.66 11.69 7.28 11.69 6.92 11.69 5.56 12.17 4.4 13.13 3.44 14.09 2.48 15.25 2 16.61 2 18.03 2 19.23 2.52 20.21 3.55 21.31 3.34 22.35 2.94 23.33 2.37 22.95 3.53 22.23 4.44 21.16 5.08 22.11 4.97 23.05 4.72 24 4.31L24 4.31Z" id="Page-1"/></g></g></svg>