<?xml version="1.0" encoding="UTF-8" standalone="no"?>
<svg width="32px" height="32px" viewBox="0 0 32 32" version="1.1" xmlns="http://www.w3.org/2000/svg" xmlns:xlink="http://www.w3.org/1999/xlink">
    <g id="Page-1" stroke="none" stroke-width="1" fill="none" fill-rule="evenodd">
        <g id="updates" fill="#000000">
            <path d="M15.6425532,24.7148936 L15.6425532,20.3574468 L21.4297872,26.1446809 L15.6425532,32 L15.6425532,27.6425532 C12.4652337,27.6425532 9.7305088,26.4964662 7.43829787,24.2042575 C5.14608782,21.9120444 4,19.1773195 4,16 C4,13.7304848 4.61275986,11.6652555 5.83829787,9.80425532 L7.94893617,11.9148936 C7.26808162,13.1404299 6.92765957,14.5021189 6.92765957,16 C6.92765957,18.4056854 7.77871469,20.4595679 9.48084889,22.1617043 C11.1829853,23.8638363 13.2368678,24.7148936 15.6425532,24.7148936 L15.6425532,24.7148936 Z M15.6425532,4.35744681 C18.8198727,4.35744681 21.5545976,5.50353375 23.8468107,7.7957425 C26.1390194,10.0879556 27.2851064,12.8226805 27.2851064,16 C27.2851064,18.2695152 26.6723448,20.3347445 25.4468085,22.1957447 L23.3361702,20.0851064 C24.0170256,18.8595701 24.3574468,17.4978811 24.3574468,16 C24.3574468,13.5943146 23.5063895,11.5404321 21.8042575,9.83829569 C20.1021211,8.13616368 18.0482386,7.28510638 15.6425532,7.28510638 L15.6425532,11.6425532 L9.85531915,5.85531915 L15.6425532,0 L15.6425532,4.35744681 Z" id="Page-1"></path>
        </g>
    </g>
</svg>