<svg xmlns="http://www.w3.org/2000/svg" width="86" height="32" viewBox="0 0 86 32"><path fill="#111111" fill-rule="evenodd" d="M0,31.6444444 L4.46222222,0.355555556 L10.7555556,0.355555556 L15.5022222,31.6444444 L11.0577778,31.6444444 L7.75111111,6.34095301 L4.58666667,31.6444444 L0,31.6444444 Z M30.4636337,29.8222222 C29.3851097,31.2740813 27.6903119,32 25.3791892,32 C23.0680665,32 21.3406764,31.2266744 20.196967,29.68 C19.0532576,28.1333256 18.4814114,25.9081627 18.4814114,23.0044444 L18.4814114,9.36888889 C18.4814114,4.71108782 19.70214,1.80148729 22.1436337,0.64 C23.0443789,0.2133312 24.1347384,0 25.4147448,0 C29.8118038,0 32.0103003,2.7733056 32.0103003,8.32 L32.0276061,11.3167176 L27.4231616,11.3167176 L27.4058559,8.62222222 C27.4058559,7.01036231 27.2695609,5.85778124 26.996967,5.16444444 C26.724373,4.47110764 26.191045,4.12444444 25.396967,4.12444444 C24.6028889,4.12444444 24.0517833,4.49184818 23.7436337,5.22666667 C23.435484,5.96148516 23.2814114,7.08739982 23.2814114,8.60444444 L23.2814114,23.2177778 C23.2814114,24.9007492 23.4295581,26.1037001 23.7258559,26.8266667 C24.0221537,27.5496332 24.5614075,27.9111111 25.3436337,27.9111111 C26.1258598,27.9111111 26.6651137,27.5437074 26.9614114,26.8088889 C27.2577092,26.0740704 27.4058559,24.8592677 27.4058559,23.1644444 L27.4165812,17.8775971 L25.2900643,17.8775971 L25.2900643,14.633894 L32.0987172,14.633894 L32.0814114,23.1111111 C32.0814114,26.1333484 31.5421576,28.3703631 30.4636337,29.8222222 Z M36.5511111,0.355555556 L40.2844444,0.355555556 L46.9155556,19.1288889 L46.5777778,10.5955556 L46.5777778,0.355555556 L50.8622222,0.355555556 L50.8622222,31.6444444 L47.4844444,31.6444444 L40.6755556,12.2133333 L36.5511111,0.355555556 Z M36.5511111,31.6444444 L36.4889405,11.6665761 L40.7538816,23.9310584 L40.9422222,31.6444444 L36.5511111,31.6444444 Z M67.1466667,29.8222222 C66.0681428,31.2740813 64.3733449,32 62.0622222,32 C59.7510996,32 58.0237094,31.2266744 56.88,29.68 C55.7362906,28.1333256 55.1644444,25.9081627 55.1644444,23.0044444 L55.1644444,9.36888889 C55.1644444,4.71108782 56.385173,1.80148729 58.8266667,0.64 C59.7274119,0.2133312 60.8177714,0 62.0977778,0 C66.4948368,0 68.6933333,2.7733056 68.6933333,8.32 L68.6933333,12.6222222 L64.0888889,12.6222222 L64.0888889,8.62222222 C64.0888889,7.01036231 63.952594,5.85778124 63.68,5.16444444 C63.407406,4.47110764 62.874078,4.12444444 62.08,4.12444444 C61.285922,4.12444444 60.7348164,4.49184818 60.4266667,5.22666667 C60.118517,5.96148516 59.9644444,7.08739982 59.9644444,8.60444444 L59.9644444,23.2177778 C59.9644444,24.9007492 60.1125911,26.1037001 60.4088889,26.8266667 C60.7051867,27.5496332 61.2444405,27.9111111 62.0266667,27.9111111 C62.8088928,27.9111111 63.3481467,27.5437074 63.6444444,26.8088889 C63.9407422,26.0740704 64.0888889,24.8592677 64.0888889,23.1644444 L64.0888889,18.6844444 L68.7644444,18.6844444 L68.7644444,23.1111111 C68.7644444,26.1333484 68.2251906,28.3703631 67.1466667,29.8222222 Z M75.6977778,31.6444444 L75.6977778,19.1466667 L70.4533333,0.355555556 L75.0044444,0.355555556 L78.0977778,12.0533333 L78.1688889,12.0533333 L80.9244444,0.355555556 L85.4577778,0.355555556 L80.4622222,19.1466667 L80.4622222,31.6444444 L75.6977778,31.6444444 Z"/></svg>