<svg xmlns="http://www.w3.org/2000/svg" width="20" height="20" viewBox="0 0 20 20"><path fill="#9B5C8F" fill-rule="evenodd" d="M10,20 C4.4771525,20 0,15.5228475 0,10 C0,4.4771525 4.4771525,0 10,0 C15.5228475,0 20,4.4771525 20,10 C20,15.5228475 15.5228475,20 10,20 Z M3.11658848,7.49685143 L3.11658848,7.49685143 C3.02174255,7.6187125 2.98112219,7.77455405 3.00826753,7.95070579 C3.40789632,10.4910404 3.78050997,12.204972 4.12597828,13.0924356 C4.26144456,13.4175287 4.41722103,13.5733702 4.60014282,13.5598301 C4.8846806,13.53952 5.22337886,13.1465961 5.62307274,12.3810586 C5.83307478,11.9475145 6.15823291,11.2971982 6.59861225,10.4301098 C6.96439075,11.7104322 7.46570062,12.6723665 8.09570672,13.3159778 C8.27185845,13.4988996 8.45471515,13.5801403 8.63086689,13.5666002 C8.78670844,13.5530601 8.90856951,13.4717543 8.98994042,13.3227479 C9.05764101,13.1939865 9.08478634,13.044915 9.07118113,12.8756636 C9.03056077,12.2591976 9.0915564,11.3988142 9.26087298,10.2945784 C9.43695962,9.15655751 9.65379681,8.33685956 9.91802441,7.8490898 C9.97218489,7.74747382 9.99249507,7.64585783 9.98572501,7.52393167 C9.97218489,7.36809011 9.9044192,7.23939389 9.77572298,7.1377779 C9.64702675,7.03616191 9.50479041,6.9887715 9.34894885,7.00224652 C9.15248694,7.01585173 9.00341544,7.11069766 8.90186455,7.30038952 C8.48186049,8.0658619 8.18378259,9.30556391 8.00763085,11.0262005 C7.7502384,10.3758843 7.53346631,9.61034677 7.36408463,8.70940811 C7.28954888,8.30971422 7.10669219,8.12008747 6.80861429,8.14039765 C6.60538231,8.15393776 6.43600064,8.28940405 6.30046926,8.54686159 L4.81691491,11.3717339 C4.57306258,10.3894895 4.34275037,9.19040781 4.13274834,7.77455405 C4.08535793,7.42225058 3.88889601,7.25970406 3.5433626,7.2868494 C3.35367075,7.30038952 3.2114344,7.36809011 3.11658848,7.49685143 Z M17.6745595,8.56040171 C17.4307072,8.13362759 17.0716336,7.87623514 16.590699,7.77455405 C16.4619377,7.74747382 16.3400766,7.7339337 16.2248554,7.7339337 C15.5745392,7.7339337 15.0461491,8.07263196 14.6329151,8.75009356 C14.2806116,9.32587409 14.1045249,9.96265025 14.1045249,10.660422 C14.1045249,11.1820421 14.212911,11.6291264 14.4296831,12.00174 C14.6735354,12.4285142 15.0326089,12.6859066 15.5135435,12.7875226 C15.6422398,12.8146679 15.7641659,12.828208 15.8793871,12.828208 C16.5364735,12.828208 17.0648636,12.4895098 17.4713275,11.8120482 C17.8235659,11.2294325 17.9997176,10.5926563 17.9997176,9.89494965 C18.0064877,9.36655954 17.8913316,8.9261802 17.6745595,8.56040171 L17.6745595,8.56040171 Z M16.8210112,10.4368799 C16.7261653,10.8839642 16.5567836,11.2158924 16.3060962,11.4394345 C16.1096993,11.6155863 15.9267775,11.6900569 15.757461,11.6562066 C15.5948493,11.6223563 15.459318,11.48012 15.3577671,11.2158924 C15.2763962,11.0058903 15.2358409,10.7958883 15.2358409,10.5994264 C15.2358409,10.4301098 15.249381,10.2607281 15.2832313,10.1049517 C15.344227,9.82718396 15.4593831,9.5561863 15.6422398,9.29879385 C15.865847,8.96680056 16.1029293,8.83139937 16.3467816,8.87878979 C16.5093932,8.91264008 16.6449246,9.05494152 16.7464755,9.31910403 C16.8277813,9.52910606 16.8684017,9.73910809 16.8684017,9.93557001 C16.8684017,10.1117217 16.8548615,10.2810383 16.8210112,10.4368148 L16.8210112,10.4368799 Z M13.4338334,8.56040171 C13.1899811,8.13362759 12.8241375,7.87623514 12.3499729,7.77455405 C12.2212767,7.74747382 12.0993505,7.7339337 11.9841293,7.7339337 C11.3338131,7.7339337 10.805423,8.07263196 10.392189,8.75009356 C10.0399506,9.32587409 9.86379884,9.96265025 9.86379884,10.660422 C9.86379884,11.1820421 9.97218489,11.6291264 10.188957,12.00174 C10.4328093,12.4285142 10.7918828,12.6859066 11.2728174,12.7875226 C11.4015788,12.8146679 11.5234398,12.828208 11.638661,12.828208 C12.2957474,12.828208 12.8241375,12.4895098 13.2306014,11.8120482 C13.5829049,11.2294325 13.7589915,10.5926563 13.7589915,9.89494965 C13.7589915,9.36655954 13.6506055,8.9261802 13.4338334,8.56040171 L13.4338334,8.56040171 Z M12.5735151,10.4368799 C12.4786692,10.8839642 12.3092875,11.2158924 12.0586651,11.4394345 C11.8622032,11.6155863 11.6792814,11.6900569 11.5098997,11.6562066 C11.3473532,11.6223563 11.2118869,11.48012 11.1102058,11.2158924 C11.0289651,11.0058903 10.9883448,10.7958883 10.9883448,10.5994264 C10.9883448,10.4301098 11.0018849,10.2607281 11.0357352,10.1049517 C11.0967308,9.82718396 11.2118869,9.5561863 11.3948087,9.29879385 C11.6183509,8.96680056 11.8554331,8.83139937 12.0992854,8.87878979 C12.2618971,8.91264008 12.3974284,9.05494152 12.4989793,9.31910403 C12.5803502,9.52910606 12.6209055,9.73910809 12.6209055,9.93557001 C12.6277407,10.1117217 12.6073654,10.2810383 12.5735151,10.4368148 L12.5735151,10.4368799 Z"/></svg>