<?xml version="1.0" standalone="no"?>
<!DOCTYPE svg PUBLIC "-//W3C//DTD SVG 20010904//EN"
 "http://www.w3.org/TR/2001/REC-SVG-20010904/DTD/svg10.dtd">
<svg version="1.0" xmlns="http://www.w3.org/2000/svg"
 width="260.000000pt" height="260.000000pt" viewBox="0 0 260.000000 260.000000"
 preserveAspectRatio="xMidYMid meet">
<metadata>
Created by potrace 1.11, written by Peter Selinger 2001-2013
</metadata>
<g transform="translate(0.000000,260.000000) scale(0.100000,-0.100000)"
fill="#000000" stroke="none">
<path d="M1190 2322 c-62 -152 -121 -295 -131 -317 -10 -22 -88 -211 -174
-420 -86 -209 -163 -393 -170 -410 -7 -16 -39 -93 -70 -170 -31 -77 -63 -153
-70 -170 -8 -16 -41 -97 -75 -180 -33 -82 -65 -159 -69 -170 -33 -76 -67 -158
-115 -275 -30 -74 -62 -152 -70 -172 l-16 -38 1075 0 1075 0 -11 27 c-6 15
-17 44 -26 63 -8 19 -19 44 -24 55 -5 11 -62 151 -128 310 -134 327 -139 338
-156 380 -7 17 -68 163 -135 325 -66 162 -157 381 -200 485 -43 105 -144 348
-224 540 -79 193 -151 364 -158 382 -14 32 -14 31 -128 -245z"/>
</g>
</svg>
