<svg xmlns="http://www.w3.org/2000/svg" width="20" height="20" viewBox="0 0 20 20"><path fill="#21759B" fill-rule="evenodd" d="M10.15625,10.78125 L12.9166667,18.3854167 C12.9166667,18.420139 13.0729167,18.749997 13.3854167,19.375 C13.3506933,19.375 13.28125,19.392361 13.1770833,19.4270833 C13.0729167,19.4618057 13.0034733,19.4965277 12.96875,19.53125 C12.2743033,19.7395844 11.7187533,19.8611109 11.3020833,19.8958333 C10.7465267,19.9652781 10.3125,20 10,20 C9.09721667,20 8.22917,19.8958344 7.39583333,19.6875 C7.36111,19.6875 7.31771,19.6701391 7.26562667,19.6354167 C7.21354,19.6006943 7.17014,19.5833333 7.13541667,19.5833333 L8.4375,15.78125 L10.15625,10.78125 Z M0.885416667,6.04166667 C0.989584,6.04166667 1.11111033,6.05034667 1.25,6.06770667 C1.38888967,6.08507 1.527777,6.09375 1.66666667,6.09375 L6.51041667,19.375 C6.47569333,19.375 6.41493,19.357639 6.32812667,19.3229167 C6.24132,19.2881943 6.16319333,19.2534723 6.09375,19.21875 C4.42707333,18.524302 3.04688033,17.4392433 1.953125,15.96354 C0.859369667,14.48784 0.2256953,12.82987 0.0520833333,10.9895833 C0.0173609367,10.78125 0,10.45139 0,10 C0,8.71527 0.295135933,7.39584 0.885416667,6.04166667 Z M19.0625,5.78125 C19.6875033,7.13542333 20,8.54166 20,10 C20,10.3472233 19.9652767,10.7986067 19.8958333,11.3541667 C19.6527767,13.0208433 19.0364633,14.5399233 18.0468733,15.91146 C17.0572867,17.282993 15.81598,18.3159687 14.3229167,19.0104167 C14.2881933,19.045139 14.2447933,19.0625 14.1927067,19.0625 C14.1406233,19.0625 14.0972233,19.079861 14.0625,19.1145833 L15.2083333,15.7291667 L17.2395833,9.84375 C17.6909733,8.69791 17.9166667,7.62153333 17.9166667,6.61458333 L17.9166667,5.625 C17.8819433,5.03472 17.7170167,4.50521 17.4218733,4.03646 C17.1267333,3.56770667 16.66667,3.35069333 16.0416667,3.38541667 L15.9375,3.38541667 C15.52083,3.38541667 15.1649333,3.54166667 14.8697933,3.85416667 C14.57465,4.16666667 14.4270833,4.53124667 14.4270833,4.94791667 C14.4270833,5.46875333 14.72222,6.18055 15.3125,7.08333333 C15.7986133,7.91667 16.0416667,8.73263333 16.0416667,9.53125 C16.0416667,10.3645867 15.8159733,11.3368 15.3645833,12.4479167 L14.4791667,15.46875 L11.25,5.78125 L12.2916667,5.72916667 C12.4305567,5.72916667 12.52604,5.65972333 12.5781267,5.52083333 C12.63021,5.38194333 12.6128467,5.25173667 12.52604,5.13020667 C12.4392367,5.00868 12.32639,4.94791667 12.1875,4.94791667 C11.2152733,5.05208333 10.41667,5.10416667 9.79166667,5.10416667 L7.44791667,4.94791667 C7.30902667,4.94791667 7.20486,5.00868 7.13541667,5.13020667 C7.06597333,5.25173667 7.05729,5.38194333 7.10937333,5.52083333 C7.16146,5.65972333 7.25694333,5.72916667 7.39583333,5.72916667 C7.70833333,5.76389 8.02083333,5.78125 8.33333333,5.78125 L9.73958333,9.63541667 L7.76041667,15.5208333 L4.47916667,5.78125 L5.52083333,5.67708333 C5.65972333,5.67708333 5.75520667,5.60764 5.80729333,5.46875 C5.85937667,5.32986 5.85069333,5.20833333 5.78125,5.10416667 C5.71180667,5 5.60764,4.94791667 5.46875,4.94791667 C4.49652333,5.01736 3.69792,5.05208333 3.07291667,5.05208333 L1.30208333,5.05208333 C1.47569533,4.73958333 1.77083133,4.30555667 2.1875,3.75 C4.16667667,1.24998667 6.77081667,0 10,0 C11.2152833,0 12.41319,0.225693333 13.59375,0.677083333 C15.32987,1.33681 16.80555,2.46527 18.0208333,4.0625 C18.0555567,4.09722333 18.0989567,4.15798667 18.15104,4.24479333 C18.2031267,4.33159667 18.2465267,4.39236 18.28125,4.42708333 C18.55903,4.80903 18.8194433,5.26041333 19.0625,5.78125 Z"/></svg>