<?xml version="1.0" encoding="UTF-8" standalone="no"?>
<svg width="20px" height="20px" viewBox="0 0 20 20" version="1.1" xmlns="http://www.w3.org/2000/svg" xmlns:xlink="http://www.w3.org/1999/xlink" xmlns:sketch="http://www.bohemiancoding.com/sketch/ns">
    <!-- Generator: Sketch 3.5.1 (25234) - http://www.bohemiancoding.com/sketch -->
    <title>counter_icon</title>
    <desc>Created with Sketch.</desc>
    <defs></defs>
    <g id="Page-1" stroke="none" stroke-width="1" fill="none" fill-rule="evenodd" sketch:type="MSPage">
        <g id="counter_icon" sketch:type="MSArtboardGroup" fill="#3E6274">
            <path d="M0,6.0085302 C0,4.8992496 0.898212381,4 1.99079514,4 L18.0092049,4 C19.1086907,4 20,4.90195036 20,6.0085302 L20,13.9914698 C20,15.1007504 19.1017876,16 18.0092049,16 L1.99079514,16 C0.891309342,16 0,15.0980496 0,13.9914698 L0,6.0085302 Z M4.45832983,13.1017227 L4.45832983,7 L2,7 L2,8.22604709 L3.22916491,8.22604709 L3.22916491,13.1017227 L4.45832983,13.1017227 Z M11.2757648,9.45209417 L11.2757648,8.22604709 C11.2757648,7.88389259 11.1518961,7.59401537 10.9041568,7.35640995 C10.6564176,7.11880271 10.3705671,7 10.0465999,7 L7.61685532,7 L7.61685532,8.22604709 L10.0465999,8.22604709 L10.0465999,9.45209417 L8.84602023,9.45209417 C8.50299564,9.45209417 8.21238126,9.56614324 7.97416979,9.79424685 C7.73596014,10.0223505 7.61685532,10.307474 7.61685532,10.6496285 L7.61685532,13.1017227 L11.2757648,13.1017227 L11.2757648,11.8756756 L8.84602023,11.8756756 L8.84602023,10.6496285 L10.0465999,10.6496285 C10.3896245,10.6496285 10.6802389,10.5355795 10.9184504,10.3074759 C11.15666,10.0793723 11.2757648,9.79424867 11.2757648,9.45209417 Z M18.0159912,9.13845422 L18.0159912,8.22604709 C18.0159912,7.88389259 17.8968864,7.59401537 17.6586767,7.35640995 C17.4204653,7.11880271 17.1393787,7 16.8154115,7 L14.3570817,7 L14.3570817,8.22604709 L16.8154115,8.22604709 L16.8154115,9.45209417 L15.5862466,9.45209417 L15.5862466,10.6496285 L16.8154115,10.6496285 L16.8154115,11.8756756 L14.3570817,11.8756756 L14.3570817,13.1017227 L16.8154115,13.1017227 C17.1393787,13.1017227 17.4204653,12.98292 17.6586767,12.7453128 C17.8968864,12.5077073 18.0159912,12.2178301 18.0159912,11.8756756 L18.0159912,10.9632685 C18.0159912,10.6971485 17.9302355,10.4785522 17.7587241,10.3074759 C17.5872128,10.1363995 17.3680605,10.0508614 17.1012638,10.0508614 C17.3680605,10.0508614 17.5872128,9.96532319 17.7587241,9.79424685 C17.9302355,9.62317051 18.0159912,9.40457418 18.0159912,9.13845422 Z" id="Page-1" sketch:type="MSShapeGroup"></path>
        </g>
    </g>
</svg>