<svg xmlns="http://www.w3.org/2000/svg" width="20" height="20" viewBox="0 0 20 20"><path fill="#3E6274" fill-rule="evenodd" d="M12,3.75 L13.25,3.75 L13.25,2.5 L12,2.5 L12,3.75 Z M14.5,3.75 L15.75,3.75 L15.75,2.5 L14.5,2.5 L14.5,3.75 Z M12,6.25 L13.25,6.25 L13.25,5 L12,5 L12,6.25 Z M14.5,6.25 L15.75,6.25 L15.75,5 L14.5,5 L14.5,6.25 Z M12,8.75 L13.25,8.75 L13.25,7.5 L12,7.5 L12,8.75 Z M14.5,8.75 L15.75,8.75 L15.75,7.5 L14.5,7.5 L14.5,8.75 Z M12,11.25 L13.25,11.25 L13.25,10 L12,10 L12,11.25 Z M14.5,11.25 L15.75,11.25 L15.75,10 L14.5,10 L14.5,11.25 Z M12,13.75 L13.25,13.75 L13.25,12.5 L12,12.5 L12,13.75 Z M14.5,13.75 L15.75,13.75 L15.75,12.5 L14.5,12.5 L14.5,13.75 Z M17,0 L10.75,0 C10.4114575,0 10.11849,0.1236975 9.871095,0.371095 C9.6236975,0.61849 9.5,0.9114575 9.5,1.25 L9.5,5 L3.25,5 C2.91145675,5 2.61849075,5.1236975 2.37109375,5.371095 C2.12369668,5.61849 2,5.9114575 2,6.25 L2,18.75 C2,19.0885433 2.12369668,19.3815093 2.37109375,19.6289062 C2.61849075,19.8763033 2.91145675,20 3.25,20 L17,20 C17.3385425,20 17.63151,19.8763033 17.878905,19.6289062 C18.1263025,19.3815093 18.25,19.0885433 18.25,18.75 L18.25,1.25 C18.25,0.9114575 18.1263025,0.61849 17.878905,0.371095 C17.63151,0.1236975 17.3385425,0 17,0 Z M7,18.75 L5.75,18.75 L5.75,16.25 L7,16.25 L7,18.75 Z M8.25,18.75 L8.25,16.25 L8.25,15 L7,15 L5.75,15 L4.5,15 L4.5,16.25 L4.5,18.75 L3.25,18.75 L3.25,6.25 L9.5,6.25 L9.5,18.75 L8.25,18.75 Z M14.5,18.75 L13.25,18.75 L13.25,16.25 L14.5,16.25 L14.5,18.75 Z M17,18.75 L15.75,18.75 L15.75,16.25 L15.75,15 L14.5,15 L13.25,15 L12,15 L12,18.75 L10.75,18.75 L10.75,6.25 L10.75,1.25 L17,1.25 L17,18.75 Z M4.5,8.75 L5.75,8.75 L5.75,7.5 L4.5,7.5 L4.5,8.75 Z M7,8.75 L8.25,8.75 L8.25,7.5 L7,7.5 L7,8.75 Z M4.5,11.25 L5.75,11.25 L5.75,10 L4.5,10 L4.5,11.25 Z M7,11.25 L8.25,11.25 L8.25,10 L7,10 L7,11.25 Z M4.5,13.75 L5.75,13.75 L5.75,12.5 L4.5,12.5 L4.5,13.75 Z M7,13.75 L8.25,13.75 L8.25,12.5 L7,12.5 L7,13.75 Z"/></svg>