<svg xmlns="http://www.w3.org/2000/svg" width="20" height="20" viewBox="0 0 20 20"><path fill="#3E6274" fill-rule="evenodd" d="M15.9882904,17.9859485 L15.9882904,16.5807963 C15.9882904,15.6752487 15.3013351,14.9336491 13.9274005,14.3559734 C12.5534659,13.7782947 11.2420054,13.4894614 9.99297424,13.4894614 C8.74394304,13.4894614 7.43248262,13.7782947 6.05854801,14.3559734 C4.6846134,14.9336491 3.99765808,15.6752487 3.99765808,16.5807963 L3.99765808,17.9859485 L15.9882904,17.9859485 Z M9.99297424,5.99531616 C9.18110351,5.99531616 8.47853639,6.29195541 7.8852459,6.8852459 C7.29195541,7.47853639 6.99531616,8.18110351 6.99531616,8.99297424 C6.99531616,9.80484496 7.29195541,10.5074121 7.8852459,11.1007026 C8.47853639,11.6939931 9.18110351,11.9906323 9.99297424,11.9906323 C10.804845,11.9906323 11.5074121,11.6939931 12.1007026,11.1007026 C12.6939931,10.5074121 12.9906323,9.80484496 12.9906323,8.99297424 C12.9906323,8.18110351 12.6939931,7.47853639 12.1007026,6.8852459 C11.5074121,6.29195541 10.804845,5.99531616 9.99297424,5.99531616 Z M9.99297424,2.01405152 C9.71194379,2.01405152 9.47775176,2.10772834 9.29039813,2.29508197 C9.1030445,2.4824356 9.00936768,2.71662763 9.00936768,2.99765808 C9.00936768,3.27868852 9.1030445,3.52068646 9.29039813,3.7236519 C9.47775176,3.92662033 9.71194379,4.02810304 9.99297424,4.02810304 C10.2740047,4.02810304 10.5081967,3.92662033 10.6955504,3.7236519 C10.882904,3.52068646 10.9765808,3.27868852 10.9765808,2.99765808 C10.9765808,2.71662763 10.882904,2.4824356 10.6955504,2.29508197 C10.5081967,2.10772834 10.2740047,2.01405152 9.99297424,2.01405152 Z M16.971897,2.01405152 C17.5027342,2.01405152 17.9711153,2.21701696 18.3770492,2.62295082 C18.782983,3.02888468 18.9859485,3.49726576 18.9859485,4.02810304 L18.9859485,17.9859485 C18.9859485,18.5167864 18.782983,18.9851659 18.3770492,19.3911007 C17.9711153,19.7970356 17.5027342,20 16.971897,20 L3.01405152,20 C2.48321364,20 2.01483406,19.7970356 1.6088993,19.3911007 C1.20296441,18.9851659 1,18.5167864 1,17.9859485 L1,4.02810304 C1,3.49726576 1.20296441,3.02888468 1.6088993,2.62295082 C2.01483406,2.21701696 2.48321364,2.01405152 3.01405152,2.01405152 L7.18266979,2.01405152 C7.40125002,1.42076103 7.76034248,0.936771148 8.25995316,0.56206089 C8.75956384,0.187350632 9.33723354,3.73034936e-14 9.99297424,3.73034936e-14 C10.6487149,3.73034936e-14 11.2263846,0.187350632 11.7259953,0.56206089 C12.225606,0.936771148 12.5846985,1.42076103 12.8032787,2.01405152 L16.971897,2.01405152 Z"/></svg>