<?xml version="1.0" encoding="UTF-8" standalone="no"?>
<svg width="20px" height="20px" viewBox="0 0 20 20" version="1.1" xmlns="http://www.w3.org/2000/svg" xmlns:xlink="http://www.w3.org/1999/xlink" xmlns:sketch="http://www.bohemiancoding.com/sketch/ns">
    <!-- Generator: Sketch 3.5.1 (25234) - http://www.bohemiancoding.com/sketch -->
    <title>icon_icon</title>
    <desc>Created with Sketch.</desc>
    <defs></defs>
    <g id="Page-1" stroke="none" stroke-width="1" fill="none" fill-rule="evenodd" sketch:type="MSPage">
        <g id="icon_icon" sketch:type="MSArtboardGroup" fill="#3E6274">
            <path d="M10,15.4929577 C8.84193352,15.4929577 7.80125746,15.1721465 6.87793277,14.5305179 C5.95461108,13.8888864 5.28951587,13.0516492 4.88262911,12.0187793 L15.1173709,12.0187793 C14.7104841,13.0516492 14.0453889,13.8888864 13.1220672,14.5305179 C12.1987425,15.1721465 11.1580665,15.4929577 10,15.4929577 L10,15.4929577 Z M6.47887324,9.01408451 C6.07198648,9.01408451 5.71987531,8.86541521 5.42253671,8.56807362 C5.12519512,8.27073502 4.97652582,7.91862385 4.97652582,7.51173709 C4.97652582,7.10485033 5.12519512,6.75273915 5.42253671,6.45540056 C5.71987531,6.15805897 6.07198648,6.00938967 6.47887324,6.00938967 C6.88576,6.00938967 7.23787117,6.15805897 7.53520977,6.45540056 C7.83255136,6.75273915 7.98122066,7.10485033 7.98122066,7.51173709 C7.98122066,7.91862385 7.83255136,8.27073502 7.53520977,8.56807362 C7.23787117,8.86541521 6.88576,9.01408451 6.47887324,9.01408451 L6.47887324,9.01408451 Z M13.5211268,9.01408451 C13.11424,9.01408451 12.7621288,8.86541521 12.4647902,8.56807362 C12.1674486,8.27073502 12.0187793,7.91862385 12.0187793,7.51173709 C12.0187793,7.10485033 12.1674486,6.75273915 12.4647902,6.45540056 C12.7621288,6.15805897 13.11424,6.00938967 13.5211268,6.00938967 C13.9280135,6.00938967 14.2801247,6.15805897 14.5774633,6.45540056 C14.8748049,6.75273915 15.0234742,7.10485033 15.0234742,7.51173709 C15.0234742,7.91862385 14.8748049,8.27073502 14.5774633,8.56807362 C14.2801247,8.86541521 13.9280135,9.01408451 13.5211268,9.01408451 L13.5211268,9.01408451 Z M10,18.028169 C12.1909333,18.028169 14.0766738,17.2378796 15.6572785,15.6572785 C17.2378802,14.0766738 18.028169,12.1909333 18.028169,10 C18.028169,7.80906667 17.2378802,5.9233262 15.6572785,4.3427215 C14.0766738,2.76211981 12.1909333,1.97183099 10,1.97183099 C7.80906667,1.97183099 5.9233262,2.76211981 4.3427215,4.3427215 C2.76212041,5.9233262 1.97183099,7.80906667 1.97183099,10 C1.97183099,12.1909333 2.76212041,14.0766738 4.3427215,15.6572785 C5.9233262,17.2378796 7.80906667,18.028169 10,18.028169 L10,18.028169 Z M10,0 C12.7543166,0 15.1095377,0.978082254 17.0657292,2.9342708 C19.0219177,4.89046235 20,7.24568338 20,10 C20,12.7543166 19.0219177,15.1095377 17.0657292,17.0657277 C15.1095377,19.0219189 12.7543166,20 10,20 C7.24568338,20 4.89046235,19.0219189 2.9342723,17.0657277 C0.978081052,15.1095377 0,12.7543166 0,10 C0,7.24568338 0.978081052,4.89046235 2.9342723,2.9342708 C4.89046235,0.978082254 7.24568338,0 10,0 L10,0 Z" id="Page-1" sketch:type="MSShapeGroup"></path>
        </g>
    </g>
</svg>