<?xml version="1.0" encoding="UTF-8" standalone="no"?>
<svg width="20px" height="20px" viewBox="0 0 20 20" version="1.1" xmlns="http://www.w3.org/2000/svg" xmlns:xlink="http://www.w3.org/1999/xlink" xmlns:sketch="http://www.bohemiancoding.com/sketch/ns">
    <!-- Generator: Sketch 3.5.1 (25234) - http://www.bohemiancoding.com/sketch -->
    <title>list_icon</title>
    <desc>Created with Sketch.</desc>
    <defs></defs>
    <g id="Page-1" stroke="none" stroke-width="1" fill="none" fill-rule="evenodd" sketch:type="MSPage">
        <g id="list_icon" sketch:type="MSArtboardGroup" fill="#3E6274">
            <path d="M4.86075949,2.55696203 L20,2.55696203 L20,4.6835443 L4.86075949,4.6835443 L4.86075949,2.55696203 Z M4.86075949,11.164557 L4.86075949,9.03797468 L20,9.03797468 L20,11.164557 L4.86075949,11.164557 Z M4.86075949,17.6455696 L4.86075949,15.5189873 L20,15.5189873 L20,17.6455696 L4.86075949,17.6455696 Z M1.62025316,15.164557 C2.0253184,15.164557 2.37130661,15.2995769 2.65822785,15.5696203 C2.94514908,15.8396636 3.08860759,16.1772132 3.08860759,16.5822785 C3.08860759,16.9873437 2.94514908,17.324893 2.65822785,17.5949367 C2.37130661,17.8649803 2.0253184,18 1.62025316,18 C1.21518793,18 0.877638643,17.8649803 0.607594937,17.5949367 C0.33755123,17.324893 0.202531646,16.9873437 0.202531646,16.5822785 C0.202531646,16.1772132 0.33755123,15.8396636 0.607594937,15.5696203 C0.877638643,15.2995769 1.21518793,15.164557 1.62025316,15.164557 L1.62025316,15.164557 Z M1.62025316,2 C2.05907378,2 2.43881705,2.15189873 2.75949367,2.4556962 C3.08017029,2.75949367 3.24050633,3.14767716 3.24050633,3.62025316 C3.24050633,4.09282916 3.08017029,4.48101266 2.75949367,4.78481013 C2.43881705,5.08860759 2.05907378,5.24050633 1.62025316,5.24050633 C1.18143255,5.24050633 0.801689276,5.08860759 0.481012658,4.78481013 C0.160335943,4.48101266 0,4.09282916 0,3.62025316 C0,3.14767716 0.160335943,2.75949367 0.481012658,2.4556962 C0.801689276,2.15189873 1.18143255,2 1.62025316,2 L1.62025316,2 Z M1.62025316,8.48101266 C2.05907378,8.48101266 2.43881705,8.63291139 2.75949367,8.93670886 C3.08017029,9.24050633 3.24050633,9.62868982 3.24050633,10.1012658 C3.24050633,10.5738418 3.08017029,10.9620253 2.75949367,11.2658228 C2.43881705,11.5696203 2.05907378,11.721519 1.62025316,11.721519 C1.18143255,11.721519 0.801689276,11.5696203 0.481012658,11.2658228 C0.160335943,10.9620253 0,10.5738418 0,10.1012658 C0,9.62868982 0.160335943,9.24050633 0.481012658,8.93670886 C0.801689276,8.63291139 1.18143255,8.48101266 1.62025316,8.48101266 L1.62025316,8.48101266 Z" id="Page-1" sketch:type="MSShapeGroup"></path>
        </g>
    </g>
</svg>