<?xml version="1.0" encoding="UTF-8" standalone="no"?>
<svg width="12px" height="12px" viewBox="0 0 12 12" version="1.1" xmlns="http://www.w3.org/2000/svg" xmlns:xlink="http://www.w3.org/1999/xlink">
    <g id="Page-1" stroke="none" stroke-width="1" fill="none" fill-rule="evenodd">
        <g id="default" fill="#3E6274">
            <path d="M8.03667158,2.54911485 C7.43246173,2.18303726 6.75357403,2 6,2 C4.89827335,2 3.95618494,2.3912329 3.17370892,3.17370832 C2.39123242,3.95618494 2,4.89827335 2,6 C2,6.75357408 2.18303706,7.43246183 2.54911491,8.03667152 L8.03667158,2.54911485 Z M9.45088515,3.96332842 C9.81696274,4.56753827 10,5.24642597 10,6 C10,7.10172665 9.6087671,8.04381506 8.82629168,8.82629108 C8.04381506,9.60876758 7.10172665,10 6,10 C5.24642592,10 4.56753817,9.81696294 3.96332848,9.45088509 L9.45088515,3.96332842 Z M6,0 C7.65258997,0 9.06572259,0.586849352 10.2394375,1.76056248 C11.4131506,2.93427741 12,4.34741003 12,6 C12,7.65258997 11.4131506,9.06572259 10.2394375,10.2394366 C9.06572259,11.4131514 7.65258997,12 6,12 C4.34741003,12 2.93427741,11.4131514 1.76056338,10.2394366 C0.586848631,9.06572259 0,7.65258997 0,6 C0,4.34741003 0.586848631,2.93427741 1.76056338,1.76056248 C2.93427741,0.586849352 4.34741003,0 6,0 Z" id="Combined-Shape"></path>
        </g>
    </g>
</svg>