<?xml version="1.0" encoding="UTF-8" standalone="no"?>
<svg width="32px" height="32px" viewBox="0 0 32 32" version="1.1" xmlns="http://www.w3.org/2000/svg" xmlns:xlink="http://www.w3.org/1999/xlink">
    <g id="Page-1" stroke="none" stroke-width="1" fill="none" fill-rule="evenodd">
        <g id="disabled" fill="#3E6274">
            <path d="M16,28.8450704 C19.5054933,28.8450704 22.5226781,27.5806073 25.0516456,25.0516456 C27.5806083,22.5226781 28.8450704,19.5054933 28.8450704,16 C28.8450704,13.1455255 27.9186341,10.5164463 26.0657277,8.11267606 L8.11267606,26.0657277 C10.5164463,27.9186321 13.1455255,28.8450704 16,28.8450704 L16,28.8450704 Z M3.15492958,16 C3.15492958,18.8544745 4.08136786,21.4835537 5.9342723,23.8873239 L23.8873239,5.9342723 C21.4835537,4.08136593 18.8544745,3.15492958 16,3.15492958 C12.4945067,3.15492958 9.47732192,4.4193917 6.9483544,6.9483544 C4.41939266,9.47732192 3.15492958,12.4945067 3.15492958,16 L3.15492958,16 Z M16,0 C20.4069066,0 24.1752602,1.56493161 27.3051667,4.69483328 C30.4350684,7.82473976 32,11.5930934 32,16 C32,20.4069066 30.4350684,24.1752602 27.3051667,27.3051643 C24.1752602,30.4350703 20.4069066,32 16,32 C11.5930934,32 7.82473976,30.4350703 4.69483568,27.3051643 C1.56492968,24.1752602 0,20.4069066 0,16 C0,11.5930934 1.56492968,7.82473976 4.69483568,4.69483328 C7.82473976,1.56493161 11.5930934,0 16,0 L16,0 Z" id="Page-1"></path>
        </g>
    </g>
</svg>