<?xml version="1.0" encoding="UTF-8" standalone="no"?>
<svg width="32px" height="32px" viewBox="0 0 32 32" version="1.1" xmlns="http://www.w3.org/2000/svg" xmlns:xlink="http://www.w3.org/1999/xlink">
    <g id="Page-1" stroke="none" stroke-width="1" fill="none" fill-rule="evenodd">
        <g id="image" fill="#3E6274">
            <path d="M17.25,9.6875 C17.25,10.437504 17.520832,11.093748 18.0625,11.656248 C18.604168,12.218752 19.260412,12.5 20.031248,12.5 C20.802088,12.5 21.458332,12.218752 22,11.656248 C22.541668,11.093748 22.8125,10.437504 22.8125,9.6875 C22.8125,8.937496 22.541668,8.281252 22,7.718752 C21.458332,7.156248 20.802088,6.875 20.031248,6.875 C19.260412,6.875 18.604168,7.156248 18.0625,7.718752 C17.520832,8.281252 17.25,8.937496 17.25,9.6875 L17.25,9.6875 Z M26,26 L28,26 L28,24 L28,20 L28,14 L20,20 L10,12 L4,18 L4,20 L4,24 L4,26 L6,26 L26,26 Z M30,2 L2,2 C1.4583308,2 0.9895852,2.197916 0.59375,2.593752 C0.19791468,2.989584 0,3.458332 0,4 L0,28 C0,28.5416692 0.19791468,29.0104148 0.59375,29.40625 C0.9895852,29.8020853 1.4583308,30 2,30 L30,30 C30.541668,30 31.010416,29.8020853 31.406248,29.40625 C31.802084,29.0104148 32,28.5416692 32,28 L32,4 C32,3.458332 31.802084,2.989584 31.406248,2.593752 C31.010416,2.197916 30.541668,2 30,2 L30,2 Z M30,28 L2,28 L2,4 L30,4 L30,28 Z" id="Page-1"></path>
        </g>
    </g>
</svg>