<svg xmlns="http://www.w3.org/2000/svg" xmlns:xlink="http://www.w3.org/1999/xlink" width="12" height="12" viewBox="0 0 12 12" version="1.1"><g id="Page-1" stroke="none" stroke-width="1" fill="none" fill-rule="evenodd"><g id="radial" fill="#3E6274"><path d="M6 10C7.09 10 8.03 9.61 8.82 8.82 9.61 8.03 10 7.09 10 6 10 4.91 9.61 3.97 8.82 3.18 8.03 2.39 7.09 2 6 2 4.91 2 3.97 2.39 3.18 3.18 2.39 3.97 2 4.91 2 6 2 7.09 2.39 8.03 3.18 8.82 3.97 9.61 4.91 10 6 10L6 10ZM6 0C7.65 0 9.07 0.59 10.24 1.76 11.41 2.93 12 4.35 12 6 12 7.65 11.41 9.07 10.24 10.24 9.07 11.41 7.65 12 6 12 4.35 12 2.93 11.41 1.76 10.24 0.59 9.07 0 7.65 0 6 0 4.35 0.59 2.93 1.76 1.76 2.93 0.59 4.35 0 6 0L6 0Z" id="Page-1"/></g></g></svg>