<?xml version="1.0" encoding="UTF-8" standalone="no"?>
<svg width="32px" height="32px" viewBox="0 0 32 32" version="1.1" xmlns="http://www.w3.org/2000/svg" xmlns:xlink="http://www.w3.org/1999/xlink">
    <g id="Page-1" stroke="none" stroke-width="1" fill="none" fill-rule="evenodd">
        <g id="video" fill="#3E6274">
            <path d="M31.996429,25.5857146 L31.996429,6.76428577 C31.996429,5.73537585 31.626278,4.85077754 30.8859647,4.1104643 C30.1456515,3.37015107 29.2610532,3 28.2321433,3 L3.76428577,3 C2.73537585,3 1.85077754,3.37015107 1.1104643,4.1104643 C0.370151066,4.85077754 0,5.73537585 0,6.76428577 L0,25.5857146 C0,26.6146245 0.370151066,27.4992228 1.1104643,28.2395361 C1.85077754,28.9798493 2.73537585,29.3500004 3.76428577,29.3500004 L28.2321433,29.3500004 C29.2610532,29.3500004 30.1456515,28.9798493 30.8859647,28.2395361 C31.626278,27.4992228 31.996429,26.6146245 31.996429,25.5857146 L31.996429,25.5857146 Z M11.2928573,23.7035717 L11.2928573,8.64642865 L22.5857146,16.1750002 L11.2928573,23.7035717 Z" id=""></path>
        </g>
    </g>
</svg>