<svg xmlns="http://www.w3.org/2000/svg" width="20" height="20" viewBox="0 0 20 20"><path fill="#3E6274" fill-rule="evenodd" d="M12.5,11 C12.5,11.6901075 12.2558625,12.279295 11.7675775,12.7675775 C11.279295,13.2558625 10.6901075,13.5 10,13.5 C9.3098925,13.5 8.720705,13.2558625 8.2324225,12.7675775 C7.7441375,12.279295 7.5,11.6901075 7.5,11 C7.5,10.8958325 7.50651,10.7916675 7.51953,10.6875 C7.5325525,10.5833325 7.5585925,10.4791675 7.597655,10.375 L0,10.375 L0,16.5 C0,17.1901075 0.244138175,17.7792945 0.732422,18.267578 C1.2207055,18.7558618 1.8098925,19 2.5,19 L17.5,19 C18.1901075,19 18.779295,18.7558618 19.2675775,18.267578 C19.7558625,17.7792945 20,17.1901075 20,16.5 L20,10.375 L12.402345,10.375 C12.4414075,10.4791675 12.4674475,10.5833325 12.48047,10.6875 C12.49349,10.7916675 12.5,10.8958325 12.5,11 Z M17.5,3.5 L13.75,3.5 L13.75,2.25 C13.75,1.9114575 13.6263025,1.61849 13.378905,1.371095 C13.13151,1.1236975 12.8385425,1 12.5,1 L7.5,1 C7.1614575,1 6.86849,1.1236975 6.621095,1.371095 C6.3736975,1.61849 6.25,1.9114575 6.25,2.25 L6.25,3.5 L2.5,3.5 C1.8098925,3.5 1.2207055,3.7441375 0.732422,4.2324225 C0.244138175,4.720705 0,5.3098925 0,6 L0,9.125 L20,9.125 L20,6 C20,5.3098925 19.7558625,4.720705 19.2675775,4.2324225 C18.779295,3.7441375 18.1901075,3.5 17.5,3.5 Z M12.5,3.5 L7.5,3.5 L7.5,2.875 C7.5,2.7057275 7.5618475,2.559245 7.6855475,2.4355475 C7.809245,2.3118475 7.9557275,2.25 8.125,2.25 L11.875,2.25 C12.0442725,2.25 12.190755,2.3118475 12.3144525,2.4355475 C12.4381525,2.559245 12.5,2.7057275 12.5,2.875 L12.5,3.5 Z M11.25,11 C11.25,10.8828125 11.233725,10.772135 11.2011725,10.66797 C11.16862,10.5638025 11.1263025,10.4661475 11.07422,10.375 L8.92578,10.375 C8.8736975,10.4661475 8.83138,10.5638025 8.7988275,10.66797 C8.766275,10.772135 8.75,10.8828125 8.75,11 C8.75,11.3385425 8.8736975,11.63151 9.121095,11.878905 C9.36849,12.1263025 9.6614575,12.25 10,12.25 C10.3385425,12.25 10.63151,12.1263025 10.878905,11.878905 C11.1263025,11.63151 11.25,11.3385425 11.25,11 Z"/></svg>