<?xml version="1.0" encoding="UTF-8" standalone="no"?>
<svg width="20px" height="20px" viewBox="0 0 20 20" version="1.1" xmlns="http://www.w3.org/2000/svg" xmlns:xlink="http://www.w3.org/1999/xlink" xmlns:sketch="http://www.bohemiancoding.com/sketch/ns">
    <!-- Generator: Sketch 3.5.1 (25234) - http://www.bohemiancoding.com/sketch -->
    <title>button_icon</title>
    <desc>Created with Sketch.</desc>
    <defs></defs>
    <g id="Page-1" stroke="none" stroke-width="1" fill="none" fill-rule="evenodd" sketch:type="MSPage">
        <g id="button_icon" sketch:type="MSArtboardGroup" fill="#3E6274">
            <path d="M0,5.00585866 C0,3.89805351 0.898212381,3 1.99079514,3 L18.0092049,3 C19.1086907,3 20,3.89706013 20,5.00585866 L20,14.9941413 C20,16.1019465 19.1017876,17 18.0092049,17 L1.99079514,17 C0.891309342,17 0,16.1029399 0,14.9941413 L0,5.00585866 Z M6.08248915,13 C7.13314038,13 7.95803184,12.5658466 8.54848046,11.9059334 L8.54848046,9.68306802 L5.78726483,9.68306802 L5.78726483,10.7597685 L7.3154848,10.7597685 L7.3154848,11.4544139 C7.08104197,11.6714906 6.59479016,11.8972504 6.08248915,11.8972504 C5.03183792,11.8972504 4.26772793,11.089725 4.26772793,9.99565847 C4.26772793,8.9015919 5.03183792,8.09406657 6.08248915,8.09406657 C6.69898698,8.09406657 7.19392185,8.44138929 7.45441389,8.84949349 L8.47901592,8.29377713 C8.04486252,7.60781476 7.2894356,7 6.08248915,7 C4.38929088,7 3,8.16353111 3,9.99565847 C3,11.8191027 4.38929088,13 6.08248915,13 Z M13.238302,12.9913169 C14.9922817,12.9913169 16.2686927,11.7409551 16.2686927,9.99565847 C16.2686927,8.25036179 14.9922817,7 13.238302,7 C11.4930053,7 10.2165943,8.25036179 10.2165943,9.99565847 C10.2165943,11.7409551 11.4930053,12.9913169 13.238302,12.9913169 Z M13.238302,11.8972504 C12.1702846,11.8972504 11.4843222,11.0723589 11.4843222,9.99565847 C11.4843222,8.91027496 12.1702846,8.09406657 13.238302,8.09406657 C14.3063194,8.09406657 15.0009648,8.91027496 15.0009648,9.99565847 C15.0009648,11.0723589 14.3063194,11.8972504 13.238302,11.8972504 Z" id="Rectangle-39" sketch:type="MSShapeGroup"></path>
        </g>
    </g>
</svg>