<?xml version="1.0" encoding="UTF-8" standalone="no"?>
<svg width="20px" height="20px" viewBox="0 0 20 20" version="1.1" xmlns="http://www.w3.org/2000/svg" xmlns:xlink="http://www.w3.org/1999/xlink" xmlns:sketch="http://www.bohemiancoding.com/sketch/ns">
    <!-- Generator: Sketch 3.5.1 (25234) - http://www.bohemiancoding.com/sketch -->
    <title>post_icon</title>
    <desc>Created with Sketch.</desc>
    <defs></defs>
    <g id="Page-1" stroke="none" stroke-width="1" fill="none" fill-rule="evenodd" sketch:type="MSPage">
        <g id="post_icon" sketch:type="MSArtboardGroup" fill="#3E6274">
            <path d="M15.0046948,4.97652582 L15.0046948,3.00469484 L5.00469484,3.00469484 L5.00469484,4.97652582 L15.0046948,4.97652582 Z M11.0140845,17.0046948 L11.0140845,14.9859155 L5.00469484,14.9859155 L5.00469484,17.0046948 L11.0140845,17.0046948 Z M15.0046948,9.01408451 L15.0046948,6.99530516 L5.00469484,6.99530516 L5.00469484,9.01408451 L15.0046948,9.01408451 Z M16.0293255,0 C16.5610968,0 17.0224824,0.244378651 17.4134912,0.733135953 C17.8044971,1.22189701 18,1.79862897 18,2.46334311 L18,17.4780059 C18,18.14272 17.8044971,18.7292265 17.4134912,19.2375367 C17.0224824,19.7458468 16.5610968,20 16.0293255,20 L4.01759531,20 C3.485824,20 3.01661879,19.7458468 2.60997067,19.2375367 C2.20332256,18.7292265 2,18.14272 2,17.4780059 L2,2.46334311 C2,1.79862897 2.20332256,1.22189701 2.60997067,0.733135953 C3.01661879,0.244378651 3.485824,0 4.01759531,0 L16.0293255,0 Z M15.0046948,13.0140845 L15.0046948,10.9953052 L5.00469484,10.9953052 L5.00469484,13.0140845 L15.0046948,13.0140845 Z" id="Page-1" sketch:type="MSShapeGroup"></path>
        </g>
    </g>
</svg>