<svg xmlns="http://www.w3.org/2000/svg" width="230" height="33" style="background:#fff" viewBox="0 0 230 33"><g fill="none" fill-rule="evenodd"><path fill="#111111" d="M1.75353959,4.58930481 L2.46879916,4.58930481 L2.11886034,2.08877005 L1.75353959,4.58930481 Z M0,6.86898396 L1.49589233,0.131016043 L2.73413739,0.131016043 L4.22618423,6.86898396 L2.84565635,6.86898396 L2.56109072,5.42780749 L1.65740255,5.42780749 L1.38821884,6.86898396 L0,6.86898396 Z M4.58381402,4.76149733 L4.58381402,2.38823529 C4.58381402,0.796070471 5.26445745,0 6.62576473,0 C6.91289545,0 7.16861742,0.0368089011 7.3929383,0.110427807 C7.61725918,0.184046714 7.80504498,0.285739102 7.95630135,0.415508021 C8.10755771,0.545276941 8.2318937,0.704990139 8.32931306,0.894652406 C8.42673241,1.08431467 8.4972322,1.29019497 8.54081454,1.51229947 C8.58439689,1.73440396 8.60618773,1.9789648 8.60618773,2.2459893 L8.60618773,2.64278075 L7.26796015,2.64278075 L7.26796015,2.17112299 C7.26796015,2.05383186 7.26475561,1.95089171 7.25834644,1.86229947 C7.25193727,1.77370722 7.2359146,1.67513423 7.21027792,1.56657754 C7.18464125,1.45802085 7.15003226,1.36880605 7.10644992,1.29893048 C7.06286758,1.22905491 7.00005868,1.17041022 6.91802132,1.12299465 C6.83598397,1.07557909 6.73856608,1.05187166 6.62576473,1.05187166 C6.19763231,1.05187166 5.98356931,1.38377565 5.98356931,2.04759358 L5.98356931,4.95614973 C5.98356931,5.61747211 6.19763231,5.94812834 6.62576473,5.94812834 C7.05133348,5.94812834 7.26411467,5.60499452 7.26411467,4.91871658 L7.26411467,4.37967914 L6.47194546,4.37967914 L6.47194546,3.4026738 L8.66386995,3.4026738 L8.66386995,6.86898396 L7.70249956,6.86898396 L7.52560741,6.3973262 C7.40767872,6.57700625 7.23976104,6.72237021 7.02184933,6.83342246 C6.80393762,6.94447471 6.5796201,7 6.34889005,7 C6.10021434,7 5.8739741,6.95570454 5.67016256,6.8671123 C5.46635102,6.77852006 5.29843334,6.66123068 5.16640447,6.51524064 C5.03437561,6.36925061 4.92349867,6.1976837 4.83377032,6.00053476 C4.74404197,5.80338582 4.67995125,5.60187269 4.64149624,5.3959893 C4.60304123,5.19010592 4.58381402,4.97861071 4.58381402,4.76149733 Z M9.43296626,6.86898396 L9.43296626,0.127272727 L10.4404824,0.127272727 L11.9594476,3.65347594 L11.9594476,0.127272727 L13.1207831,0.127272727 L13.1207831,6.86898396 L12.1517217,6.86898396 L10.636602,3.12941176 L10.636602,6.86898396 L9.43296626,6.86898396 Z M13.8552701,4.61925134 L13.8552701,2.38823529 C13.8552701,0.796070471 14.5243772,0 15.8626114,0 C16.1446148,0 16.3952095,0.0368089011 16.6144031,0.110427807 C16.8335966,0.184046714 17.017537,0.285739102 17.1662297,0.415508021 C17.3149224,0.545276941 17.4373356,0.704990139 17.5334732,0.894652406 C17.6296107,1.08431467 17.6988287,1.29019497 17.7411292,1.51229947 C17.7834297,1.73440396 17.8045796,1.9789648 17.8045796,2.2459893 L17.8045796,2.82620321 L16.4278972,2.82620321 L16.4278972,2.20481283 C16.4278972,2.08253058 16.4253336,1.97709492 16.4202063,1.88850267 C16.4150789,1.79991043 16.4016199,1.69884192 16.3798287,1.58529412 C16.3580375,1.47174631 16.3285558,1.37941212 16.2913826,1.30828877 C16.2542095,1.23716542 16.1990914,1.17664909 16.1260269,1.12673797 C16.0529624,1.07682684 15.9651581,1.05187166 15.8626114,1.05187166 C15.457552,1.05187166 15.2550253,1.38377565 15.2550253,2.04759358 L15.2550253,4.95614973 C15.2550253,5.61747211 15.457552,5.94812834 15.8626114,5.94812834 C15.9831038,5.94812834 16.0843671,5.91443884 16.1664045,5.84705882 C16.2484418,5.77967881 16.3074053,5.68422522 16.3432966,5.56069519 C16.379188,5.43716516 16.4035424,5.3161325 16.4163608,5.19759358 C16.4291791,5.07905467 16.4355882,4.94367278 16.4355882,4.79144385 L16.4355882,4.09893048 L17.8045796,4.09893048 L17.8045796,4.66791444 C17.7994523,4.92495672 17.7776614,5.162031 17.7392064,5.37914439 C17.7007514,5.59625777 17.6353789,5.8071291 17.5430869,6.01176471 C17.4507949,6.21640031 17.3335088,6.38921498 17.1912253,6.5302139 C17.0489418,6.67121283 16.8650014,6.78475893 16.6393987,6.87085561 C16.413796,6.9569523 16.1548695,7 15.8626114,7 C15.5626624,7 15.2966859,6.95820006 15.064674,6.87459893 C14.8326621,6.7909978 14.6416718,6.67869946 14.4916973,6.53770053 C14.3417227,6.39670161 14.2180276,6.22326306 14.1206083,6.01737968 C14.0231889,5.8114963 13.9546119,5.59501005 13.914875,5.36791444 C13.8751382,5.14081883 13.8552701,4.89126696 13.8552701,4.61925134 Z M19.3427722,6.86898396 L19.3427722,4.64171123 L18.0429995,0.131016043 L19.3619997,0.131016043 L20.0080406,3.09197861 C20.0875142,2.76755631 20.206723,2.27406748 20.3656703,1.61149733 C20.5246177,0.948927168 20.6425446,0.455438342 20.7194546,0.131016043 L22,0.131016043 L20.6963818,4.64171123 L20.6963818,6.86898396 L19.3427722,6.86898396 Z" transform="translate(14 13)"/><path fill="#000000" d="M206,14 L213,14 L213,14.8398438 L206,14.8398438 L206,14 Z M206,16.9101562 L206,16.0898437 L213,16.0898437 L213,16.9101562 L206,16.9101562 Z M206,19 L206,18.1601562 L213,18.1601562 L213,19 L206,19 Z"/></g></svg>