<svg xmlns="http://www.w3.org/2000/svg" width="12" height="7" viewBox="0 0 12 7"><path fill="#000000" fill-rule="evenodd" d="M0,3.49999994 C0,3.64438014 0.0464069301,3.76297618 0.13922277,3.855794 C0.232038611,3.94860984 0.350635639,3.99501578 0.495015835,3.99501578 L10.2975672,3.99501578 L8.1937494,6.12977218 C7.9462395,6.35665535 7.94108405,6.58869198 8.1782791,6.82588802 C8.41547712,7.06308405 8.64751276,7.05792762 8.87439592,6.81041871 L11.8444909,3.8403237 C11.9063682,3.79907321 11.9476187,3.74750786 11.9682454,3.68563162 C11.9888711,3.6237544 11.999184,3.56187717 11.999184,3.49999994 C11.999184,3.43812371 11.9888711,3.37624648 11.9682454,3.31436925 C11.9476187,3.25249202 11.9063682,3.20092767 11.8444909,3.15967717 L8.87439592,0.189582165 C8.64751276,-0.0579277327 8.41547712,-0.0630841683 8.1782791,0.174111868 C7.94108405,0.411309885 7.9462395,0.643345525 8.1937494,0.87022869 L10.2975672,3.00498411 L0.495015835,3.00498411 C0.350635639,3.00498411 0.232038611,3.05139104 0.13922277,3.14420688 C0.0464069301,3.23702371 0,3.35561975 0,3.49999994 Z"/></svg>