<svg xmlns="http://www.w3.org/2000/svg" width="24" height="24" viewBox="0 0 24 24"><path fill="#000000" fill-rule="evenodd" d="M11.1394241,11.4807685 C11.1394241,11.8269228 11.2932669,12.1658629 11.6009622,12.497595 C11.9086574,12.8293272 12.2812491,13.1562488 12.7187502,13.4783662 C13.1562513,13.8004803 13.5913455,14.1538425 14.0240392,14.5384624 C14.4567329,14.923079 14.826921,15.4230729 15.1346162,16.0384602 C15.4423114,16.6538474 15.5961542,17.3365348 15.5961542,18.0865386 C15.5961542,18.951926 15.3653868,19.7836488 14.9038456,20.5817296 C14.2115369,21.7548133 13.1971238,22.6177857 11.8605771,23.1706731 C10.5240336,23.7235604 9.09135539,24 7.56250038,24 C6.29326354,24 5.10817854,23.8004828 4.0072118,23.4014421 C2.90624474,23.0024017 2.08173365,22.3413508 1.53365397,21.4182692 C1.17788284,20.841343 1,20.2115416 1,19.5288445 C1,18.7499965 1.21394019,18.02885 1.64182691,17.3653856 C2.06971389,16.701918 2.63941969,16.1490397 3.35096177,15.7067312 C4.6105819,14.9182652 6.55287201,14.4375008 9.17788509,14.2644221 C8.87018984,13.8605759 8.64182936,13.50481 8.49278751,13.1971148 C8.34374889,12.8894195 8.26923119,12.5384643 8.26923119,12.1442296 C8.26923119,11.7980753 8.37019273,11.389425 8.57211582,10.9182689 C8.12980733,10.9567312 7.80288578,10.9759608 7.59134792,10.9759608 C6.16826184,10.9759608 4.96875469,10.5120223 3.99278868,9.5841324 C3.01682202,8.65624573 2.52884629,7.48077551 2.52884629,6.05769266 C2.52884629,5.26922661 2.70192151,4.50481041 3.04807713,3.76442145 C3.39423275,3.02403248 3.87018938,2.39423275 4.4759622,1.87499965 C5.21635117,1.24037961 6.09374414,0.769230044 7.10817343,0.461538027 C8.12260272,0.153842778 9.16826386,0 10.2451924,0 L16.2740407,0 L14.2836542,1.26923038 L12.3942323,1.26923038 C13.1057738,1.87500288 13.64423,2.51441738 14.0096171,3.18749972 C14.3750042,3.86057884 14.5576945,4.62980242 14.5576945,5.49518986 C14.5576945,6.18750174 14.4399071,6.81009362 14.2043291,7.36297842 C13.9687511,7.91586646 13.6850992,8.3629791 13.353367,8.70432604 C13.0216348,9.04567298 12.6875022,9.35817239 12.3509627,9.64182748 C12.0144231,9.92548257 11.7283675,10.2211529 11.4927895,10.5288449 C11.2572115,10.8365402 11.1394241,11.1538437 11.1394241,11.4807685 Z M9.03365385,10.0961544 C9.39904095,10.0961544 9.77403635,10.0168261 10.158653,9.85817272 C10.5432729,9.6995161 10.8605764,9.49038516 11.1105766,9.23076699 C11.6201949,8.68268958 11.8749992,7.91827338 11.8749992,6.93749902 C11.8749992,6.3798036 11.7932705,5.77884818 11.6298097,5.13461337 C11.4663457,4.4903818 11.2331746,3.86778992 10.93029,3.2668248 C10.6274021,2.66585969 10.2211555,2.16826951 9.71154035,1.7740381 C9.20192201,1.37980346 8.63942567,1.18269099 8.02403841,1.18269099 C7.62019223,1.18269099 7.22356036,1.27644146 6.83413634,1.46394239 C6.44470908,1.65144333 6.12980922,1.90384396 5.88942382,2.22115397 C5.43749733,2.78846416 5.21153732,3.55768774 5.21153732,4.52884411 C5.21153732,4.97115583 5.2596144,5.4399017 5.35576856,5.93509465 C5.45192272,6.43029083 5.60336503,6.92547732 5.81009551,7.42067351 C6.01682921,7.91586646 6.26682615,8.36057541 6.56009601,8.75480681 C6.85336588,9.14903822 7.21393913,9.47115239 7.64182869,9.72115256 C8.06971502,9.97115273 8.53365028,10.0961544 9.03365385,10.0961544 Z M9.06250139,22.6874999 C9.62019681,22.6874999 10.1562493,22.6250007 10.670675,22.5 C11.1851007,22.3749992 11.6610577,22.1875012 12.0985588,21.9374997 C12.5360599,21.6874986 12.8870184,21.3365404 13.1514439,20.8846153 C13.4158663,20.432691 13.548079,19.908657 13.548079,19.3124993 C13.548079,19.0721139 13.5144241,18.8365391 13.4471175,18.6057685 C13.3798076,18.3749978 13.3100973,18.173078 13.2379801,17.9999992 C13.1658661,17.8269204 13.0360602,17.6274042 12.8485593,17.401441 C12.6610584,17.1754778 12.5192308,17.0072128 12.4230767,16.8966333 C12.3269225,16.786057 12.1418285,16.6201925 11.8677882,16.3990366 C11.5937478,16.177884 11.4182718,16.0384602 11.3413472,15.9807683 C11.2644226,15.9230765 11.0649064,15.7788452 10.742789,15.5480778 C10.4206716,15.3173072 10.2451924,15.1923087 10.2163481,15.173076 C10.0624988,15.1538464 9.83173143,15.1442316 9.52403941,15.1442316 C9.01442108,15.1442316 8.50961982,15.1778833 8.00961625,15.2451932 C7.50961268,15.3124998 6.99279296,15.4326909 6.45913447,15.6057697 C5.92547921,15.7788452 5.45913703,15.9999978 5.060095,16.2692308 C4.66105621,16.5384637 4.33173096,16.8966333 4.0721157,17.3437492 C3.81249882,17.7908683 3.68269232,18.2980732 3.68269232,18.8653834 C3.68269232,19.5384657 3.85096016,20.1322101 4.18750005,20.6466358 C4.52403928,21.1610602 4.96394084,21.5600945 5.50721088,21.8437499 C6.05048414,22.127405 6.62259202,22.3389416 7.22355713,22.4783654 C7.82452224,22.617789 8.43749612,22.6874999 9.06250139,22.6874999 Z M20.745193,10.0528847 L23.817309,10.0528847 L23.817309,11.6105776 L20.745193,11.6105776 L20.745193,14.7692298 L19.2307698,14.7692298 L19.2307698,11.6105776 L16.1730792,11.6105776 L16.1730792,10.0528847 L19.2307698,10.0528847 L19.2307698,6.92307686 L20.745193,6.92307686 L20.745193,10.0528847 Z"/></svg>