<svg xmlns="http://www.w3.org/2000/svg" width="64" height="64" viewBox="0 0 64 64"><path fill="#000000" d="M15.283,29.305 L14,37 L31.181,37 L31.181,64 L33.181,64 L33.181,37 L50.362,37 L49.079,29.305 L40.108,25.318 L38.239,9.435 L43.181,5.48 L43.181,0 L32.181,0 L21.181,0 L21.181,5.48 L26.123,9.434 L24.254,25.317 L15.283,29.305 Z M28.239,8.565 L23.181,4.52 L23.181,2 L32.181,2 L41.181,2 L41.181,4.52 L36.123,8.566 L38.254,26.683 L47.283,30.696 L48,35 L32.181,35 L16.362,35 L17.079,30.695 L26.108,26.682 L28.239,8.565 Z"/></svg>