<svg xmlns="http://www.w3.org/2000/svg" width="24" height="24" viewBox="0 0 24 24"><path fill="#000000" fill-rule="evenodd" d="M24,12.0000017 C24,14.1770927 23.463548,16.1848852 22.390623,18.0234386 C21.3177016,19.8619886 19.8619886,21.317703 18.0234386,22.3906251 C16.1848852,23.463547 14.1770927,24 11.9999983,24 C10.8437453,24 9.7083383,23.833335 8.59374932,23.5000002 C9.20833531,22.5312453 9.6145838,21.6770871 9.8124983,20.9375001 C9.90624929,20.5833316 10.1874988,19.4843841 10.6562503,17.6406261 C10.8645843,18.0468781 11.2447893,18.3984356 11.7968758,18.6953126 C12.3489622,18.9921896 12.9427057,19.1406246 13.5781237,19.1406246 C14.8385472,19.1406246 15.9635347,18.7838591 16.9531246,18.0703141 C17.9427146,17.3567691 18.7083291,16.3750052 19.2499996,15.1250012 C19.7916701,13.8749937 20.0625001,12.4687567 20.0625001,10.9062518 C20.0625001,9.7187438 19.7526066,8.60417232 19.1328126,7.56249884 C18.5130186,6.52082886 17.6145896,5.67187938 16.4375012,5.0156259 C15.2604092,4.35937241 13.9322992,4.03125092 12.4531257,4.03125092 C11.3593688,4.03125092 10.3385448,4.18228991 9.3906258,4.48437491 C8.44270332,4.7864599 7.63802534,5.18749689 6.97656385,5.68749988 C6.31510237,6.18750287 5.74739888,6.76301836 5.27343589,7.41406385 C4.7994764,8.06510933 4.45052291,8.73958032 4.22656141,9.4375013 C4.00260342,10.1354188 3.89062442,10.8333293 3.89062442,11.5312503 C3.89062442,12.6145877 4.09895491,13.5677042 4.51562641,14.3906242 C4.9322944,15.2135477 5.54166188,15.7916637 6.34374987,16.1250002 C6.65625086,16.2499992 6.85416536,16.1458357 6.93750036,15.8124992 C6.95833236,15.7395837 6.99999985,15.5781252 7.06249935,15.3281237 C7.12499885,15.0781222 7.16666635,14.9218752 7.18749835,14.8593757 C7.25000135,14.6197902 7.19270985,14.3958357 7.01562385,14.1875017 C6.48437286,13.5520802 6.21875087,12.7656302 6.21875087,11.8281238 C6.21875087,10.2551993 6.76301486,8.90365331 7.85156384,7.77343684 C8.94010931,6.64322386 10.3645743,6.07812437 12.1250007,6.07812437 C13.6979252,6.07812437 14.9244757,6.50520486 15.8046872,7.35937635 C16.6848987,8.21354783 17.1249991,9.32291131 17.1249991,10.6875018 C17.1249991,12.4583407 16.7682337,13.9635367 16.0546887,15.2031247 C15.3411437,16.4427162 14.4270872,17.0624996 13.3124982,17.0624996 C12.6770802,17.0624996 12.1666682,16.8359411 11.7812483,16.3828137 C11.3958318,15.9296862 11.2760408,15.3854187 11.4218753,14.7500007 C11.5052068,14.3854162 11.6432293,13.8984402 11.8359358,13.2890622 C12.0286457,12.6796842 12.1848962,12.1432322 12.3046872,11.6796888 C12.4244782,11.2161453 12.4843737,10.8229203 12.4843737,10.4999998 C12.4843737,9.97916479 12.3437507,9.5468763 12.0625012,9.20312381 C11.7812483,8.85937482 11.3802113,8.68750032 10.8593763,8.68750032 C10.2135388,8.68750032 9.6666673,8.98437381 9.21875131,9.5781243 C8.77083182,10.1718783 8.54687382,10.9114528 8.54687382,11.7968758 C8.54687382,12.5572962 8.67708082,13.1927072 8.93749831,13.7031262 L7.39062435,20.2343746 C7.21354185,20.9635453 7.14583435,21.885411 7.18749835,23 C5.04165539,22.0520785 3.30729833,20.5885515 1.98437501,18.6093736 C0.661451686,16.6301972 0,14.4270942 0,12.0000017 C0,9.8229073 0.536453039,7.81511484 1.60937487,5.97656138 C2.68229704,4.13801141 4.13801141,2.68229844 5.97656138,1.60937697 C7.81511484,0.536451989 9.8229073,0 11.9999983,0 C14.1770927,0 16.1848852,0.536451989 18.0234386,1.60937697 C19.8619886,2.68229844 21.3177016,4.13801141 22.390623,5.97656138 C23.463548,7.81511484 24,9.8229073 24,12.0000017 Z"/></svg>