<?xml version="1.0" encoding="UTF-8" standalone="no"?>
<svg width="20px" height="20px" viewBox="0 0 20 20" version="1.1" xmlns="http://www.w3.org/2000/svg" xmlns:xlink="http://www.w3.org/1999/xlink" xmlns:sketch="http://www.bohemiancoding.com/sketch/ns">
    <!-- Generator: Sketch 3.5.1 (25234) - http://www.bohemiancoding.com/sketch -->
    <title>progress_icon</title>
    <desc>Created with Sketch.</desc>
    <defs></defs>
    <g id="Page-1" stroke="none" stroke-width="1" fill="none" fill-rule="evenodd" sketch:type="MSPage">
        <g id="progress_icon" sketch:type="MSArtboardGroup" fill="#3E6274">
            <path d="M15.5729167,15.5729167 L15.5729167,11.09375 L13.3333333,11.09375 L13.3333333,15.5729167 L15.5729167,15.5729167 Z M11.09375,15.5729167 L11.09375,4.42708333 L8.90625,4.42708333 L8.90625,15.5729167 L11.09375,15.5729167 Z M6.66666667,15.5729167 L6.66666667,7.76041667 L4.42708333,7.76041667 L4.42708333,15.5729167 L6.66666667,15.5729167 Z M17.7604167,0 C18.3506967,0 18.8715267,0.225693333 19.3229167,0.677083333 C19.7743067,1.12847333 20,1.64930333 20,2.23958333 L20,17.7604167 C20,18.3506973 19.7743067,18.8715257 19.3229167,19.3229167 C18.8715267,19.7743078 18.3506967,20 17.7604167,20 L2.23958333,20 C1.64930267,20 1.12847433,19.7743078 0.677083333,19.3229167 C0.2256922,18.8715257 0,18.3506973 0,17.7604167 L0,2.23958333 C0,1.64930333 0.2256922,1.12847333 0.677083333,0.677083333 C1.12847433,0.225693333 1.64930267,0 2.23958333,0 L17.7604167,0 Z" id="Page-1" sketch:type="MSShapeGroup"></path>
        </g>
    </g>
</svg>