<svg xmlns="http://www.w3.org/2000/svg" width="230" height="69" style="background:#fff" viewBox="0 0 230 69"><path fill="#111111" fill-rule="evenodd" d="M89.696,39.192 C89.0239966,39.192 88.4186694,39.0800011 87.88,38.856 C87.3413306,38.6319989 86.8986684,38.3333352 86.552,37.96 C86.2053316,37.5866648 85.9146678,37.1440026 85.68,36.632 C85.4453322,36.1199974 85.2800005,35.597336 85.184,35.064 C85.0879995,34.530664 85.04,33.9760029 85.04,33.4 C85.04,32.7173299 85.1253325,32.0506699 85.296,31.4 C85.4666675,30.7493301 85.7253316,30.1333362 86.072,29.552 C86.4186684,28.9706638 86.9039969,28.5013351 87.528,28.144 C88.1520031,27.7866649 88.8746626,27.608 89.696,27.608 C90.6773382,27.608 91.4933301,27.8239978 92.144,28.256 C92.7946699,28.6880022 93.2479987,29.2133302 93.504,29.832 L91.984,30.536 C91.6959986,30.077331 91.3786684,29.7413344 91.032,29.528 C90.6853316,29.3146656 90.2400027,29.208 89.696,29.208 C89.162664,29.208 88.6986686,29.3359987 88.304,29.592 C87.9093314,29.8480013 87.6053344,30.1893312 87.392,30.616 C87.1786656,31.0426688 87.0213338,31.4879977 86.92,31.952 C86.8186662,32.4160023 86.768,32.8986642 86.768,33.4 C86.768,34.5093389 87.0186642,35.4853291 87.52,36.328 C88.0213358,37.1706709 88.7466619,37.592 89.696,37.592 C90.6346714,37.592 91.3919971,37.1120048 91.968,36.152 L93.52,36.744 C92.8159965,38.3760082 91.5413426,39.192 89.696,39.192 Z M98.928,39.192 C97.7759942,39.192 96.86667,38.8133371 96.2,38.056 C95.53333,37.2986629 95.2,36.25334 95.2,34.92 C95.2,33.58666 95.53333,32.5386705 96.2,31.776 C96.86667,31.0133295 97.7759942,30.632 98.928,30.632 C100.080006,30.632 100.991997,31.0133295 101.664,31.776 C102.336003,32.5386705 102.672,33.58666 102.672,34.92 C102.672,36.25334 102.336003,37.2986629 101.664,38.056 C100.991997,38.8133371 100.080006,39.192 98.928,39.192 Z M98.928,37.624 C99.5680032,37.624 100.074665,37.3840024 100.448,36.904 C100.821335,36.4239976 101.008,35.7626709 101.008,34.92 C101.008,34.0773291 100.821335,33.4133358 100.448,32.928 C100.074665,32.4426642 99.5680032,32.2 98.928,32.2 C98.2986635,32.2 97.7973352,32.4426642 97.424,32.928 C97.0506648,33.4133358 96.864,34.0773291 96.864,34.92 C96.864,35.7520042 97.0506648,36.4106642 97.424,36.896 C97.7973352,37.3813358 98.2986635,37.624 98.928,37.624 Z M104.752,39 L104.752,28.232 L106.416,27.448 L106.416,39 L104.752,39 Z M113.872,39 L113.872,38.216 C113.359997,38.8666699 112.656004,39.192 111.76,39.192 C109.797324,39.192 108.816,38.029345 108.816,35.704 L108.816,30.824 L110.48,30.824 L110.48,35.704 C110.48,36.3546699 110.629332,36.8373318 110.928,37.152 C111.226668,37.4666682 111.621331,37.624 112.112,37.624 C113.285339,37.624 113.872,36.994673 113.872,35.736 L113.872,30.824 L115.536,30.824 L115.536,39 L113.872,39 Z M127.536,39 L127.536,34.104 C127.536,32.8346603 127.034672,32.2 126.032,32.2 C125.562664,32.2 125.173335,32.3733316 124.864,32.72 C124.554665,33.0666684 124.4,33.5546635 124.4,34.184 L124.4,39 L122.736,39 L122.736,34.104 C122.736,32.8346603 122.234672,32.2 121.232,32.2 C120.762664,32.2 120.373335,32.3733316 120.064,32.72 C119.754665,33.0666684 119.6,33.5546635 119.6,34.184 L119.6,39 L117.936,39 L117.936,30.824 L119.6,30.824 L119.6,31.576 C120.037336,30.9466635 120.725329,30.632 121.664,30.632 C122.677338,30.632 123.402664,31.0213294 123.84,31.8 C124.341336,31.0213294 125.146661,30.632 126.256,30.632 C127.141338,30.632 127.853331,30.8879974 128.392,31.4 C128.930669,31.9120026 129.2,32.6853282 129.2,33.72 L129.2,39 L127.536,39 Z M136.576,39 L136.576,34.12 C136.576,33.4693301 136.426668,32.9866682 136.128,32.672 C135.829332,32.3573318 135.434669,32.2 134.944,32.2 C133.770661,32.2 133.184,32.829327 133.184,34.088 L133.184,39 L131.52,39 L131.52,30.824 L133.184,30.824 L133.184,31.608 C133.696003,30.9573301 134.399996,30.632 135.296,30.632 C137.258676,30.632 138.24,31.794655 138.24,34.12 L138.24,39 L136.576,39 Z M143.088,39.192 C142.447997,39.192 141.845336,39.0720012 141.28,38.832 C140.714664,38.5919988 140.288001,38.2693354 140,37.864 L141.184,36.856 C141.77067,37.4106694 142.394663,37.688 143.056,37.688 C144.016005,37.688 144.496,37.3946696 144.496,36.808 C144.496,36.6053323 144.405334,36.4186675 144.224,36.248 C144.042666,36.0773325 143.861334,35.9520004 143.68,35.872 C143.498666,35.7919996 143.205335,35.6720008 142.8,35.512 C141.903996,35.2133318 141.245335,34.8613354 140.824,34.456 C140.402665,34.0506646 140.192,33.5280032 140.192,32.888 C140.192,32.1839965 140.461331,31.632002 141,31.232 C141.538669,30.831998 142.218663,30.632 143.04,30.632 C144.266673,30.632 145.22133,31.0426626 145.904,31.864 L144.704,32.824 C144.266664,32.365331 143.712003,32.136 143.04,32.136 C142.687998,32.136 142.408001,32.202666 142.2,32.336 C141.991999,32.469334 141.888,32.6533322 141.888,32.888 C141.888,33.1333346 142.013332,33.3333326 142.264,33.488 C142.514668,33.6426674 142.917331,33.8266656 143.472,34.04 C144.400005,34.3493349 145.079998,34.7119979 145.512,35.128 C145.944002,35.5440021 146.16,36.1039965 146.16,36.808 C146.16,37.5760038 145.885336,38.1653313 145.336,38.576 C144.786664,38.9866687 144.037338,39.192 143.088,39.192 Z"/></svg>