<svg xmlns="http://www.w3.org/2000/svg" width="230" height="69" style="background:#fff" viewBox="0 0 230 69"><g fill="none" fill-rule="evenodd"><path fill="#4D4C4C" d="M95.0424568,19.1390135 L95.0424568,17.7757848 L93.6566657,17.7757848 L93.6566657,19.1390135 L93.1132182,19.1390135 L93.1132182,16 L93.6566657,16 L93.6566657,17.2690583 L95.0424568,17.2690583 L95.0424568,16 L95.5813756,16 L95.5813756,19.1390135 L95.0424568,19.1390135 Z M97.2524766,19.1928251 C96.9264065,19.1928251 96.6682715,19.0866976 96.478064,18.8744395 C96.2878564,18.6621813 96.192754,18.3692096 96.192754,17.9955157 C96.192754,17.6218217 96.2878564,17.3281027 96.478064,17.1143498 C96.6682715,16.9005968 96.9264065,16.793722 97.2524766,16.793722 C97.5785468,16.793722 97.8374365,16.9005968 98.0291537,17.1143498 C98.2208709,17.3281027 98.316728,17.6218217 98.316728,17.9955157 C98.316728,18.3692096 98.2216256,18.6621813 98.0314181,18.8744395 C97.8412105,19.0866976 97.5815659,19.1928251 97.2524766,19.1928251 Z M97.2524766,18.690583 C97.4185309,18.690583 97.5491079,18.6292981 97.6442117,18.5067265 C97.7393155,18.3841548 97.7868667,18.213753 97.7868667,17.9955157 C97.7868667,17.7772784 97.7393155,17.6053818 97.6442117,17.4798206 C97.5491079,17.3542595 97.4185309,17.2914798 97.2524766,17.2914798 C97.0924608,17.2914798 96.964148,17.3550068 96.8675347,17.4820628 C96.7709213,17.6091187 96.7226153,17.780268 96.7226153,17.9955157 C96.7226153,18.2107634 96.7701665,18.3804179 96.8652703,18.5044843 C96.9603741,18.6285507 97.0894416,18.690583 97.2524766,18.690583 Z M101.600057,19.1390135 L101.600057,17.8251121 C101.600057,17.4693555 101.468725,17.2914798 101.206057,17.2914798 C101.070195,17.2914798 100.963771,17.3370698 100.886782,17.4282511 C100.809793,17.5194324 100.771299,17.6547076 100.771299,17.8340807 L100.771299,19.1390135 L100.241438,19.1390135 L100.241438,17.8251121 C100.241438,17.4693555 100.110106,17.2914798 99.8474384,17.2914798 C99.7115759,17.2914798 99.6051518,17.3370698 99.528163,17.4282511 C99.4511743,17.5194324 99.4126804,17.6547076 99.4126804,17.8340807 L99.4126804,19.1390135 L98.8828191,19.1390135 L98.8828191,16.8475336 L99.4126804,16.8475336 L99.4126804,17.058296 C99.5455238,16.8819124 99.734219,16.793722 99.9787716,16.793722 C100.262573,16.793722 100.464855,16.9013442 100.585621,17.1165919 C100.733561,16.9013442 100.966033,16.793722 101.283046,16.793722 C101.542694,16.793722 101.748749,16.8647228 101.901217,17.0067265 C102.053685,17.1487302 102.129918,17.3721958 102.129918,17.67713 L102.129918,19.1390135 L101.600057,19.1390135 Z M103.742145,19.1928251 C103.413056,19.1928251 103.152657,19.0859502 102.96094,18.8721973 C102.769223,18.6584444 102.673365,18.3647253 102.673365,17.9910314 C102.673365,17.620327 102.769977,17.3281027 102.963204,17.1143498 C103.156431,16.9005968 103.416075,16.793722 103.742145,16.793722 C104.038024,16.793722 104.280309,16.8849019 104.469007,17.0672646 C104.657705,17.2496272 104.752052,17.5171881 104.752052,17.8699552 C104.752052,17.9925268 104.746014,18.100149 104.733937,18.1928251 L103.198698,18.1928251 C103.207755,18.3542609 103.264364,18.4843044 103.368525,18.5829596 C103.472687,18.6816148 103.597225,18.7309417 103.742145,18.7309417 C103.947449,18.7309417 104.110482,18.6517198 104.231248,18.4932735 L104.566374,18.8340807 C104.36409,19.0732448 104.08935,19.1928251 103.742145,19.1928251 Z M103.203227,17.7578475 L104.22672,17.7578475 C104.214643,17.5934222 104.163318,17.4686103 104.072743,17.3834081 C103.982168,17.2982059 103.87197,17.2556054 103.742145,17.2556054 C103.591187,17.2556054 103.466648,17.2967111 103.368525,17.3789238 C103.270402,17.4611364 103.215303,17.5874431 103.203227,17.7578475 Z M93.2037928,28.1076233 L93.2037928,24.9686099 L94.3631475,24.9686099 C94.7133709,24.9686099 94.967732,25.0575477 95.1262383,25.235426 C95.2847446,25.4133043 95.3639966,25.6322857 95.3639966,25.8923767 C95.3639966,26.1345304 95.2809707,26.3482801 95.1149165,26.5336323 C94.9488623,26.7189845 94.6982751,26.8116592 94.3631475,26.8116592 L93.5208038,26.8116592 L93.5208038,28.1076233 L93.2037928,28.1076233 Z M94.3903198,26.529148 C94.6197766,26.529148 94.7888475,26.4663683 94.8975375,26.3408072 C95.0062275,26.215246 95.0605718,26.0657707 95.0605718,25.8923767 C95.0605718,25.7219722 95.0084919,25.5724969 94.9043306,25.4439462 C94.8001693,25.3153955 94.6288341,25.2511211 94.3903198,25.2511211 L93.5208038,25.2511211 L93.5208038,26.529148 L94.3903198,26.529148 Z M95.975375,28.1076233 L95.975375,25.8161435 L96.2923861,25.8161435 L96.2923861,26.1390135 C96.4101336,25.8878911 96.604867,25.7623318 96.8765921,25.7623318 C97.0064163,25.7623318 97.1151048,25.7937217 97.2026606,25.8565022 L97.1528446,26.161435 C97.0592504,26.1046335 96.9596194,26.0762332 96.8539485,26.0762332 C96.7120476,26.0762332 96.5829801,26.1352759 96.4667421,26.2533632 C96.3505042,26.3714505 96.2923861,26.5575473 96.2923861,26.8116592 L96.2923861,28.1076233 L95.975375,28.1076233 Z M98.534107,28.161435 C98.2321902,28.161435 97.9914152,28.0560549 97.8117747,27.8452915 C97.6321342,27.6345281 97.5423153,27.3408091 97.5423153,26.9641256 C97.5423153,26.5904316 97.632889,26.2967126 97.8140391,26.0829596 C97.9951891,25.8692067 98.2352094,25.7623318 98.534107,25.7623318 C98.8360238,25.7623318 99.0767988,25.867712 99.2564393,26.0784753 C99.4360798,26.2892387 99.5258987,26.5829578 99.5258987,26.9596413 C99.5258987,27.3333352 99.435325,27.6270542 99.2541749,27.8408072 C99.0730249,28.0545601 98.8330046,28.161435 98.534107,28.161435 Z M98.534107,27.8789238 C98.7424296,27.8789238 98.9047074,27.7974597 99.0209454,27.6345291 C99.1371833,27.4715986 99.1953014,27.2466382 99.1953014,26.9596413 C99.1953014,26.6726443 99.1386929,26.4484313 99.0254741,26.2869955 C98.9122553,26.1255597 98.7484679,26.044843 98.534107,26.044843 C98.3197461,26.044843 98.1559587,26.1233176 98.0427399,26.2802691 C97.9295211,26.4372205 97.8729125,26.6651704 97.8729125,26.9641256 C97.8729125,27.2511225 97.9295211,27.4753355 98.0427399,27.6367713 C98.1559587,27.7982071 98.3197461,27.8789238 98.534107,27.8789238 Z M100.350127,25.3452915 C100.292763,25.3452915 100.243702,25.3258597 100.202944,25.2869955 C100.162185,25.2481313 100.141806,25.1988045 100.141806,25.1390135 C100.141806,25.0792224 100.162185,25.0284008 100.202944,24.9865471 C100.243702,24.9446934 100.292763,24.9237668 100.350127,24.9237668 C100.410511,24.9237668 100.460326,24.9446934 100.499575,24.9865471 C100.538825,25.0284008 100.558449,25.0792224 100.558449,25.1390135 C100.558449,25.1988045 100.538825,25.2481313 100.499575,25.2869955 C100.460326,25.3258597 100.410511,25.3452915 100.350127,25.3452915 Z M99.7840362,29.0627803 L99.6391169,28.8161435 C100.007455,28.7832584 100.191622,28.6367726 100.191622,28.3766816 L100.191622,25.8161435 L100.508633,25.8161435 L100.508633,28.2511211 C100.508633,28.4603897 100.466365,28.6307916 100.381828,28.7623318 C100.258043,28.947684 100.058781,29.0478325 99.7840362,29.0627803 Z M102.170676,28.161435 C101.86876,28.161435 101.62572,28.0448442 101.441551,27.8116592 C101.257382,27.5784742 101.165299,27.294471 101.165299,26.9596413 C101.165299,26.5859473 101.257382,26.2929757 101.441551,26.0807175 C101.62572,25.8684593 101.86876,25.7623318 102.170676,25.7623318 C102.436363,25.7623318 102.65525,25.8557539 102.827342,26.0426009 C102.999435,26.2294479 103.08548,26.5052299 103.08548,26.8699552 C103.08548,26.950673 103.082461,27.023916 103.076422,27.0896861 L101.500425,27.0896861 C101.527597,27.3288502 101.600056,27.5186839 101.717804,27.6591928 C101.835551,27.7997017 101.991036,27.8699552 102.184263,27.8699552 C102.368432,27.8699552 102.542031,27.810165 102.705067,27.690583 L102.877158,27.9013453 C102.665816,28.0747393 102.430325,28.161435 102.170676,28.161435 Z M101.491367,26.8071749 L102.76394,26.8071749 C102.760921,26.5291466 102.699784,26.3325865 102.580526,26.2174888 C102.461269,26.1023911 102.324654,26.044843 102.170676,26.044843 C101.97745,26.044843 101.818946,26.1091174 101.69516,26.2376682 C101.571374,26.3662189 101.503444,26.5560526 101.491367,26.8071749 Z M104.4758,28.161435 C104.195017,28.161435 103.972357,28.0560549 103.807812,27.8452915 C103.643267,27.6345281 103.560996,27.3408091 103.560996,26.9641256 C103.560996,26.5874421 103.645532,26.2929757 103.814605,26.0807175 C103.983679,25.8684593 104.216151,25.7623318 104.512029,25.7623318 C104.684122,25.7623318 104.835078,25.8041849 104.964902,25.8878924 C105.094727,25.9715998 105.191338,26.0896853 105.254741,26.2421525 L104.964902,26.3542601 C104.880366,26.147981 104.724881,26.044843 104.498443,26.044843 C104.093875,26.044843 103.891594,26.3512675 103.891594,26.9641256 C103.891594,27.5739941 104.090856,27.8789238 104.489386,27.8789238 C104.613172,27.8789238 104.719596,27.8475339 104.808661,27.7847534 C104.897727,27.7219728 104.961883,27.6367718 105.001132,27.529148 L105.286442,27.6367713 C105.232097,27.7982071 105.132466,27.9260085 104.987546,28.0201794 C104.842626,28.1143502 104.672046,28.161435 104.4758,28.161435 Z M106.477498,28.161435 C106.172562,28.161435 106.020096,27.9865488 106.020096,27.6367713 L106.020096,26.0986547 L105.626097,26.0986547 L105.626097,25.8161435 L106.020096,25.8161435 L106.020096,25.0269058 L106.337107,24.8699552 L106.337107,25.8161435 L106.925842,25.8161435 L106.925842,26.0986547 L106.337107,26.0986547 L106.337107,27.5022422 C106.337107,27.6188347 106.353712,27.7085199 106.386923,27.7713004 C106.420134,27.834081 106.486555,27.8654709 106.586187,27.8654709 C106.68582,27.8654709 106.802056,27.8206283 106.9349,27.7309417 L106.89867,28.058296 C106.768845,28.1270557 106.628456,28.161435 106.477498,28.161435 Z M108.221059,28.161435 C107.916123,28.161435 107.65044,28.0284019 107.424002,27.7623318 L107.64591,27.5695067 C107.824041,27.7787753 108.024813,27.8834081 108.248231,27.8834081 C108.381074,27.8834081 108.489763,27.8542604 108.574299,27.7959641 C108.658836,27.7376679 108.701104,27.6562038 108.701104,27.5515695 C108.701104,27.4857994 108.686008,27.4267566 108.655817,27.3744395 C108.625625,27.3221223 108.578074,27.2742902 108.513162,27.2309417 C108.44825,27.1875932 108.390131,27.1539613 108.338806,27.1300448 C108.28748,27.1061284 108.21653,27.0762334 108.125955,27.0403587 C108.017265,26.9955155 107.928201,26.9551571 107.85876,26.9192825 C107.789319,26.8834079 107.71837,26.8385653 107.64591,26.7847534 C107.57345,26.7309414 107.519861,26.6674144 107.48514,26.5941704 C107.45042,26.5209264 107.43306,26.4379676 107.43306,26.3452915 C107.43306,26.1718975 107.5025,26.0313907 107.641381,25.9237668 C107.780263,25.816143 107.959901,25.7623318 108.1803,25.7623318 C108.485236,25.7623318 108.735823,25.8789226 108.932069,26.1121076 L108.723748,26.2869955 C108.557693,26.1225702 108.373527,26.0403587 108.171243,26.0403587 C108.038399,26.0403587 107.931975,26.0672643 107.851967,26.1210762 C107.771959,26.1748882 107.731956,26.2481311 107.731956,26.3408072 C107.731956,26.3856504 107.742523,26.4275035 107.763657,26.4663677 C107.784791,26.5052319 107.808944,26.5373691 107.836117,26.5627803 C107.863289,26.5881915 107.905557,26.6165918 107.962921,26.6479821 C108.020285,26.6793724 108.065572,26.7017937 108.098783,26.7152466 C108.131994,26.7286996 108.186338,26.7503735 108.261817,26.7802691 C108.352392,26.8161437 108.423342,26.8452914 108.474667,26.867713 C108.525993,26.8901346 108.59015,26.924514 108.667138,26.970852 C108.744127,27.0171901 108.803,27.0635274 108.843759,27.1098655 C108.884518,27.1562035 108.920747,27.2159937 108.952448,27.2892377 C108.98415,27.3624817 109,27.4439457 109,27.5336323 C109,27.7249636 108.929805,27.8774284 108.789414,27.9910314 C108.649023,28.1046343 108.459573,28.161435 108.221059,28.161435 Z M95.1330314,37.0762332 L94.8431928,36.264574 L93.6068497,36.264574 L93.3305972,37.0762332 L93,37.0762332 L94.1004812,33.9372197 L94.3450326,33.9372197 L95.4545712,37.0762332 L95.1330314,37.0762332 Z M94.7480894,35.9865471 L94.3133314,34.7309417 C94.2650248,34.5964119 94.2348335,34.5022424 94.2227569,34.4484305 L94.186527,34.5650224 C94.1653929,34.6457403 94.1487877,34.7010462 94.136711,34.7309417 L93.701953,35.9865471 L94.7480894,35.9865471 Z M97.0939711,37.1300448 C96.9913194,37.1300448 96.8969718,37.1150973 96.8109256,37.0852018 C96.7248793,37.0553063 96.6599681,37.0254112 96.6161902,36.9955157 C96.5724123,36.9656202 96.5173133,36.9237671 96.4508916,36.8699552 L96.4508916,37.0762332 L96.1338806,37.0762332 L96.1338806,33.9955157 L96.4508916,33.838565 L96.4508916,35.0089686 C96.5263708,34.9252612 96.6199636,34.8579973 96.7316728,34.8071749 C96.843382,34.7563525 96.9550895,34.7309417 97.0667988,34.7309417 C97.359658,34.7309417 97.5921305,34.8370692 97.764223,35.0493274 C97.9363156,35.2615855 98.0223606,35.5545572 98.0223606,35.9282511 C98.0223606,36.3139033 97.9408443,36.6106118 97.7778092,36.8183857 C97.6147742,37.0261595 97.3868304,37.1300448 97.0939711,37.1300448 Z M97.0441551,36.8475336 C97.258516,36.8475336 97.4200391,36.766817 97.5287291,36.6053812 C97.6374192,36.4439454 97.6917634,36.2182376 97.6917634,35.9282511 C97.6917634,35.6322855 97.6374192,35.4058304 97.5287291,35.2488789 C97.4200391,35.0919275 97.258516,35.0134529 97.0441551,35.0134529 C96.9143309,35.0134529 96.7958303,35.0500744 96.6886499,35.1233184 C96.5814694,35.1965624 96.5022174,35.2765317 96.4508916,35.3632287 L96.4508916,36.4887892 C96.5142941,36.5964131 96.6003391,36.6831088 96.7090292,36.7488789 C96.8177192,36.8146491 96.9294267,36.8475336 97.0441551,36.8475336 Z M99.5123125,37.1300448 C99.2103957,37.1300448 98.9696207,37.0246647 98.7899802,36.8139013 C98.6103397,36.603138 98.5205208,36.3094189 98.5205208,35.9327354 C98.5205208,35.5590415 98.6110945,35.2653224 98.7922446,35.0515695 C98.9733946,34.8378166 99.2134149,34.7309417 99.5123125,34.7309417 C99.8142293,34.7309417 100.055004,34.8363218 100.234645,35.0470852 C100.414285,35.2578486 100.504104,35.5515676 100.504104,35.9282511 C100.504104,36.3019451 100.41353,36.5956641 100.23238,36.809417 C100.05123,37.02317 99.8112101,37.1300448 99.5123125,37.1300448 Z M99.5123125,36.8475336 C99.7206351,36.8475336 99.8829129,36.7660696 99.9991509,36.603139 C100.115389,36.4402085 100.173507,36.2152481 100.173507,35.9282511 C100.173507,35.6412542 100.116898,35.4170412 100.00368,35.2556054 C99.8904608,35.0941696 99.7266734,35.0134529 99.5123125,35.0134529 C99.2979516,35.0134529 99.1341642,35.0919275 99.0209454,35.2488789 C98.9077266,35.4058304 98.851118,35.6337803 98.851118,35.9327354 C98.851118,36.2197324 98.9077266,36.4439454 99.0209454,36.6053812 C99.1341642,36.766817 99.2979516,36.8475336 99.5123125,36.8475336 Z M102.564676,37.0762332 L102.564676,36.8565022 C102.486178,36.958147 102.402397,37.0291478 102.313331,37.0695067 C102.224266,37.1098657 102.116332,37.1300448 101.989527,37.1300448 C101.69063,37.1300448 101.474008,37.0463387 101.339655,36.8789238 C101.205302,36.7115089 101.138126,36.4394638 101.138126,36.0627803 L101.138126,34.7847534 L101.455137,34.7847534 L101.455137,36.1838565 C101.455137,36.4110624 101.503443,36.5784748 101.600057,36.6860987 C101.69667,36.7937225 101.826492,36.8475336 101.989527,36.8475336 C102.372962,36.8475336 102.564676,36.6292996 102.564676,36.1928251 L102.564676,34.7847534 L102.881687,34.7847534 L102.881687,37.0762332 L102.564676,37.0762332 Z M104.276536,37.1300448 C103.9716,37.1300448 103.819134,36.9551587 103.819134,36.6053812 L103.819134,35.0672646 L103.425134,35.0672646 L103.425134,34.7847534 L103.819134,34.7847534 L103.819134,33.9955157 L104.136145,33.838565 L104.136145,34.7847534 L104.72488,34.7847534 L104.72488,35.0672646 L104.136145,35.0672646 L104.136145,36.470852 C104.136145,36.5874445 104.15275,36.6771297 104.185961,36.7399103 C104.219172,36.8026909 104.285592,36.8340807 104.385225,36.8340807 C104.484858,36.8340807 104.601094,36.7892381 104.733937,36.6995516 L104.697707,37.0269058 C104.567883,37.0956655 104.427494,37.1300448 104.276536,37.1300448 Z M93.2037928,42.9058296 L94.254458,42.9058296 C94.5956239,42.9058296 94.8424372,42.9843041 94.9949052,43.1412556 C95.1473732,43.2982071 95.223606,43.4932724 95.223606,43.7264574 C95.223606,43.8819141 95.1790739,44.0171893 95.0900085,44.132287 C95.000943,44.2473847 94.8794234,44.333333 94.7254458,44.3901345 C94.9065959,44.4349778 95.0537781,44.5239156 95.1669969,44.6569507 C95.2802157,44.7899857 95.3368242,44.9596402 95.3368242,45.1659193 C95.3368242,45.4140521 95.2575723,45.6225702 95.0990659,45.7914798 C94.9405596,45.9603895 94.6831794,46.044843 94.3269176,46.044843 L93.2037928,46.044843 L93.2037928,42.9058296 Z M94.1774696,44.2780269 C94.4220222,44.2780269 94.608453,44.2279527 94.7367676,44.1278027 C94.8650823,44.0276527 94.9292386,43.8908828 94.9292386,43.7174888 C94.9292386,43.3647217 94.7133713,43.1883408 94.2816303,43.1883408 L93.5208038,43.1883408 L93.5208038,44.2780269 L94.1774696,44.2780269 Z M94.3812624,45.7623318 C94.6197766,45.7623318 94.7896023,45.7085207 94.8907444,45.6008969 C94.9918865,45.493273 95.0424568,45.3572504 95.0424568,45.1928251 C95.0424568,44.7653192 94.7722454,44.5515695 94.2318143,44.5515695 L93.5208038,44.5515695 L93.5208038,45.7623318 L94.3812624,45.7623318 Z M96.0840645,46.044843 L96.0840645,42.9596413 L96.4010756,42.8071749 L96.4010756,46.044843 L96.0840645,46.044843 Z M98.0721766,46.0986547 C97.7702598,46.0986547 97.5294848,45.9932746 97.3498443,45.7825112 C97.1702038,45.5717478 97.0803849,45.2780288 97.0803849,44.9013453 C97.0803849,44.5276513 97.1709586,44.2339323 97.3521087,44.0201794 C97.5332588,43.8064264 97.773279,43.6995516 98.0721766,43.6995516 C98.3740934,43.6995516 98.6148684,43.8049317 98.7945089,44.0156951 C98.9741494,44.2264585 99.0639683,44.5201775 99.0639683,44.896861 C99.0639683,45.2705549 98.9733946,45.564274 98.7922446,45.7780269 C98.6110945,45.9917798 98.3710742,46.0986547 98.0721766,46.0986547 Z M98.0721766,45.8161435 C98.2804992,45.8161435 98.442777,45.7346794 98.559015,45.5717489 C98.675253,45.4088183 98.7333711,45.1838579 98.7333711,44.896861 C98.7333711,44.609864 98.6767625,44.385651 98.5635437,44.2242152 C98.4503249,44.0627795 98.2865375,43.9820628 98.0721766,43.9820628 C97.8578157,43.9820628 97.6940283,44.0605373 97.5808095,44.2174888 C97.4675907,44.3744402 97.4109822,44.6023901 97.4109822,44.9013453 C97.4109822,45.1883422 97.4675907,45.4125552 97.5808095,45.573991 C97.6940283,45.7354268 97.8578157,45.8161435 98.0721766,45.8161435 Z M100.372771,47 L100.227852,46.7533632 C100.575056,46.7354259 100.814321,46.6726463 100.945655,46.5650224 C101.076989,46.4573986 101.142655,46.3139022 101.142655,46.1345291 L101.142655,45.7847534 C101.000754,45.994022 100.789415,46.0986547 100.508633,46.0986547 C100.242946,46.0986547 100.018776,45.9932746 99.8361166,45.7825112 C99.653457,45.5717478 99.5621285,45.276534 99.5621285,44.896861 C99.5621285,44.5261566 99.6511926,44.2339323 99.8293235,44.0201794 C100.007454,43.8064264 100.239927,43.6995516 100.526748,43.6995516 C100.783377,43.6995516 100.988677,43.7892368 101.142655,43.9686099 L101.142655,43.7533632 L101.459666,43.7533632 L101.459666,46.0089686 C101.459666,46.639764 101.097371,46.9701045 100.372771,47 Z M100.581093,45.8161435 C100.680725,45.8161435 100.78413,45.7810168 100.891311,45.7107623 C100.998491,45.6405079 101.082272,45.5485805 101.142655,45.4349776 L101.142655,44.3318386 C101.082272,44.2242147 100.996981,44.1390138 100.886782,44.0762332 C100.776582,44.0134526 100.674687,43.9820628 100.581093,43.9820628 C100.354655,43.9820628 100.18332,44.0605373 100.067082,44.2174888 C99.9508438,44.3744402 99.8927257,44.6008954 99.8927257,44.896861 C99.8927257,45.1838579 99.9568821,45.4088183 100.085197,45.5717489 C100.213511,45.7346794 100.378808,45.8161435 100.581093,45.8161435 Z"/><path stroke="#111111" stroke-linecap="square" d="M82,16.5 L70,16.5"/><path fill="#111111" d="M1.75353959,4.58930481 L2.46879916,4.58930481 L2.11886034,2.08877005 L1.75353959,4.58930481 Z M0,6.86898396 L1.49589233,0.131016043 L2.73413739,0.131016043 L4.22618423,6.86898396 L2.84565635,6.86898396 L2.56109072,5.42780749 L1.65740255,5.42780749 L1.38821884,6.86898396 L0,6.86898396 Z M4.58381402,4.76149733 L4.58381402,2.38823529 C4.58381402,0.796070471 5.26445745,0 6.62576473,0 C6.91289545,0 7.16861742,0.0368089011 7.3929383,0.110427807 C7.61725918,0.184046714 7.80504498,0.285739102 7.95630135,0.415508021 C8.10755771,0.545276941 8.2318937,0.704990139 8.32931306,0.894652406 C8.42673241,1.08431467 8.4972322,1.29019497 8.54081454,1.51229947 C8.58439689,1.73440396 8.60618773,1.9789648 8.60618773,2.2459893 L8.60618773,2.64278075 L7.26796015,2.64278075 L7.26796015,2.17112299 C7.26796015,2.05383186 7.26475561,1.95089171 7.25834644,1.86229947 C7.25193727,1.77370722 7.2359146,1.67513423 7.21027792,1.56657754 C7.18464125,1.45802085 7.15003226,1.36880605 7.10644992,1.29893048 C7.06286758,1.22905491 7.00005868,1.17041022 6.91802132,1.12299465 C6.83598397,1.07557909 6.73856608,1.05187166 6.62576473,1.05187166 C6.19763231,1.05187166 5.98356931,1.38377565 5.98356931,2.04759358 L5.98356931,4.95614973 C5.98356931,5.61747211 6.19763231,5.94812834 6.62576473,5.94812834 C7.05133348,5.94812834 7.26411467,5.60499452 7.26411467,4.91871658 L7.26411467,4.37967914 L6.47194546,4.37967914 L6.47194546,3.4026738 L8.66386995,3.4026738 L8.66386995,6.86898396 L7.70249956,6.86898396 L7.52560741,6.3973262 C7.40767872,6.57700625 7.23976104,6.72237021 7.02184933,6.83342246 C6.80393762,6.94447471 6.5796201,7 6.34889005,7 C6.10021434,7 5.8739741,6.95570454 5.67016256,6.8671123 C5.46635102,6.77852006 5.29843334,6.66123068 5.16640447,6.51524064 C5.03437561,6.36925061 4.92349867,6.1976837 4.83377032,6.00053476 C4.74404197,5.80338582 4.67995125,5.60187269 4.64149624,5.3959893 C4.60304123,5.19010592 4.58381402,4.97861071 4.58381402,4.76149733 Z M9.43296626,6.86898396 L9.43296626,0.127272727 L10.4404824,0.127272727 L11.9594476,3.65347594 L11.9594476,0.127272727 L13.1207831,0.127272727 L13.1207831,6.86898396 L12.1517217,6.86898396 L10.636602,3.12941176 L10.636602,6.86898396 L9.43296626,6.86898396 Z M13.8552701,4.61925134 L13.8552701,2.38823529 C13.8552701,0.796070471 14.5243772,0 15.8626114,0 C16.1446148,0 16.3952095,0.0368089011 16.6144031,0.110427807 C16.8335966,0.184046714 17.017537,0.285739102 17.1662297,0.415508021 C17.3149224,0.545276941 17.4373356,0.704990139 17.5334732,0.894652406 C17.6296107,1.08431467 17.6988287,1.29019497 17.7411292,1.51229947 C17.7834297,1.73440396 17.8045796,1.9789648 17.8045796,2.2459893 L17.8045796,2.82620321 L16.4278972,2.82620321 L16.4278972,2.20481283 C16.4278972,2.08253058 16.4253336,1.97709492 16.4202063,1.88850267 C16.4150789,1.79991043 16.4016199,1.69884192 16.3798287,1.58529412 C16.3580375,1.47174631 16.3285558,1.37941212 16.2913826,1.30828877 C16.2542095,1.23716542 16.1990914,1.17664909 16.1260269,1.12673797 C16.0529624,1.07682684 15.9651581,1.05187166 15.8626114,1.05187166 C15.457552,1.05187166 15.2550253,1.38377565 15.2550253,2.04759358 L15.2550253,4.95614973 C15.2550253,5.61747211 15.457552,5.94812834 15.8626114,5.94812834 C15.9831038,5.94812834 16.0843671,5.91443884 16.1664045,5.84705882 C16.2484418,5.77967881 16.3074053,5.68422522 16.3432966,5.56069519 C16.379188,5.43716516 16.4035424,5.3161325 16.4163608,5.19759358 C16.4291791,5.07905467 16.4355882,4.94367278 16.4355882,4.79144385 L16.4355882,4.09893048 L17.8045796,4.09893048 L17.8045796,4.66791444 C17.7994523,4.92495672 17.7776614,5.162031 17.7392064,5.37914439 C17.7007514,5.59625777 17.6353789,5.8071291 17.5430869,6.01176471 C17.4507949,6.21640031 17.3335088,6.38921498 17.1912253,6.5302139 C17.0489418,6.67121283 16.8650014,6.78475893 16.6393987,6.87085561 C16.413796,6.9569523 16.1548695,7 15.8626114,7 C15.5626624,7 15.2966859,6.95820006 15.064674,6.87459893 C14.8326621,6.7909978 14.6416718,6.67869946 14.4916973,6.53770053 C14.3417227,6.39670161 14.2180276,6.22326306 14.1206083,6.01737968 C14.0231889,5.8114963 13.9546119,5.59501005 13.914875,5.36791444 C13.8751382,5.14081883 13.8552701,4.89126696 13.8552701,4.61925134 Z M19.3427722,6.86898396 L19.3427722,4.64171123 L18.0429995,0.131016043 L19.3619997,0.131016043 L20.0080406,3.09197861 C20.0875142,2.76755631 20.206723,2.27406748 20.3656703,1.61149733 C20.5246177,0.948927168 20.6425446,0.455438342 20.7194546,0.131016043 L22,0.131016043 L20.6963818,4.64171123 L20.6963818,6.86898396 L19.3427722,6.86898396 Z" transform="translate(14 14)"/><rect width="39" height="40" x="128" y="12" fill="#EAEAEA"/><rect width="39" height="40" x="177" y="12" fill="#EAEAEA"/><text fill="#111111" font-family="Overpass-Bold, Overpass" font-size="10" font-weight="bold"><tspan x="142.015" y="36">#1</tspan></text><text fill="#111111" font-family="Overpass-Bold, Overpass" font-size="10" font-weight="bold"><tspan x="190.485" y="36">#2</tspan></text></g></svg>