<?xml version="1.0" encoding="UTF-8" standalone="no"?>
<svg width="62px" height="62px" viewBox="0 0 62 62" version="1.1" xmlns="http://www.w3.org/2000/svg" xmlns:xlink="http://www.w3.org/1999/xlink" xmlns:sketch="http://www.bohemiancoding.com/sketch/ns">
    <!-- Generator: Sketch 3.4.4 (17249) - http://www.bohemiancoding.com/sketch -->
    <title>1-3s_1-3_1-3s</title>
    <desc>Created with Sketch.</desc>
    <defs></defs>
    <g id="sections" stroke="none" stroke-width="1" fill="none" fill-rule="evenodd" sketch:type="MSPage">
        <g id="1-3s_1-3_1-3s" sketch:type="MSArtboardGroup">
            <g id="Rectangle-1-+-1/3" sketch:type="MSLayerGroup" fill="#CDDC39">
                <rect id="Rectangle-1" sketch:type="MSShapeGroup" x="0" y="0" width="19" height="47" rx="2"></rect>
                <path d="M5.6335,59 L5.6335,52.997 L4.5175,52.997 L2.6275,54.896 L3.3565,55.661 L4.3555,54.644 L4.3555,59 L5.6335,59 Z M8.0555,59.18 L10.1885,52.817 L9.3605,52.817 L7.2275,59.18 L8.0555,59.18 Z M13.7355,59.108 C15.1755,59.108 16.1025,58.379 16.1025,57.344 C16.1025,56.444 15.3105,55.967 14.6985,55.904 C15.3645,55.787 16.0125,55.292 16.0125,54.536 C16.0125,53.537 15.1485,52.907 13.7445,52.907 C12.6915,52.907 11.9355,53.312 11.4495,53.861 L12.0885,54.662 C12.5115,54.257 13.0335,54.041 13.6095,54.041 C14.2395,54.041 14.7255,54.275 14.7255,54.752 C14.7255,55.193 14.2845,55.391 13.6185,55.391 C13.3935,55.391 12.9795,55.391 12.8715,55.382 L12.8715,56.534 C12.9615,56.525 13.3665,56.516 13.6185,56.516 C14.4555,56.516 14.8245,56.732 14.8245,57.209 C14.8245,57.659 14.4195,57.974 13.6905,57.974 C13.1055,57.974 12.4485,57.722 12.0345,57.29 L11.3685,58.145 C11.8095,58.685 12.6285,59.108 13.7355,59.108 L13.7355,59.108 Z" id="1/3" sketch:type="MSShapeGroup"></path>
            </g>
            <g id="Group" sketch:type="MSLayerGroup" transform="translate(23.000000, 0.000000)">
                <path d="M0,2.00449605 C0,0.89744345 0.894513756,0 1.99406028,0 L14.0059397,0 C15.1072288,0 16,0.896918893 16,2.00449605 L16,44.995504 C16,46.1025565 15.1054862,47 14.0059397,47 L1.99406028,47 C0.892771196,47 0,46.1030811 0,44.995504 L0,2.00449605 Z M3,3 L13,3 L13,44 L3,44 L3,3 Z" id="Rectangle-1" fill="#3E6274" sketch:type="MSShapeGroup"></path>
                <rect id="Rectangle-4" fill="#B8C5CC" sketch:type="MSShapeGroup" x="3" y="16" width="2" height="1"></rect>
                <path d="M4.6335,59 L4.6335,52.997 L3.5175,52.997 L1.6275,54.896 L2.3565,55.661 L3.3555,54.644 L3.3555,59 L4.6335,59 Z M7.0555,59.18 L9.1885,52.817 L8.3605,52.817 L6.2275,59.18 L7.0555,59.18 Z M12.7355,59.108 C14.1755,59.108 15.1025,58.379 15.1025,57.344 C15.1025,56.444 14.3105,55.967 13.6985,55.904 C14.3645,55.787 15.0125,55.292 15.0125,54.536 C15.0125,53.537 14.1485,52.907 12.7445,52.907 C11.6915,52.907 10.9355,53.312 10.4495,53.861 L11.0885,54.662 C11.5115,54.257 12.0335,54.041 12.6095,54.041 C13.2395,54.041 13.7255,54.275 13.7255,54.752 C13.7255,55.193 13.2845,55.391 12.6185,55.391 C12.3935,55.391 11.9795,55.391 11.8715,55.382 L11.8715,56.534 C11.9615,56.525 12.3665,56.516 12.6185,56.516 C13.4555,56.516 13.8245,56.732 13.8245,57.209 C13.8245,57.659 13.4195,57.974 12.6905,57.974 C12.1055,57.974 11.4485,57.722 11.0345,57.29 L10.3685,58.145 C10.8095,58.685 11.6285,59.108 12.7355,59.108 L12.7355,59.108 Z" id="1/3" fill="#3E6274" sketch:type="MSShapeGroup"></path>
                <rect id="Rectangle-4" fill="#B8C5CC" sketch:type="MSShapeGroup" x="7" y="16" width="2" height="1"></rect>
                <rect id="Rectangle-4" fill="#B8C5CC" sketch:type="MSShapeGroup" x="11" y="16" width="2" height="1"></rect>
                <rect id="Rectangle-4" fill="#B8C5CC" sketch:type="MSShapeGroup" x="3" y="30" width="2" height="1"></rect>
                <rect id="Rectangle-4" fill="#B8C5CC" sketch:type="MSShapeGroup" x="7" y="30" width="2" height="1"></rect>
                <rect id="Rectangle-4" fill="#B8C5CC" sketch:type="MSShapeGroup" x="11" y="30" width="2" height="1"></rect>
                <rect id="Rectangle-6" fill="#B8C5CC" sketch:type="MSShapeGroup" x="8" y="3" width="1" height="3"></rect>
                <rect id="Rectangle-6" fill="#B8C5CC" sketch:type="MSShapeGroup" x="8" y="8" width="1" height="3"></rect>
                <rect id="Rectangle-6" fill="#B8C5CC" sketch:type="MSShapeGroup" x="8" y="13" width="1" height="3"></rect>
                <rect id="Rectangle-6" fill="#B8C5CC" sketch:type="MSShapeGroup" x="8" y="31" width="1" height="3"></rect>
                <rect id="Rectangle-6" fill="#B8C5CC" sketch:type="MSShapeGroup" x="8" y="36" width="1" height="3"></rect>
                <rect id="Rectangle-6" fill="#B8C5CC" sketch:type="MSShapeGroup" x="8" y="41" width="1" height="3"></rect>
            </g>
            <g id="Rectangle-1-+-1/3" sketch:type="MSLayerGroup" transform="translate(43.000000, 0.000000)" fill="#CDDC39">
                <rect id="Rectangle-1" sketch:type="MSShapeGroup" x="0" y="0" width="19" height="47" rx="2"></rect>
                <path d="M5.6335,59 L5.6335,52.997 L4.5175,52.997 L2.6275,54.896 L3.3565,55.661 L4.3555,54.644 L4.3555,59 L5.6335,59 Z M8.0555,59.18 L10.1885,52.817 L9.3605,52.817 L7.2275,59.18 L8.0555,59.18 Z M13.7355,59.108 C15.1755,59.108 16.1025,58.379 16.1025,57.344 C16.1025,56.444 15.3105,55.967 14.6985,55.904 C15.3645,55.787 16.0125,55.292 16.0125,54.536 C16.0125,53.537 15.1485,52.907 13.7445,52.907 C12.6915,52.907 11.9355,53.312 11.4495,53.861 L12.0885,54.662 C12.5115,54.257 13.0335,54.041 13.6095,54.041 C14.2395,54.041 14.7255,54.275 14.7255,54.752 C14.7255,55.193 14.2845,55.391 13.6185,55.391 C13.3935,55.391 12.9795,55.391 12.8715,55.382 L12.8715,56.534 C12.9615,56.525 13.3665,56.516 13.6185,56.516 C14.4555,56.516 14.8245,56.732 14.8245,57.209 C14.8245,57.659 14.4195,57.974 13.6905,57.974 C13.1055,57.974 12.4485,57.722 12.0345,57.29 L11.3685,58.145 C11.8095,58.685 12.6285,59.108 13.7355,59.108 L13.7355,59.108 Z" id="1/3" sketch:type="MSShapeGroup"></path>
            </g>
        </g>
    </g>
</svg>