<?xml version="1.0" encoding="UTF-8" standalone="no"?>
<svg width="62px" height="62px" viewBox="0 0 62 62" version="1.1" xmlns="http://www.w3.org/2000/svg" xmlns:xlink="http://www.w3.org/1999/xlink" xmlns:sketch="http://www.bohemiancoding.com/sketch/ns">
    <!-- Generator: Sketch 3.4.4 (17249) - http://www.bohemiancoding.com/sketch -->
    <title>3-4_1-4s</title>
    <desc>Created with Sketch.</desc>
    <defs></defs>
    <g id="sections" stroke="none" stroke-width="1" fill="none" fill-rule="evenodd" sketch:type="MSPage">
        <g id="3-4_1-4s" sketch:type="MSArtboardGroup">
            <path d="M0,2.00449605 C0,0.89744345 0.898855112,0 2.00492334,0 L41.9950767,0 C43.1023652,0 44,0.896918893 44,2.00449605 L44,44.995504 C44,46.1025565 43.1011449,47 41.9950767,47 L2.00492334,47 C0.897634756,47 0,46.1030811 0,44.995504 L0,2.00449605 Z M3,3 L41,3 L41,44 L3,44 L3,3 Z" id="Rectangle-1" fill="#3E6274" sketch:type="MSShapeGroup"></path>
            <rect id="Rectangle-4" fill="#B8C5CC" sketch:type="MSShapeGroup" x="3" y="16" width="3" height="1"></rect>
            <rect id="Rectangle-1" fill="#CDDC39" sketch:type="MSShapeGroup" x="48" y="0" width="14" height="47" rx="2"></rect>
            <path d="M16.7385,59.108 C18.1785,59.108 19.1055,58.379 19.1055,57.344 C19.1055,56.444 18.3135,55.967 17.7015,55.904 C18.3675,55.787 19.0155,55.292 19.0155,54.536 C19.0155,53.537 18.1515,52.907 16.7475,52.907 C15.6945,52.907 14.9385,53.312 14.4525,53.861 L15.0915,54.662 C15.5145,54.257 16.0365,54.041 16.6125,54.041 C17.2425,54.041 17.7285,54.275 17.7285,54.752 C17.7285,55.193 17.2875,55.391 16.6215,55.391 C16.3965,55.391 15.9825,55.391 15.8745,55.382 L15.8745,56.534 C15.9645,56.525 16.3695,56.516 16.6215,56.516 C17.4585,56.516 17.8275,56.732 17.8275,57.209 C17.8275,57.659 17.4225,57.974 16.6935,57.974 C16.1085,57.974 15.4515,57.722 15.0375,57.29 L14.3715,58.145 C14.8125,58.685 15.6315,59.108 16.7385,59.108 L16.7385,59.108 Z M21.3025,59.18 L23.4355,52.817 L22.6075,52.817 L20.4745,59.18 L21.3025,59.18 Z M28.8095,59 L28.8095,57.758 L29.5835,57.758 L29.5835,56.633 L28.8095,56.633 L28.8095,52.997 L27.0455,52.997 L24.6605,56.75 L24.6605,57.758 L27.5315,57.758 L27.5315,59 L28.8095,59 Z M27.5315,56.633 L25.9115,56.633 L27.5315,54.131 L27.5315,56.633 Z" id="3/4" fill="#3E6274" sketch:type="MSShapeGroup"></path>
            <path d="M51.5885,59 L51.5885,52.997 L50.4725,52.997 L48.5825,54.896 L49.3115,55.661 L50.3105,54.644 L50.3105,59 L51.5885,59 Z M54.0105,59.18 L56.1435,52.817 L55.3155,52.817 L53.1825,59.18 L54.0105,59.18 Z M61.5175,59 L61.5175,57.758 L62.2915,57.758 L62.2915,56.633 L61.5175,56.633 L61.5175,52.997 L59.7535,52.997 L57.3685,56.75 L57.3685,57.758 L60.2395,57.758 L60.2395,59 L61.5175,59 Z M60.2395,56.633 L58.6195,56.633 L60.2395,54.131 L60.2395,56.633 Z" id="1/4" fill="#CDDC39" sketch:type="MSShapeGroup"></path>
            <rect id="Rectangle-6" fill="#B8C5CC" sketch:type="MSShapeGroup" x="14" y="17" width="1" height="3"></rect>
            <rect id="Rectangle-4" fill="#B8C5CC" sketch:type="MSShapeGroup" x="8" y="16" width="3" height="1"></rect>
            <rect id="Rectangle-4" fill="#B8C5CC" sketch:type="MSShapeGroup" x="13" y="16" width="3" height="1"></rect>
            <rect id="Rectangle-4" fill="#B8C5CC" sketch:type="MSShapeGroup" x="18" y="16" width="3" height="1"></rect>
            <rect id="Rectangle-4" fill="#B8C5CC" sketch:type="MSShapeGroup" x="23" y="16" width="3" height="1"></rect>
            <rect id="Rectangle-4" fill="#B8C5CC" sketch:type="MSShapeGroup" x="3" y="30" width="3" height="1"></rect>
            <rect id="Rectangle-4" fill="#B8C5CC" sketch:type="MSShapeGroup" x="8" y="30" width="3" height="1"></rect>
            <rect id="Rectangle-4" fill="#B8C5CC" sketch:type="MSShapeGroup" x="13" y="30" width="3" height="1"></rect>
            <rect id="Rectangle-4" fill="#B8C5CC" sketch:type="MSShapeGroup" x="18" y="30" width="3" height="1"></rect>
            <rect id="Rectangle-4" fill="#B8C5CC" sketch:type="MSShapeGroup" x="23" y="30" width="3" height="1"></rect>
            <rect id="Rectangle-6" fill="#B8C5CC" sketch:type="MSShapeGroup" x="14" y="22" width="1" height="3"></rect>
            <rect id="Rectangle-6" fill="#B8C5CC" sketch:type="MSShapeGroup" x="14" y="27" width="1" height="3"></rect>
            <rect id="Rectangle-6" fill="#B8C5CC" sketch:type="MSShapeGroup" x="22" y="3" width="1" height="3"></rect>
            <rect id="Rectangle-6" fill="#B8C5CC" sketch:type="MSShapeGroup" x="22" y="8" width="1" height="3"></rect>
            <rect id="Rectangle-6" fill="#B8C5CC" sketch:type="MSShapeGroup" x="22" y="13" width="1" height="3"></rect>
            <rect id="Rectangle-6" fill="#B8C5CC" sketch:type="MSShapeGroup" x="22" y="31" width="1" height="3"></rect>
            <rect id="Rectangle-6" fill="#B8C5CC" sketch:type="MSShapeGroup" x="22" y="36" width="1" height="3"></rect>
            <rect id="Rectangle-6" fill="#B8C5CC" sketch:type="MSShapeGroup" x="22" y="41" width="1" height="3"></rect>
            <rect id="Rectangle-4" fill="#B8C5CC" sketch:type="MSShapeGroup" x="28" y="16" width="3" height="1"></rect>
            <rect id="Rectangle-4" fill="#B8C5CC" sketch:type="MSShapeGroup" x="28" y="30" width="3" height="1"></rect>
            <rect id="Rectangle-4" fill="#B8C5CC" sketch:type="MSShapeGroup" x="33" y="16" width="3" height="1"></rect>
            <rect id="Rectangle-4" fill="#B8C5CC" sketch:type="MSShapeGroup" x="33" y="30" width="3" height="1"></rect>
            <rect id="Rectangle-6" fill="#B8C5CC" sketch:type="MSShapeGroup" x="29" y="17" width="1" height="3"></rect>
            <rect id="Rectangle-6" fill="#B8C5CC" sketch:type="MSShapeGroup" x="29" y="22" width="1" height="3"></rect>
            <rect id="Rectangle-6" fill="#B8C5CC" sketch:type="MSShapeGroup" x="29" y="27" width="1" height="3"></rect>
            <rect id="Rectangle-4" fill="#B8C5CC" sketch:type="MSShapeGroup" x="38" y="16" width="3" height="1"></rect>
            <rect id="Rectangle-4" fill="#B8C5CC" sketch:type="MSShapeGroup" x="38" y="30" width="3" height="1"></rect>
        </g>
    </g>
</svg>