<?xml version="1.0" encoding="UTF-8" standalone="no"?>
<svg width="48px" height="37px" viewBox="0 0 48 37" version="1.1" xmlns="http://www.w3.org/2000/svg" xmlns:xlink="http://www.w3.org/1999/xlink" xmlns:sketch="http://www.bohemiancoding.com/sketch/ns">
    <!-- Generator: Sketch 3.4.4 (17249) - http://www.bohemiancoding.com/sketch -->
    <title>centered</title>
    <desc>Created with Sketch.</desc>
    <defs></defs>
    <g id="feature-box" stroke="none" stroke-width="1" fill="none" fill-rule="evenodd" sketch:type="MSPage">
        <g id="centered" sketch:type="MSArtboardGroup" fill="#3E6274">
            <path d="M16,1.99406028 C16,0.892771196 16.8945138,0 17.9940603,0 L30.0059397,0 C31.1072288,0 32,0.894513756 32,1.99406028 L32,14.0059397 C32,15.1072288 31.1054862,16 30.0059397,16 L17.9940603,16 C16.8927712,16 16,15.1054862 16,14.0059397 L16,1.99406028 Z M19,3 L29,3 L29,13 L19,13 L19,3 Z" id="Rectangle-1" sketch:type="MSShapeGroup"></path>
            <rect id="Rectangle-3" sketch:type="MSShapeGroup" x="0" y="20" width="48" height="2"></rect>
            <rect id="Rectangle-3" sketch:type="MSShapeGroup" x="0" y="25" width="48" height="2"></rect>
            <rect id="Rectangle-3" sketch:type="MSShapeGroup" x="0" y="30" width="48" height="2"></rect>
            <rect id="Rectangle-3" sketch:type="MSShapeGroup" x="0" y="35" width="48" height="2"></rect>
        </g>
    </g>
</svg>