<?xml version="1.0" encoding="UTF-8" standalone="no"?>
<svg width="20px" height="20px" viewBox="0 0 20 20" version="1.1" xmlns="http://www.w3.org/2000/svg" xmlns:xlink="http://www.w3.org/1999/xlink" xmlns:sketch="http://www.bohemiancoding.com/sketch/ns">
    <!-- Generator: Sketch 3.5.1 (25234) - http://www.bohemiancoding.com/sketch -->
    <title>feature_box_icon</title>
    <desc>Created with Sketch.</desc>
    <defs></defs>
    <g id="Page-1" stroke="none" stroke-width="1" fill="none" fill-rule="evenodd" sketch:type="MSPage">
        <g id="feature_box_icon" sketch:type="MSArtboardGroup" fill="#3E6274">
            <path d="M14.2253521,16.0093897 L13.0985915,11.1737089 L16.8544601,7.9342723 L11.9248826,7.51173709 L10,3.00469484 L8.07511737,7.55868545 L3.14553991,7.9342723 L6.90140845,11.1737089 L5.77464789,16.0093897 L10,13.4741784 L14.2253521,16.0093897 Z M10,0 C12.7543166,0 15.1095377,0.978082254 17.0657292,2.9342708 C19.0219177,4.89046235 20,7.24568338 20,10 C20,12.7543166 19.0219177,15.1095377 17.0657292,17.0657277 C15.1095377,19.0219189 12.7543166,20 10,20 C7.24568338,20 4.89046235,19.0219189 2.9342723,17.0657277 C0.978081052,15.1095377 0,12.7543166 0,10 C0,7.24568338 0.978081052,4.89046235 2.9342723,2.9342708 C4.89046235,0.978082254 7.24568338,0 10,0 L10,0 Z" id="Page-1" sketch:type="MSShapeGroup"></path>
        </g>
    </g>
</svg>