<?xml version="1.0" encoding="UTF-8" standalone="no"?>
<svg width="48px" height="37px" viewBox="0 0 48 37" version="1.1" xmlns="http://www.w3.org/2000/svg" xmlns:xlink="http://www.w3.org/1999/xlink" xmlns:sketch="http://www.bohemiancoding.com/sketch/ns">
    <!-- Generator: Sketch 3.4.4 (17249) - http://www.bohemiancoding.com/sketch -->
    <title>right_inline</title>
    <desc>Created with Sketch.</desc>
    <defs></defs>
    <g id="feature-box" stroke="none" stroke-width="1" fill="none" fill-rule="evenodd" sketch:type="MSPage">
        <g id="right_inline" sketch:type="MSArtboardGroup" fill="#3E6274">
            <path d="M32,1.99406028 C32,0.892771196 32.8945138,0 33.9940603,0 L46.0059397,0 C47.1072288,0 48,0.894513756 48,1.99406028 L48,14.0059397 C48,15.1072288 47.1054862,16 46.0059397,16 L33.9940603,16 C32.8927712,16 32,15.1054862 32,14.0059397 L32,1.99406028 Z M35,3 L45,3 L45,13 L35,13 L35,3 Z" id="Rectangle-1" sketch:type="MSShapeGroup"></path>
            <rect id="Rectangle-3" sketch:type="MSShapeGroup" x="0" y="0" width="27" height="2"></rect>
            <rect id="Rectangle-3" sketch:type="MSShapeGroup" x="0" y="5" width="27" height="2"></rect>
            <rect id="Rectangle-3" sketch:type="MSShapeGroup" x="0" y="10" width="27" height="2"></rect>
            <rect id="Rectangle-3" sketch:type="MSShapeGroup" x="0" y="20" width="48" height="2"></rect>
            <rect id="Rectangle-3" sketch:type="MSShapeGroup" x="0" y="25" width="48" height="2"></rect>
            <rect id="Rectangle-3" sketch:type="MSShapeGroup" x="0" y="30" width="48" height="2"></rect>
            <rect id="Rectangle-3" sketch:type="MSShapeGroup" x="0" y="35" width="48" height="2"></rect>
            <rect id="Rectangle-3" sketch:type="MSShapeGroup" x="0" y="15" width="27" height="2"></rect>
        </g>
    </g>
</svg>