<svg xmlns="http://www.w3.org/2000/svg" width="18" height="18" viewBox="0 0 18 18"><path fill="#000000" fill-rule="evenodd" d="M13.3441955,11.0346232 C13.3441955,11.4378842 13.4052938,11.725049 13.5274949,11.8961315 C13.6496961,12.0672117 13.8574315,12.1527483 14.1507128,12.1527483 C14.810593,12.1527483 15.332991,11.7586587 15.7179232,10.9704678 C16.1028531,10.182277 16.2953145,9.09776632 16.2953145,7.71690545 C16.2953145,6.65376196 16.1150723,5.73116481 15.7545831,4.9490835 C15.3940915,4.1670022 14.8991891,3.51629582 14.2698568,2.9969456 C13.640527,2.47759303 12.9042817,2.08961538 12.0610998,1.83299389 C11.2179179,1.5763724 10.3136495,1.448064 9.34826884,1.448064 C8.35844745,1.448064 7.4083548,1.61303228 6.49796275,1.94297352 C5.5875707,2.27291477 4.78411757,2.76170767 4.08757755,3.40936864 C3.39103518,4.0570296 2.83503211,4.85742794 2.41955193,5.8105918 C2.00407129,6.76375332 1.79633401,7.86964751 1.79633401,9.12830957 C1.79633401,10.3258711 1.98574158,11.3859433 2.36456095,12.3085546 C2.74338359,13.2311658 3.28105554,14.0071258 3.97759557,14.6364556 C4.67413794,15.2657878 5.51425095,15.739306 6.49796275,16.0570265 C7.48167456,16.3747469 8.57840437,16.5336049 9.78818737,16.5336049 C10.6069286,16.5336049 11.3401191,16.4816706 11.98778,16.3778005 C12.635441,16.2739302 13.3808507,16.0814679 14.2240326,15.8004073 L14.5906314,17.3034623 C13.7474495,17.5723028 12.9042817,17.7556003 12.0610998,17.8533605 C11.2179179,17.9511206 10.4480675,18 9.75152749,18 C8.17514571,18 6.77902964,17.7892078 5.56313704,17.3676172 C4.34724445,16.9460265 3.32688919,16.3503093 2.50203607,15.5804481 C1.6771853,14.8105859 1.05397348,13.8788244 0.632382775,12.785133 C0.210792186,11.6914415 0,10.4725129 0,9.12830957 C0,7.77188705 0.235231831,6.53462967 0.70570253,5.41649753 C1.17617346,4.29836539 1.82687984,3.33605357 2.65783997,2.52953157 C3.48880267,1.72300956 4.47860999,1.09979868 5.62729242,0.6598778 C6.7759725,0.219956921 8.0285062,0 9.38492872,0 C10.7902303,0 12.0335996,0.19857336 13.1150719,0.595722428 C14.1965441,0.992873841 15.1008102,1.53054579 15.8279028,2.20875705 C16.5549931,2.88696831 17.1018318,3.6843142 17.4684306,4.60081349 C17.8350317,5.51731513 18.0183311,6.49490327 18.0183311,7.53360371 C18.0183311,8.41344547 17.9450114,9.22912013 17.7983718,9.98065114 C17.65173,10.7321822 17.4012228,11.3859433 17.0468432,11.9419558 C16.6924636,12.4979659 16.2219994,12.9348249 15.6354367,13.2525447 C15.0488763,13.5702667 14.3217977,13.7291254 13.4541752,13.7291254 C12.6598747,13.7291254 12.0213875,13.5641571 11.5386971,13.2342159 C11.0560068,12.9042746 10.7780041,12.391041 10.7046843,11.694501 C10.5091634,12.4765823 10.1517337,13.0111995 9.63238348,13.2983713 C9.11303091,13.5855407 8.48676523,13.7291254 7.75356533,13.7291254 C7.26476305,13.7291254 6.80346565,13.6344197 6.36965435,13.4450108 C5.93584306,13.2555994 5.55397266,12.9714895 5.22403141,12.5926669 C4.89409251,12.2138465 4.63136613,11.7403276 4.43584521,11.1720983 C4.2403243,10.6038667 4.14256619,9.93483158 4.14256619,9.16496945 C4.14256619,8.40732885 4.23115992,7.72301738 4.40834972,7.11201629 C4.58553952,6.5010152 4.84521111,5.98167202 5.18737388,5.55397031 C5.52953431,5.12627096 5.95111703,4.7963344 6.45213849,4.56415596 C6.95315995,4.33197517 7.52749178,4.21588595 8.17515275,4.21588595 C8.87169277,4.21588595 9.43380543,4.34113955 9.86150713,4.59164911 C10.2892088,4.84216101 10.6008143,5.1812596 10.7963328,5.6089613 L11.4562106,4.41751645 L13.3441955,4.41751645 L13.3441955,11.0346232 Z M10.5763736,8.06517312 C10.5763736,7.45417202 10.3900217,7.00814859 10.017311,6.7270864 C9.64460031,6.44602656 9.26884184,6.30549898 8.89001919,6.30549898 C8.47453901,6.30549898 8.07739464,6.50101755 7.69857434,6.89205703 C7.31975404,7.28309651 7.13034506,7.97351756 7.13034506,8.9633413 C7.13034506,9.75764178 7.28920375,10.3655787 7.60692582,10.7871685 C7.92464554,11.2087606 8.3523402,11.4195508 8.89001919,11.4195508 C9.25662032,11.4195508 9.62932634,11.2881876 10.0081466,11.0254588 C10.3869669,10.7627278 10.5763736,10.301428 10.5763736,9.64154786 L10.5763736,8.06517312 Z"/></svg>