<svg xmlns="http://www.w3.org/2000/svg" width="18" height="18" viewBox="0 0 18 18"><path fill="#000000" fill-rule="evenodd" d="M14.4125777,1 L14.4125777,4.59257802 L3.59257802,4.59257802 L3.59257802,1 L14.4125777,1 Z M15.3001558,9.11499977 C15.5537496,9.11499977 15.7721215,9.03046852 15.9552743,8.86140603 C16.1384245,8.69234353 16.2299995,8.48101541 16.2299995,8.22742167 C16.2299995,7.97382793 16.1384245,7.75545599 15.9552743,7.57230585 C15.7721215,7.38915301 15.5537496,7.29757795 15.3001558,7.29757795 C15.0465621,7.29757795 14.835234,7.38915301 14.6661715,7.57230585 C14.497109,7.75545599 14.4125777,7.97382793 14.4125777,8.22742167 C14.4125777,8.48101541 14.497109,8.69234353 14.6661715,8.86140603 C14.835234,9.03046852 15.0465621,9.11499977 15.3001558,9.11499977 Z M12.5951559,15.4125777 L12.5951559,10.9324216 L5.40999985,10.9324216 L5.40999985,15.4125777 L12.5951559,15.4125777 Z M15.3001558,5.52242175 C16.0327645,5.52242175 16.6667407,5.79010042 17.2021089,6.3254686 C17.7374771,6.86083677 18.0051557,7.49481302 18.0051557,8.22742167 L18.0051557,13.6374215 L14.4125777,13.6374215 L14.4125777,17.2299995 L3.59257802,17.2299995 L3.59257802,13.6374215 L0,13.6374215 L0,8.22742167 C0,7.49481302 0.267679597,6.86083677 0.803046852,6.3254686 C1.33841422,5.79010042 1.97239208,5.52242175 2.70499992,5.52242175 L15.3001558,5.52242175 Z"/></svg>