<svg xmlns="http://www.w3.org/2000/svg" width="18" height="18" viewBox="0 0 18 18"><path fill="#000000" fill-rule="evenodd" d="M3.609375,7.78125 C5.109384,10.687515 7.312485,12.890616 10.21875,14.390625 L12.421875,12.1875 C12.734376,11.874999 13.078122,11.796873 13.453125,11.953125 C14.578131,12.328128 15.765618,12.515625 17.015625,12.515625 C17.296875,12.515625 17.53125,12.609375 17.71875,12.796875 C17.90625,12.984375 18,13.21875 18,13.5 L18,17.015625 C18,17.2968765 17.90625,17.5312491 17.71875,17.71875 C17.53125,17.9062509 17.296875,18 17.015625,18 C12.328101,18 8.320329,16.335954 4.992186,13.007814 C1.664046,9.679671 0,5.671899 0,0.984375 C0,0.703125 0.09374907,0.46875 0.28125,0.28125 C0.4687509,0.09375 0.7031235,0 0.984375,0 L4.5,0 C4.78125,0 5.015625,0.09375 5.203125,0.28125 C5.390625,0.46875 5.484375,0.703125 5.484375,0.984375 C5.484375,2.234382 5.671872,3.421869 6.046875,4.546875 C6.171876,4.953126 6.09375,5.296875 5.8125,5.578125 L3.609375,7.78125 Z"/></svg>