<svg xmlns="http://www.w3.org/2000/svg" width="230" height="144" style="background:#fff" viewBox="0 0 230 144"><g fill="none" fill-rule="evenodd"><path fill="#111111" d="M1.75353959,4.58930481 L2.46879916,4.58930481 L2.11886034,2.08877005 L1.75353959,4.58930481 Z M0,6.86898396 L1.49589233,0.131016043 L2.73413739,0.131016043 L4.22618423,6.86898396 L2.84565635,6.86898396 L2.56109072,5.42780749 L1.65740255,5.42780749 L1.38821884,6.86898396 L0,6.86898396 Z M4.58381402,4.76149733 L4.58381402,2.38823529 C4.58381402,0.796070471 5.26445745,0 6.62576473,0 C6.91289545,0 7.16861742,0.0368089011 7.3929383,0.110427807 C7.61725918,0.184046714 7.80504498,0.285739102 7.95630135,0.415508021 C8.10755771,0.545276941 8.2318937,0.704990139 8.32931306,0.894652406 C8.42673241,1.08431467 8.4972322,1.29019497 8.54081454,1.51229947 C8.58439689,1.73440396 8.60618773,1.9789648 8.60618773,2.2459893 L8.60618773,2.64278075 L7.26796015,2.64278075 L7.26796015,2.17112299 C7.26796015,2.05383186 7.26475561,1.95089171 7.25834644,1.86229947 C7.25193727,1.77370722 7.2359146,1.67513423 7.21027792,1.56657754 C7.18464125,1.45802085 7.15003226,1.36880605 7.10644992,1.29893048 C7.06286758,1.22905491 7.00005868,1.17041022 6.91802132,1.12299465 C6.83598397,1.07557909 6.73856608,1.05187166 6.62576473,1.05187166 C6.19763231,1.05187166 5.98356931,1.38377565 5.98356931,2.04759358 L5.98356931,4.95614973 C5.98356931,5.61747211 6.19763231,5.94812834 6.62576473,5.94812834 C7.05133348,5.94812834 7.26411467,5.60499452 7.26411467,4.91871658 L7.26411467,4.37967914 L6.47194546,4.37967914 L6.47194546,3.4026738 L8.66386995,3.4026738 L8.66386995,6.86898396 L7.70249956,6.86898396 L7.52560741,6.3973262 C7.40767872,6.57700625 7.23976104,6.72237021 7.02184933,6.83342246 C6.80393762,6.94447471 6.5796201,7 6.34889005,7 C6.10021434,7 5.8739741,6.95570454 5.67016256,6.8671123 C5.46635102,6.77852006 5.29843334,6.66123068 5.16640447,6.51524064 C5.03437561,6.36925061 4.92349867,6.1976837 4.83377032,6.00053476 C4.74404197,5.80338582 4.67995125,5.60187269 4.64149624,5.3959893 C4.60304123,5.19010592 4.58381402,4.97861071 4.58381402,4.76149733 Z M9.43296626,6.86898396 L9.43296626,0.127272727 L10.4404824,0.127272727 L11.9594476,3.65347594 L11.9594476,0.127272727 L13.1207831,0.127272727 L13.1207831,6.86898396 L12.1517217,6.86898396 L10.636602,3.12941176 L10.636602,6.86898396 L9.43296626,6.86898396 Z M13.8552701,4.61925134 L13.8552701,2.38823529 C13.8552701,0.796070471 14.5243772,0 15.8626114,0 C16.1446148,0 16.3952095,0.0368089011 16.6144031,0.110427807 C16.8335966,0.184046714 17.017537,0.285739102 17.1662297,0.415508021 C17.3149224,0.545276941 17.4373356,0.704990139 17.5334732,0.894652406 C17.6296107,1.08431467 17.6988287,1.29019497 17.7411292,1.51229947 C17.7834297,1.73440396 17.8045796,1.9789648 17.8045796,2.2459893 L17.8045796,2.82620321 L16.4278972,2.82620321 L16.4278972,2.20481283 C16.4278972,2.08253058 16.4253336,1.97709492 16.4202063,1.88850267 C16.4150789,1.79991043 16.4016199,1.69884192 16.3798287,1.58529412 C16.3580375,1.47174631 16.3285558,1.37941212 16.2913826,1.30828877 C16.2542095,1.23716542 16.1990914,1.17664909 16.1260269,1.12673797 C16.0529624,1.07682684 15.9651581,1.05187166 15.8626114,1.05187166 C15.457552,1.05187166 15.2550253,1.38377565 15.2550253,2.04759358 L15.2550253,4.95614973 C15.2550253,5.61747211 15.457552,5.94812834 15.8626114,5.94812834 C15.9831038,5.94812834 16.0843671,5.91443884 16.1664045,5.84705882 C16.2484418,5.77967881 16.3074053,5.68422522 16.3432966,5.56069519 C16.379188,5.43716516 16.4035424,5.3161325 16.4163608,5.19759358 C16.4291791,5.07905467 16.4355882,4.94367278 16.4355882,4.79144385 L16.4355882,4.09893048 L17.8045796,4.09893048 L17.8045796,4.66791444 C17.7994523,4.92495672 17.7776614,5.162031 17.7392064,5.37914439 C17.7007514,5.59625777 17.6353789,5.8071291 17.5430869,6.01176471 C17.4507949,6.21640031 17.3335088,6.38921498 17.1912253,6.5302139 C17.0489418,6.67121283 16.8650014,6.78475893 16.6393987,6.87085561 C16.413796,6.9569523 16.1548695,7 15.8626114,7 C15.5626624,7 15.2966859,6.95820006 15.064674,6.87459893 C14.8326621,6.7909978 14.6416718,6.67869946 14.4916973,6.53770053 C14.3417227,6.39670161 14.2180276,6.22326306 14.1206083,6.01737968 C14.0231889,5.8114963 13.9546119,5.59501005 13.914875,5.36791444 C13.8751382,5.14081883 13.8552701,4.89126696 13.8552701,4.61925134 Z M19.3427722,6.86898396 L19.3427722,4.64171123 L18.0429995,0.131016043 L19.3619997,0.131016043 L20.0080406,3.09197861 C20.0875142,2.76755631 20.206723,2.27406748 20.3656703,1.61149733 C20.5246177,0.948927168 20.6425446,0.455438342 20.7194546,0.131016043 L22,0.131016043 L20.6963818,4.64171123 L20.6963818,6.86898396 L19.3427722,6.86898396 Z" transform="translate(14.411 14.4)"/><rect width="201.754" height="75.456" x="14.411" y="33.408" fill="#EAEAEA"/><path fill="#111111" d="M16.7919922,128.945312 C16.8863937,128.945312 16.9702145,128.939616 17.043457,128.928223 C17.1166996,128.916829 17.1809893,128.903809 17.2363281,128.88916 C17.2916669,128.874512 17.3404946,128.847656 17.3828125,128.808594 C17.4251304,128.769531 17.4601236,128.735352 17.487793,128.706055 C17.5154624,128.676758 17.5390624,128.628744 17.5585938,128.562012 C17.5781251,128.49528 17.5927734,128.440755 17.6025391,128.398438 C17.6123047,128.35612 17.6196289,128.287761 17.6245117,128.193359 C17.6293946,128.098958 17.6318359,128.023275 17.6318359,127.966309 L17.6318359,127.626953 C17.6318359,127.499999 17.6310221,127.403972 17.6293945,127.338867 C17.6277669,127.273763 17.6220704,127.190756 17.6123047,127.089844 C17.602539,126.988932 17.5870769,126.913249 17.565918,126.862793 C17.544759,126.812337 17.5138348,126.754558 17.4731445,126.689453 C17.4324542,126.624349 17.3828128,126.577149 17.3242188,126.547852 C17.2656247,126.518555 17.1915695,126.492513 17.1020508,126.469727 C17.0125321,126.44694 16.9091803,126.435547 16.7919922,126.435547 L16.7919922,128.945312 Z M15,133.959961 L15,125.170898 L17.1240234,125.170898 C17.8890012,125.170898 18.4456363,125.384112 18.7939453,125.810547 C19.1422543,126.236981 19.3164062,126.853837 19.3164062,127.661133 C19.3164062,128.05827 19.2781579,128.403319 19.2016602,128.696289 C19.1251624,128.989259 19.0185554,129.230956 18.8818359,129.421387 C18.7451165,129.611817 18.569337,129.764811 18.3544922,129.880371 C18.1396474,129.995932 17.9069023,130.077311 17.65625,130.124512 C17.4055977,130.171712 17.1158871,130.19694 16.7871094,130.200195 L16.7871094,133.959961 L15,133.959961 Z M21.7675781,128.828125 L22.2753906,128.828125 C22.4121101,128.828125 22.5292964,128.782553 22.6269531,128.691406 C22.7246099,128.60026 22.7954099,128.484701 22.8393555,128.344727 C22.883301,128.204752 22.9142252,128.076172 22.9321289,127.958984 C22.9500326,127.841796 22.9589844,127.73112 22.9589844,127.626953 C22.9589844,127.522786 22.9516602,127.415365 22.9370117,127.304688 C22.9223632,127.19401 22.8963218,127.071127 22.8588867,126.936035 C22.8214516,126.800943 22.7596033,126.690267 22.6733398,126.604004 C22.5870764,126.51774 22.482097,126.474609 22.3583984,126.474609 L21.7675781,126.474609 L21.7675781,128.828125 Z M19.9902344,133.959961 L19.9902344,125.170898 L21.9238281,125.170898 C22.3632834,125.170898 22.7498356,125.212402 23.0834961,125.29541 C23.4171566,125.378418 23.7093086,125.508625 23.9599609,125.686035 C24.2106132,125.863445 24.401041,126.1027 24.53125,126.403809 C24.661459,126.704917 24.7265625,127.065428 24.7265625,127.485352 C24.7265625,127.667644 24.7200521,127.830403 24.7070312,127.973633 C24.6940104,128.116863 24.6639,128.280435 24.6166992,128.464355 C24.5694985,128.648276 24.5052087,128.811034 24.4238281,128.952637 C24.3424475,129.094239 24.2252612,129.233398 24.0722656,129.370117 C23.9192701,129.506837 23.7386078,129.620768 23.5302734,129.711914 C24.0576198,131.3851 24.5165996,132.801101 24.9072266,133.959961 L23.0664062,133.959961 L22.0605469,129.912109 L21.7675781,129.912109 L21.7675781,133.959961 L19.9902344,133.959961 Z M25.3564453,131.069336 L25.3564453,128.115234 C25.3564453,126.038401 26.2125565,125 27.9248047,125 C29.6403081,125 30.4980469,126.038401 30.4980469,128.115234 L30.4980469,131.025391 C30.4980469,131.376955 30.4720055,131.701659 30.4199219,131.999512 C30.3678383,132.297365 30.2791347,132.579751 30.1538086,132.84668 C30.0284824,133.113608 29.8689788,133.340657 29.675293,133.527832 C29.4816071,133.715007 29.2366551,133.862304 28.9404297,133.969727 C28.6442042,134.077149 28.305666,134.130859 27.9248047,134.130859 C27.5471986,134.130859 27.2102879,134.077963 26.9140625,133.972168 C26.6178371,133.866373 26.3736989,133.723145 26.1816406,133.54248 C25.9895824,133.361816 25.8308926,133.140464 25.7055664,132.878418 C25.5802403,132.616372 25.4907229,132.337241 25.4370117,132.041016 C25.3833005,131.74479 25.3564453,131.4209 25.3564453,131.069336 Z M28.7207031,131.469727 L28.7207031,127.670898 C28.7207031,126.805009 28.4554063,126.37207 27.9248047,126.37207 C27.7652987,126.37207 27.6302089,126.411946 27.5195312,126.491699 C27.4088536,126.571452 27.3274742,126.680501 27.2753906,126.818848 C27.223307,126.957195 27.1866863,127.093912 27.1655273,127.229004 C27.1443684,127.364096 27.1337891,127.511392 27.1337891,127.670898 L27.1337891,131.469727 C27.1337891,132.332361 27.3974583,132.763672 27.9248047,132.763672 C28.4554063,132.763672 28.7207031,132.332361 28.7207031,131.469727 Z M30.9082031,134.125977 L30.9082031,132.875977 C31.3378928,132.882487 31.6243482,132.818197 31.7675781,132.683105 C31.910808,132.548014 31.9824219,132.265627 31.9824219,131.835938 L31.9824219,125.170898 L33.7597656,125.170898 L33.7597656,131.850586 C33.7597656,132.172853 33.7443035,132.447102 33.7133789,132.67334 C33.6824543,132.899578 33.6246749,133.109537 33.5400391,133.303223 C33.4554032,133.496909 33.3398445,133.650716 33.1933594,133.764648 C33.0468743,133.878581 32.8572603,133.967285 32.6245117,134.030762 C32.3917632,134.094239 32.1110042,134.125977 31.7822266,134.125977 L30.9082031,134.125977 Z M34.8046875,133.959961 L34.8046875,125.170898 L38.4716797,125.170898 L38.4716797,126.391602 L36.5820312,126.391602 L36.5820312,128.78418 L37.9199219,128.78418 L37.9199219,130.03418 L36.5820312,130.03418 L36.5820312,132.739258 L38.4716797,132.739258 L38.4716797,133.959961 L34.8046875,133.959961 Z M38.9941406,131.025391 L38.9941406,128.115234 C38.9941406,126.038401 39.8437415,125 41.5429688,125 C41.9010435,125 42.2192369,125.048014 42.4975586,125.144043 C42.7758803,125.240072 43.0094392,125.372721 43.1982422,125.541992 C43.3870452,125.711264 43.5424799,125.919595 43.6645508,126.166992 C43.7866217,126.414389 43.8745115,126.682941 43.9282227,126.972656 C43.9819339,127.262371 44.0087891,127.581378 44.0087891,127.929688 L44.0087891,128.686523 L42.2607422,128.686523 L42.2607422,127.875977 C42.2607422,127.716471 42.257487,127.578939 42.2509766,127.463379 C42.2444661,127.347818 42.2273764,127.215984 42.199707,127.067871 C42.1720376,126.919758 42.1346031,126.799317 42.0874023,126.706543 C42.0402016,126.613769 41.9702153,126.534831 41.8774414,126.469727 C41.7846675,126.404622 41.6731777,126.37207 41.5429688,126.37207 C41.0286433,126.37207 40.7714844,126.805009 40.7714844,127.670898 L40.7714844,131.464844 C40.7714844,132.327478 41.0286433,132.758789 41.5429688,132.758789 C41.6959643,132.758789 41.8245438,132.714844 41.9287109,132.626953 C42.0328781,132.539062 42.1077472,132.414552 42.1533203,132.253418 C42.1988935,132.092284 42.2298176,131.934408 42.2460938,131.779785 C42.2623699,131.625162 42.2705078,131.448569 42.2705078,131.25 L42.2705078,130.34668 L44.0087891,130.34668 L44.0087891,131.088867 C44.0022786,131.424155 43.9746096,131.733397 43.9257812,132.016602 C43.8769529,132.299806 43.7939459,132.574868 43.6767578,132.841797 C43.5595697,133.108725 43.4106454,133.334146 43.2299805,133.518066 C43.0493155,133.701987 42.8157566,133.850097 42.5292969,133.962402 C42.2428371,134.074708 41.9140644,134.130859 41.5429688,134.130859 C41.1621075,134.130859 40.824383,134.076335 40.5297852,133.967285 C40.2351873,133.858235 39.9926767,133.711752 39.8022461,133.527832 C39.6118155,133.343912 39.4547532,133.117677 39.3310547,132.849121 C39.2073562,132.580565 39.1202802,132.298179 39.0698242,132.001953 C39.0193682,131.705728 38.9941406,131.38021 38.9941406,131.025391 Z M45.6738281,133.959961 L45.6738281,126.499023 L44.3847656,126.499023 L44.3847656,125.170898 L48.7158203,125.170898 L48.7158203,126.499023 L47.4511719,126.499023 L47.4511719,133.959961 L45.6738281,133.959961 Z M52.1435547,133.959961 L52.1435547,126.499023 L50.8544922,126.499023 L50.8544922,125.170898 L55.1855469,125.170898 L55.1855469,126.499023 L53.9208984,126.499023 L53.9208984,133.959961 L52.1435547,133.959961 Z M55.7763672,133.959961 L55.7763672,125.170898 L57.5537109,125.170898 L57.5537109,133.959961 L55.7763672,133.959961 Z M59.4335937,133.959961 L59.4335937,126.499023 L58.1445312,126.499023 L58.1445312,125.170898 L62.4755859,125.170898 L62.4755859,126.499023 L61.2109375,126.499023 L61.2109375,133.959961 L59.4335937,133.959961 Z M63.0664062,133.959961 L63.0664062,125.170898 L64.84375,125.170898 L64.84375,132.739258 L66.5917969,132.739258 L66.5917969,133.959961 L63.0664062,133.959961 Z M67.1582031,133.959961 L67.1582031,125.170898 L70.8251953,125.170898 L70.8251953,126.391602 L68.9355469,126.391602 L68.9355469,128.78418 L70.2734375,128.78418 L70.2734375,130.03418 L68.9355469,130.03418 L68.9355469,132.739258 L70.8251953,132.739258 L70.8251953,133.959961 L67.1582031,133.959961 Z"/><path fill="#4D4C4C" d="M14.798396,120.536 L14.798396,117.7136 L15.6699749,117.7136 C15.8340693,117.7136 15.9773135,117.737792 16.0997118,117.786176 C16.2221101,117.83456 16.3169337,117.899744 16.3841855,117.981728 C16.4514373,118.063712 16.5012028,118.153088 16.5334837,118.249856 C16.5657646,118.346624 16.5819048,118.450111 16.5819048,118.56032 C16.5819048,118.783425 16.5059114,118.979647 16.3539223,119.148992 C16.2019332,119.318337 15.9739531,119.403008 15.6699749,119.403008 L15.1454135,119.403008 L15.1454135,120.536 L14.798396,120.536 Z M15.1454135,119.080448 L15.6941855,119.080448 C15.8798004,119.080448 16.016992,119.029377 16.1057644,118.927232 C16.1945368,118.825087 16.2389223,118.702785 16.2389223,118.56032 C16.2389223,118.420543 16.1965543,118.297569 16.111817,118.191392 C16.0270798,118.085215 15.8878706,118.032128 15.6941855,118.032128 L15.1454135,118.032128 L15.1454135,119.080448 Z M19.7117878,118.515968 C19.7117878,118.698753 19.6613498,118.863391 19.5604721,119.009888 C19.4595944,119.156385 19.304245,119.25248 19.0944194,119.298176 L19.6996826,120.536 L19.3163493,120.536 L18.7272264,119.3264 L18.3035422,119.3264 L18.3035422,120.536 L17.9565247,120.536 L17.9565247,117.7136 L18.8240686,117.7136 C19.138807,117.7136 19.3654421,117.789535 19.5039808,117.941408 C19.6425195,118.093281 19.7117878,118.284799 19.7117878,118.515968 Z M18.3035422,118.032128 L18.3035422,119.007872 L18.8321387,119.007872 C19.0204438,119.007872 19.1569629,118.961504 19.2417001,118.868768 C19.3264374,118.776032 19.3688054,118.661121 19.3688054,118.524032 C19.3688054,118.395007 19.3271099,118.280768 19.2437177,118.181312 C19.1603254,118.081856 19.0231338,118.032128 18.8321387,118.032128 L18.3035422,118.032128 Z M21.970092,120.584384 C21.8006175,120.584384 21.6519932,120.54272 21.5242148,120.459392 C21.3964364,120.376064 21.2962327,120.263169 21.2236008,120.120704 C21.1509688,119.978239 21.0971682,119.823681 21.0621973,119.657024 C21.0272263,119.490367 21.0097411,119.312961 21.0097411,119.1248 C21.0097411,118.936639 21.0272263,118.759233 21.0621973,118.592576 C21.0971682,118.425919 21.1509688,118.271361 21.2236008,118.128896 C21.2962327,117.986431 21.3964364,117.873536 21.5242148,117.790208 C21.6519932,117.70688 21.8006175,117.665216 21.970092,117.665216 C22.1395665,117.665216 22.2881908,117.70688 22.4159692,117.790208 C22.5437476,117.873536 22.6446238,117.986431 22.7186008,118.128896 C22.7925777,118.271361 22.8470509,118.425919 22.8820218,118.592576 C22.9169927,118.759233 22.934478,118.936639 22.934478,119.1248 C22.934478,119.312961 22.9169927,119.490367 22.8820218,119.657024 C22.8470509,119.823681 22.7925777,119.978239 22.7186008,120.120704 C22.6446238,120.263169 22.5437476,120.376064 22.4159692,120.459392 C22.2881908,120.54272 22.1395665,120.584384 21.970092,120.584384 Z M21.970092,120.261824 C22.1072857,120.261824 22.222957,120.202689 22.3171095,120.084416 C22.411262,119.966143 22.4771678,119.825025 22.5148288,119.661056 C22.5524898,119.497087 22.5713201,119.318337 22.5713201,119.1248 C22.5713201,118.79955 22.522227,118.528737 22.4240394,118.312352 C22.3258517,118.095967 22.1745375,117.987776 21.970092,117.987776 C21.8302082,117.987776 21.7138644,118.046239 21.6210569,118.163168 C21.5282494,118.280097 21.4630162,118.420543 21.4253551,118.584512 C21.3876941,118.748481 21.3688639,118.928575 21.3688639,119.1248 C21.3688639,119.45005 21.417957,119.720863 21.5161446,119.937248 C21.6143322,120.153633 21.7656465,120.261824 21.970092,120.261824 Z M25.0797996,120.584384 C24.681669,120.584384 24.4113208,120.412354 24.268747,120.068288 L24.5552382,119.923136 C24.6117297,120.044097 24.676963,120.130784 24.75094,120.1832 C24.824917,120.235616 24.9358808,120.261824 25.0838347,120.261824 C25.2344788,120.261824 25.3609102,120.214112 25.463133,120.118688 C25.5653557,120.023264 25.6164663,119.865345 25.6164663,119.644928 L25.6164663,117.7136 L25.9634838,117.7136 L25.9634838,119.620736 C25.9634838,119.771265 25.9446536,119.904319 25.9069926,120.019904 C25.8693316,120.135489 25.8215836,120.228224 25.763747,120.298112 C25.7059105,120.368 25.6373147,120.42512 25.5579575,120.469472 C25.4786004,120.513824 25.399917,120.544064 25.3219049,120.560192 C25.2438928,120.57632 25.1631919,120.584384 25.0797996,120.584384 Z M27.4309108,120.536 L27.4309108,117.7136 L29.0852968,117.7136 L29.0852968,118.044224 L27.7779283,118.044224 L27.7779283,118.911104 L28.6696827,118.911104 L28.6696827,119.241728 L27.7779283,119.241728 L27.7779283,120.205376 L29.1700336,120.205376 L29.1700336,120.536 L27.4309108,120.536 Z M31.5453553,120.584384 C31.3974013,120.584384 31.2622272,120.556832 31.139829,120.501728 C31.0174307,120.446624 30.9165545,120.372704 30.8371974,120.279968 C30.7578403,120.187232 30.691262,120.077697 30.6374605,119.95136 C30.5836591,119.825023 30.5446537,119.693313 30.520443,119.556224 C30.4962324,119.419135 30.4841272,119.275329 30.4841272,119.1248 C30.4841272,118.866751 30.5190976,118.630881 30.5890395,118.417184 C30.6589814,118.203487 30.7759977,118.024737 30.9400921,117.880928 C31.1041865,117.737119 31.3059389,117.665216 31.5453553,117.665216 C31.9031349,117.665216 32.1600329,117.83187 32.316057,118.165184 L32.0093904,118.330496 C31.9502088,118.220287 31.885648,118.135616 31.8157062,118.07648 C31.7457643,118.017344 31.6556482,117.987776 31.5453553,117.987776 C31.421612,117.987776 31.3126657,118.022048 31.2185132,118.090592 C31.1243607,118.159136 31.0510573,118.249855 30.9986009,118.362752 C30.9461445,118.475649 30.907139,118.595935 30.8815834,118.723616 C30.8560277,118.851297 30.84325,118.985023 30.84325,119.1248 C30.84325,119.326401 30.8667878,119.509855 30.9138641,119.675168 C30.9609403,119.840481 31.0389512,119.979583 31.1478991,120.09248 C31.2568471,120.205377 31.3893311,120.261824 31.5453553,120.261824 C31.760561,120.261824 31.924653,120.142209 32.037636,119.902976 L32.3483377,120.019904 C32.2783959,120.186561 32.1768472,120.322303 32.0436886,120.427136 C31.9105301,120.531969 31.7444206,120.584384 31.5453553,120.584384 Z M34.429098,120.536 L34.429098,118.048256 L33.6180454,118.048256 L33.6180454,117.7136 L35.5871682,117.7136 L35.5871682,118.048256 L34.7761156,118.048256 L34.7761156,120.536 L34.429098,120.536 Z M40.9390396,120.584384 C40.7238339,120.584384 40.5348592,120.525249 40.3721098,120.406976 C40.2093605,120.288703 40.0983967,120.139521 40.0392151,119.959424 L40.3620221,119.842496 C40.4158235,119.971521 40.4951795,120.074336 40.6000923,120.150944 C40.7050051,120.227552 40.8233665,120.265856 40.95518,120.265856 C41.1031339,120.265856 41.2201503,120.224864 41.3062326,120.14288 C41.3923149,120.060896 41.4353554,119.944641 41.4353554,119.794112 C41.4353554,119.549503 41.2457082,119.345217 40.8664081,119.181248 C40.7588052,119.135552 40.6686891,119.091872 40.5960572,119.050208 C40.5234252,119.008544 40.4474318,118.954784 40.3680747,118.888928 C40.2887176,118.823072 40.2281919,118.74512 40.1864958,118.655072 C40.1447997,118.565024 40.1239519,118.463553 40.1239519,118.350656 C40.1239519,118.157119 40.1952377,117.994497 40.3378116,117.862784 C40.4803854,117.731071 40.6700326,117.665216 40.9067589,117.665216 C41.097754,117.665216 41.2611735,117.711584 41.3970221,117.80432 C41.5328707,117.897056 41.6209693,118.017343 41.6613203,118.165184 L41.3425484,118.270016 C41.3075775,118.186688 41.2510868,118.118144 41.1730747,118.064384 C41.0950626,118.010624 41.0022565,117.983744 40.8946537,117.983744 C40.7682203,117.983744 40.6673441,118.016672 40.5920221,118.082528 C40.5167001,118.148384 40.4790396,118.237759 40.4790396,118.350656 C40.4790396,118.415168 40.4931623,118.47296 40.5214081,118.524032 C40.5496538,118.575104 40.5947118,118.622144 40.6565835,118.665152 C40.7184551,118.70816 40.7742733,118.743104 40.8240396,118.769984 C40.873806,118.796864 40.9457643,118.830464 41.0399168,118.870784 C41.1421396,118.91648 41.2302381,118.962176 41.3042151,119.007872 C41.378192,119.053568 41.456203,119.112704 41.5382502,119.18528 C41.6202974,119.257856 41.6828406,119.344543 41.7258817,119.445344 C41.7689229,119.546145 41.7904431,119.658367 41.7904431,119.782016 C41.7904431,120.032001 41.7110872,120.228223 41.552373,120.370688 C41.3936587,120.513153 41.1892163,120.584384 40.9390396,120.584384 Z M44.0769929,120.584384 C43.4717267,120.584384 43.1690982,120.2121 43.1690982,119.46752 L43.1690982,117.7136 L43.5161157,117.7136 L43.5161157,119.46752 C43.5161157,119.997059 43.7030729,120.261824 44.0769929,120.261824 C44.4509129,120.261824 44.6378701,119.997059 44.6378701,119.46752 L44.6378701,117.7136 L44.9889227,117.7136 L44.9889227,119.46752 C44.9889227,119.854594 44.9082218,120.137503 44.7468175,120.316256 C44.5854131,120.495009 44.3621405,120.584384 44.0769929,120.584384 Z M46.379683,120.536 L46.379683,117.7136 L47.1907356,117.7136 C47.5000939,117.7136 47.7233665,117.784159 47.8605602,117.92528 C47.9977539,118.066401 48.0663497,118.243135 48.0663497,118.455488 C48.0663497,118.592577 48.0293617,118.712191 47.9553848,118.814336 C47.8814078,118.916481 47.7785141,118.994432 47.6467005,119.048192 C47.8054148,119.0912 47.9318463,119.173183 48.0259988,119.294144 C48.1201513,119.415105 48.1672269,119.561599 48.1672269,119.733632 C48.1672269,119.956737 48.094596,120.146239 47.9493321,120.302144 C47.8040682,120.458049 47.5713805,120.536 47.2512619,120.536 L46.379683,120.536 Z M46.7267005,118.915136 L47.1221391,118.915136 C47.3212045,118.915136 47.4725187,118.874816 47.5760865,118.794176 C47.6796543,118.713536 47.7314374,118.603329 47.7314374,118.463552 C47.7314374,118.175935 47.5579303,118.032128 47.2109111,118.032128 L46.7267005,118.032128 L46.7267005,118.915136 Z M46.7267005,120.217472 L47.2956479,120.217472 C47.4893331,120.217472 47.6271972,120.17312 47.7092444,120.084416 C47.7912916,119.995712 47.8323146,119.884161 47.8323146,119.74976 C47.8323146,119.400318 47.610387,119.2256 47.1665251,119.2256 L46.7267005,119.2256 L46.7267005,120.217472 Z M50.2197415,120.536 L50.2197415,118.048256 L49.4086889,118.048256 L49.4086889,117.7136 L51.3778117,117.7136 L51.3778117,118.048256 L50.5667591,118.048256 L50.5667591,120.536 L50.2197415,120.536 Z M54.3705018,118.032128 L53.7248878,118.032128 L53.7248878,120.217472 L54.3705018,120.217472 L54.3705018,120.536 L52.7322562,120.536 L52.7322562,120.217472 L53.3778702,120.217472 L53.3778702,118.032128 L52.7322562,118.032128 L52.7322562,117.7136 L54.3705018,117.7136 L54.3705018,118.032128 Z M56.5359989,120.536 L56.5359989,118.048256 L55.7249463,118.048256 L55.7249463,117.7136 L57.6940691,117.7136 L57.6940691,118.048256 L56.8830165,118.048256 L56.8830165,120.536 L56.5359989,120.536 Z M59.0121978,120.536 L59.0121978,117.7136 L59.3592153,117.7136 L59.3592153,120.201344 L60.7028996,120.201344 L60.7028996,120.536 L59.0121978,120.536 Z M62.1703265,120.536 L62.1703265,117.7136 L63.8247125,117.7136 L63.8247125,118.044224 L62.517344,118.044224 L62.517344,118.911104 L63.4090984,118.911104 L63.4090984,119.241728 L62.517344,119.241728 L62.517344,120.205376 L63.9094493,120.205376 L63.9094493,120.536 L62.1703265,120.536 Z"/><path fill="#000000" d="M205.707125,126.226286 C205.707125,126.256835 205.712272,126.287385 205.722565,126.317934 C205.732859,126.348484 205.753446,126.373942 205.784327,126.394308 L207.266604,127.860687 C207.379834,127.982885 207.495636,127.985431 207.614013,127.868324 C207.73239,127.751217 207.729817,127.636657 207.606293,127.524642 L206.556346,126.470682 L211.389187,126.470682 C211.461243,126.470682 211.52043,126.447771 211.566752,126.401946 C211.613073,126.356121 211.636233,126.297568 211.636233,126.226286 C211.636233,126.155003 211.613073,126.096451 211.566752,126.050625 C211.52043,126.004801 211.461243,125.981889 211.389187,125.981889 L206.556346,125.981889 L207.606293,124.92793 C207.729817,124.815914 207.73239,124.701355 207.614013,124.584247 C207.495636,124.46714 207.379834,124.469686 207.266604,124.591885 L205.784327,126.058263 C205.753446,126.078629 205.732859,126.104088 205.722565,126.134637 C205.712272,126.165187 205.707125,126.195736 205.707125,126.226286 Z" transform="rotate(-90 208.672 126.226)"/><path fill="#000000" d="M111.829574,69.1199999 C111.829574,69.6000035 111.661446,70.0079995 111.325188,70.3440002 C110.988928,70.6800008 110.58062,70.8480002 110.100251,70.8480002 C109.619881,70.8480002 109.211573,70.6800008 108.875313,70.3440002 C108.539055,70.0079995 108.370927,69.6000035 108.370927,69.1199999 C108.370927,68.6399984 108.539055,68.2320023 108.875313,67.8959997 C109.211573,67.559999 109.619881,67.3919997 110.100251,67.3919997 C110.58062,67.3919997 110.988928,67.559999 111.325188,67.8959997 C111.661446,68.2320023 111.829574,68.6399984 111.829574,69.1199999 Z M121.05263,72.5760004 L121.05263,76.6080003 L108.370927,76.6080003 L108.370927,74.8800001 L111.253134,72.000001 L112.694235,73.4399995 L117.305765,68.8320002 L121.05263,72.5760004 Z M121.917293,66.2400008 L107.506266,66.2400008 C107.428205,66.2400008 107.360654,66.268499 107.303611,66.3254994 C107.246567,66.3824998 107.218045,66.4499995 107.218045,66.5280005 L107.218045,77.4720001 C107.218045,77.5500005 107.246567,77.6174998 107.303611,77.6745 C107.360654,77.7315004 107.428205,77.76 107.506266,77.76 L121.917293,77.76 C121.995354,77.76 122.062903,77.7315004 122.119947,77.6745 C122.176991,77.6174998 122.205513,77.5500005 122.205513,77.4720001 L122.205513,66.5280005 C122.205513,66.4499995 122.176991,66.3824998 122.119947,66.3254994 C122.062903,66.268499 121.995354,66.2400008 121.917293,66.2400008 Z M123.358396,66.5280005 L123.358396,77.4720001 C123.358396,77.8680019 123.217289,78.2069986 122.935071,78.4890001 C122.652853,78.7710014 122.313597,78.912 121.917293,78.912 L107.506266,78.912 C107.10996,78.912 106.770704,78.7710014 106.488487,78.4890001 C106.206269,78.2069986 106.065163,77.8680019 106.065163,77.4720001 L106.065163,66.5280005 C106.065163,66.1319977 106.206269,65.7930012 106.488487,65.5110011 C106.770704,65.228999 107.10996,65.088 107.506266,65.088 L121.917293,65.088 C122.313597,65.088 122.652853,65.228999 122.935071,65.5110011 C123.217289,65.7930012 123.358396,66.1319977 123.358396,66.5280005 Z"/></g></svg>