<svg xmlns="http://www.w3.org/2000/svg" width="230" height="144" style="background:#fff" viewBox="0 0 230 144"><g fill="none" fill-rule="evenodd"><path fill="#111111" d="M1.75353959,4.58930481 L2.46879916,4.58930481 L2.11886034,2.08877005 L1.75353959,4.58930481 Z M0,6.86898396 L1.49589233,0.131016043 L2.73413739,0.131016043 L4.22618423,6.86898396 L2.84565635,6.86898396 L2.56109072,5.42780749 L1.65740255,5.42780749 L1.38821884,6.86898396 L0,6.86898396 Z M4.58381402,4.76149733 L4.58381402,2.38823529 C4.58381402,0.796070471 5.26445745,0 6.62576473,0 C6.91289545,0 7.16861742,0.0368089011 7.3929383,0.110427807 C7.61725918,0.184046714 7.80504498,0.285739102 7.95630135,0.415508021 C8.10755771,0.545276941 8.2318937,0.704990139 8.32931306,0.894652406 C8.42673241,1.08431467 8.4972322,1.29019497 8.54081454,1.51229947 C8.58439689,1.73440396 8.60618773,1.9789648 8.60618773,2.2459893 L8.60618773,2.64278075 L7.26796015,2.64278075 L7.26796015,2.17112299 C7.26796015,2.05383186 7.26475561,1.95089171 7.25834644,1.86229947 C7.25193727,1.77370722 7.2359146,1.67513423 7.21027792,1.56657754 C7.18464125,1.45802085 7.15003226,1.36880605 7.10644992,1.29893048 C7.06286758,1.22905491 7.00005868,1.17041022 6.91802132,1.12299465 C6.83598397,1.07557909 6.73856608,1.05187166 6.62576473,1.05187166 C6.19763231,1.05187166 5.98356931,1.38377565 5.98356931,2.04759358 L5.98356931,4.95614973 C5.98356931,5.61747211 6.19763231,5.94812834 6.62576473,5.94812834 C7.05133348,5.94812834 7.26411467,5.60499452 7.26411467,4.91871658 L7.26411467,4.37967914 L6.47194546,4.37967914 L6.47194546,3.4026738 L8.66386995,3.4026738 L8.66386995,6.86898396 L7.70249956,6.86898396 L7.52560741,6.3973262 C7.40767872,6.57700625 7.23976104,6.72237021 7.02184933,6.83342246 C6.80393762,6.94447471 6.5796201,7 6.34889005,7 C6.10021434,7 5.8739741,6.95570454 5.67016256,6.8671123 C5.46635102,6.77852006 5.29843334,6.66123068 5.16640447,6.51524064 C5.03437561,6.36925061 4.92349867,6.1976837 4.83377032,6.00053476 C4.74404197,5.80338582 4.67995125,5.60187269 4.64149624,5.3959893 C4.60304123,5.19010592 4.58381402,4.97861071 4.58381402,4.76149733 Z M9.43296626,6.86898396 L9.43296626,0.127272727 L10.4404824,0.127272727 L11.9594476,3.65347594 L11.9594476,0.127272727 L13.1207831,0.127272727 L13.1207831,6.86898396 L12.1517217,6.86898396 L10.636602,3.12941176 L10.636602,6.86898396 L9.43296626,6.86898396 Z M13.8552701,4.61925134 L13.8552701,2.38823529 C13.8552701,0.796070471 14.5243772,0 15.8626114,0 C16.1446148,0 16.3952095,0.0368089011 16.6144031,0.110427807 C16.8335966,0.184046714 17.017537,0.285739102 17.1662297,0.415508021 C17.3149224,0.545276941 17.4373356,0.704990139 17.5334732,0.894652406 C17.6296107,1.08431467 17.6988287,1.29019497 17.7411292,1.51229947 C17.7834297,1.73440396 17.8045796,1.9789648 17.8045796,2.2459893 L17.8045796,2.82620321 L16.4278972,2.82620321 L16.4278972,2.20481283 C16.4278972,2.08253058 16.4253336,1.97709492 16.4202063,1.88850267 C16.4150789,1.79991043 16.4016199,1.69884192 16.3798287,1.58529412 C16.3580375,1.47174631 16.3285558,1.37941212 16.2913826,1.30828877 C16.2542095,1.23716542 16.1990914,1.17664909 16.1260269,1.12673797 C16.0529624,1.07682684 15.9651581,1.05187166 15.8626114,1.05187166 C15.457552,1.05187166 15.2550253,1.38377565 15.2550253,2.04759358 L15.2550253,4.95614973 C15.2550253,5.61747211 15.457552,5.94812834 15.8626114,5.94812834 C15.9831038,5.94812834 16.0843671,5.91443884 16.1664045,5.84705882 C16.2484418,5.77967881 16.3074053,5.68422522 16.3432966,5.56069519 C16.379188,5.43716516 16.4035424,5.3161325 16.4163608,5.19759358 C16.4291791,5.07905467 16.4355882,4.94367278 16.4355882,4.79144385 L16.4355882,4.09893048 L17.8045796,4.09893048 L17.8045796,4.66791444 C17.7994523,4.92495672 17.7776614,5.162031 17.7392064,5.37914439 C17.7007514,5.59625777 17.6353789,5.8071291 17.5430869,6.01176471 C17.4507949,6.21640031 17.3335088,6.38921498 17.1912253,6.5302139 C17.0489418,6.67121283 16.8650014,6.78475893 16.6393987,6.87085561 C16.413796,6.9569523 16.1548695,7 15.8626114,7 C15.5626624,7 15.2966859,6.95820006 15.064674,6.87459893 C14.8326621,6.7909978 14.6416718,6.67869946 14.4916973,6.53770053 C14.3417227,6.39670161 14.2180276,6.22326306 14.1206083,6.01737968 C14.0231889,5.8114963 13.9546119,5.59501005 13.914875,5.36791444 C13.8751382,5.14081883 13.8552701,4.89126696 13.8552701,4.61925134 Z M19.3427722,6.86898396 L19.3427722,4.64171123 L18.0429995,0.131016043 L19.3619997,0.131016043 L20.0080406,3.09197861 C20.0875142,2.76755631 20.206723,2.27406748 20.3656703,1.61149733 C20.5246177,0.948927168 20.6425446,0.455438342 20.7194546,0.131016043 L22,0.131016043 L20.6963818,4.64171123 L20.6963818,6.86898396 L19.3427722,6.86898396 Z" transform="translate(14 14)"/><rect width="230" height="72" y="72" fill="#EAEAEA"/><path fill="#4D4C4C" d="M15,46.9502762 L15,44.0497238 L15.8696081,44.0497238 C16.0333314,44.0497238 16.1762517,44.0745854 16.2983732,44.1243094 C16.4204947,44.1740334 16.5151039,44.2410217 16.5822036,44.3252762 C16.6493033,44.4095308 16.6989564,44.5013807 16.7311642,44.6008287 C16.7633721,44.7002767 16.7794758,44.8066293 16.7794758,44.9198895 C16.7794758,45.1491724 16.7036542,45.3508279 16.5520089,45.5248619 C16.4003635,45.6988959 16.1728988,45.7859116 15.8696081,45.7859116 L15.3462328,45.7859116 L15.3462328,46.9502762 L15,46.9502762 Z M15.3462328,45.4544199 L15.8937639,45.4544199 C16.0789591,45.4544199 16.2158405,45.4019342 16.3044121,45.2969613 C16.3929837,45.1919884 16.4372689,45.0662991 16.4372689,44.9198895 C16.4372689,44.7762424 16.3949967,44.6498624 16.3104511,44.5407459 C16.2259054,44.4316293 16.0870111,44.3770718 15.8937639,44.3770718 L15.3462328,44.3770718 L15.3462328,45.4544199 Z M19.9022814,44.8743094 C19.9022814,45.0621556 19.8519573,45.2313528 19.7513077,45.3819061 C19.6506581,45.5324593 19.4956601,45.6312152 19.286309,45.6781768 L19.8902035,46.9502762 L19.507737,46.9502762 L18.9199463,45.7071823 L18.4972202,45.7071823 L18.4972202,46.9502762 L18.1509873,46.9502762 L18.1509873,44.0497238 L19.0165694,44.0497238 C19.3305961,44.0497238 19.5567188,44.1277617 19.6949442,44.2838398 C19.8331697,44.4399179 19.9022814,44.6367391 19.9022814,44.8743094 Z M18.4972202,44.3770718 L18.4972202,45.3798343 L19.0246214,45.3798343 C19.2125006,45.3798343 19.348711,45.3321828 19.4332566,45.2368785 C19.5178023,45.1415741 19.5600745,45.0234814 19.5600745,44.8825967 C19.5600745,44.7499993 19.5184733,44.6325972 19.4352696,44.5303867 C19.352066,44.4281763 19.2151846,44.3770718 19.0246214,44.3770718 L18.4972202,44.3770718 Z M22.1554789,47 C21.9863876,47 21.8380994,46.9571827 21.7106099,46.871547 C21.5831204,46.7859112 21.4831434,46.6698902 21.4106757,46.5234807 C21.3382079,46.3770711 21.284529,46.2182329 21.2496371,46.0469613 C21.2147453,45.8756898 21.1972996,45.6933711 21.1972996,45.5 C21.1972996,45.3066289 21.2147453,45.1243102 21.2496371,44.9530387 C21.284529,44.7817671 21.3382079,44.6229289 21.4106757,44.4765193 C21.4831434,44.3301098 21.5831204,44.2140888 21.7106099,44.128453 C21.8380994,44.0428173 21.9863876,44 22.1554789,44 C22.3245702,44 22.4728583,44.0428173 22.6003478,44.128453 C22.7278373,44.2140888 22.8284854,44.3301098 22.9022951,44.4765193 C22.9761048,44.6229289 23.0304547,44.7817671 23.0653466,44.9530387 C23.1002384,45.1243102 23.1176841,45.3066289 23.1176841,45.5 C23.1176841,45.6933711 23.1002384,45.8756898 23.0653466,46.0469613 C23.0304547,46.2182329 22.9761048,46.3770711 22.9022951,46.5234807 C22.8284854,46.6698902 22.7278373,46.7859112 22.6003478,46.871547 C22.4728583,46.9571827 22.3245702,47 22.1554789,47 Z M22.1554789,46.6685083 C22.2923623,46.6685083 22.4077721,46.6077354 22.5017117,46.4861878 C22.5956513,46.3646403 22.6614081,46.2196141 22.6989839,46.051105 C22.7365598,45.8825958 22.7553474,45.698896 22.7553474,45.5 C22.7553474,45.1657442 22.7063653,44.8874321 22.6083997,44.6650552 C22.5104341,44.4426784 22.359462,44.3314917 22.1554789,44.3314917 C22.0159114,44.3314917 21.8998307,44.391574 21.807233,44.5117403 C21.7146354,44.6319067 21.6495497,44.7762423 21.6119738,44.9447514 C21.574398,45.1132605 21.5556103,45.2983415 21.5556103,45.5 C21.5556103,45.8342558 21.6045924,46.1125679 21.702558,46.3349448 C21.8005236,46.5573216 21.9514957,46.6685083 22.1554789,46.6685083 Z M25.2581546,47 C24.8609243,47 24.5911874,46.8232062 24.448936,46.4696133 L24.7347794,46.320442 C24.7911432,46.444752 24.8562289,46.5338395 24.9300386,46.5877072 C25.0038483,46.6415749 25.1145612,46.6685083 25.2621806,46.6685083 C25.412484,46.6685083 25.5386296,46.6194756 25.6406211,46.5214088 C25.7426127,46.4233421 25.7936077,46.2610509 25.7936077,46.0345304 L25.7936077,44.0497238 L26.1398406,44.0497238 L26.1398406,46.0096685 C26.1398406,46.1643654 26.1210529,46.3011044 26.0834771,46.4198895 C26.0459013,46.5386746 25.9982612,46.6339775 25.9405554,46.7058011 C25.8828496,46.7776247 25.8144089,46.8363257 25.7352313,46.8819061 C25.6560536,46.9274864 25.5775481,46.9585635 25.4997124,46.9751381 C25.4218767,46.9917128 25.3413583,47 25.2581546,47 Z M27.6039493,46.9502762 L27.6039493,44.0497238 L29.2545942,44.0497238 L29.2545942,44.3895028 L27.9501821,44.3895028 L27.9501821,45.2803867 L28.83992,45.2803867 L28.83992,45.6201657 L27.9501821,45.6201657 L27.9501821,46.6104972 L29.3391395,46.6104972 L29.3391395,46.9502762 L27.6039493,46.9502762 Z M31.7090899,47 C31.5614705,47 31.4266021,46.9716854 31.3044806,46.9150552 C31.1823591,46.8584251 31.081711,46.782459 31.0025333,46.6871547 C30.9233557,46.5918504 30.8569279,46.4792824 30.8032482,46.3494475 C30.7495684,46.2196126 30.7106511,46.0842548 30.6864952,45.9433702 C30.6623393,45.8024855 30.6502616,45.6546969 30.6502616,45.5 C30.6502616,45.2348053 30.6851529,44.9924044 30.7549366,44.7727901 C30.8247203,44.5531757 30.9414721,44.3694759 31.1051954,44.2216851 C31.2689187,44.0738943 31.4702149,44 31.7090899,44 C32.0660604,44 32.3223775,44.171269 32.4780489,44.5138122 L32.1720757,44.6837017 C32.1130279,44.5704414 32.0486132,44.4834257 31.9788294,44.4226519 C31.9090457,44.3618781 31.8191335,44.3314917 31.7090899,44.3314917 C31.5856264,44.3314917 31.4769265,44.3667124 31.3829869,44.4371547 C31.2890473,44.507597 31.2159097,44.6008281 31.1635719,44.7168508 C31.1112341,44.8328735 31.0723168,44.9564911 31.0468189,45.0877072 C31.0213211,45.2189233 31.0085723,45.3563529 31.0085723,45.5 C31.0085723,45.7071834 31.0320568,45.8957174 31.0790267,46.0656077 C31.1259965,46.2354981 31.203831,46.3784525 31.3125325,46.4944751 C31.4212341,46.6104978 31.5534185,46.6685083 31.7090899,46.6685083 C31.923809,46.6685083 32.0875299,46.5455813 32.2002574,46.2997238 L32.5102566,46.4198895 C32.4404729,46.5911611 32.3391538,46.7306624 32.2062964,46.8383978 C32.0734389,46.9461331 31.9077051,47 31.7090899,47 Z M34.5863117,46.9502762 L34.5863117,44.3936464 L33.7770931,44.3936464 L33.7770931,44.0497238 L35.7417632,44.0497238 L35.7417632,44.3936464 L34.9325446,44.3936464 L34.9325446,46.9502762 L34.5863117,46.9502762 Z M41.0815326,47 C40.8668135,47 40.6782661,46.9392271 40.5158848,46.8176796 C40.3535034,46.696132 40.2427905,46.5428186 40.1837428,46.3577348 L40.5058199,46.2375691 C40.5594996,46.3701664 40.6386761,46.4758283 40.7433517,46.554558 C40.8480273,46.6332877 40.966121,46.6726519 41.0976365,46.6726519 C41.2452559,46.6726519 41.3620076,46.6305253 41.4478953,46.5462707 C41.5337829,46.4620162 41.5767261,46.3425422 41.5767261,46.1878453 C41.5767261,45.9364628 41.3875077,45.7265202 41.0090653,45.558011 C40.9017057,45.5110495 40.8117934,45.4661604 40.7393257,45.4233425 C40.666858,45.3805246 40.5910365,45.3252766 40.5118588,45.2575967 C40.4326811,45.1899168 40.3722923,45.1098071 40.3306905,45.0172652 C40.2890886,44.9247233 40.268288,44.8204426 40.268288,44.7044199 C40.268288,44.5055239 40.3394127,44.3383985 40.4816641,44.2030387 C40.6239155,44.0676789 40.8131339,44 41.0493249,44 C41.2398881,44 41.402938,44.0476515 41.5384794,44.1429558 C41.6740209,44.2382601 41.7619202,44.3618777 41.80218,44.5138122 L41.4841289,44.621547 C41.4492371,44.5359112 41.3928742,44.4654699 41.3150385,44.410221 C41.2372028,44.3549721 41.1446066,44.3273481 41.037247,44.3273481 C40.9110995,44.3273481 40.8104515,44.3611875 40.7352998,44.4288674 C40.6601481,44.4965473 40.6225728,44.5883972 40.6225728,44.7044199 C40.6225728,44.7707186 40.6366635,44.8301102 40.6648454,44.8825967 C40.6930273,44.9350831 40.7379834,44.9834252 40.7997152,45.0276243 C40.8614469,45.0718234 40.9171389,45.1077347 40.9667927,45.1353591 C41.0164464,45.1629836 41.0882421,45.1975136 41.1821817,45.2389503 C41.2841733,45.2859118 41.3720726,45.3328727 41.4458823,45.3798343 C41.519692,45.4267958 41.5975265,45.4875687 41.6793882,45.5621547 C41.7612498,45.6367407 41.8236516,45.7258282 41.8665954,45.8294199 C41.9095393,45.9330116 41.9310109,46.0483419 41.9310109,46.1754144 C41.9310109,46.4323217 41.8518344,46.6339772 41.693479,46.7803867 C41.5351237,46.9267963 41.3311436,47 41.0815326,47 Z M44.2123901,47 C43.6084926,47 43.3065484,46.6174071 43.3065484,45.8522099 L43.3065484,44.0497238 L43.6527812,44.0497238 L43.6527812,45.8522099 C43.6527812,46.3964116 43.8393156,46.6685083 44.2123901,46.6685083 C44.5854646,46.6685083 44.771999,46.3964116 44.771999,45.8522099 L44.771999,44.0497238 L45.1222578,44.0497238 L45.1222578,45.8522099 C45.1222578,46.250002 45.0417394,46.5407449 44.8807,46.7244475 C44.7196607,46.9081501 44.4968929,47 44.2123901,47 Z M46.5098732,46.9502762 L46.5098732,44.0497238 L47.3190918,44.0497238 C47.6277506,44.0497238 47.8505183,44.1222368 47.9874017,44.2672652 C48.1242852,44.4122935 48.1927259,44.5939216 48.1927259,44.8121547 C48.1927259,44.9530394 48.1558216,45.0759663 48.0820119,45.1809392 C48.0082022,45.2859121 47.9055411,45.3660218 47.7740257,45.4212707 C47.932381,45.4654698 48.0585266,45.5497231 48.1524662,45.6740331 C48.2464059,45.7983432 48.293375,45.9488941 48.293375,46.1256906 C48.293375,46.3549735 48.2209083,46.549723 48.0759729,46.7099448 C47.9310375,46.8701665 47.698876,46.9502762 47.3794813,46.9502762 L46.5098732,46.9502762 Z M46.8561061,45.2845304 L47.2506505,45.2845304 C47.4492656,45.2845304 47.6002378,45.2430943 47.7035713,45.160221 C47.8069049,45.0773477 47.8585709,44.9640891 47.8585709,44.820442 C47.8585709,44.5248604 47.6854562,44.3770718 47.3392217,44.3770718 L46.8561061,44.3770718 L46.8561061,45.2845304 Z M46.8561061,46.6229282 L47.4237669,46.6229282 C47.6170141,46.6229282 47.7545665,46.5773485 47.8364281,46.4861878 C47.9182898,46.3950272 47.95922,46.2803874 47.95922,46.1422652 C47.95922,45.7831474 47.7377942,45.6035912 47.2949361,45.6035912 L46.8561061,45.6035912 L46.8561061,46.6229282 Z M50.3412483,46.9502762 L50.3412483,44.3936464 L49.5320297,44.3936464 L49.5320297,44.0497238 L51.4966998,44.0497238 L51.4966998,44.3936464 L50.6874812,44.3936464 L50.6874812,46.9502762 L50.3412483,46.9502762 Z M54.4826226,44.3770718 L53.8384685,44.3770718 L53.8384685,46.6229282 L54.4826226,46.6229282 L54.4826226,46.9502762 L52.8480815,46.9502762 L52.8480815,46.6229282 L53.4922357,46.6229282 L53.4922357,44.3770718 L52.8480815,44.3770718 L52.8480815,44.0497238 L54.4826226,44.0497238 L54.4826226,44.3770718 Z M56.643223,46.9502762 L56.643223,44.3936464 L55.8340044,44.3936464 L55.8340044,44.0497238 L57.7986744,44.0497238 L57.7986744,44.3936464 L56.9894558,44.3936464 L56.9894558,46.9502762 L56.643223,46.9502762 Z M59.1138225,46.9502762 L59.1138225,44.0497238 L59.4600553,44.0497238 L59.4600553,46.6063536 L60.8007011,46.6063536 L60.8007011,46.9502762 L59.1138225,46.9502762 Z M62.2648098,46.9502762 L62.2648098,44.0497238 L63.9154548,44.0497238 L63.9154548,44.3895028 L62.6110427,44.3895028 L62.6110427,45.2803867 L63.5007806,45.2803867 L63.5007806,45.6201657 L62.6110427,45.6201657 L62.6110427,46.6104972 L64,46.6104972 L64,46.9502762 L62.2648098,46.9502762 Z"/><path fill="#000000" d="M111.666667,106.083333 C111.666667,106.569448 111.50139,106.982638 111.170833,107.322917 C110.840275,107.663195 110.43889,107.833334 109.966666,107.833334 C109.494443,107.833334 109.093058,107.663195 108.7625,107.322917 C108.431943,106.982638 108.266666,106.569448 108.266666,106.083333 C108.266666,105.597221 108.431943,105.18403 108.7625,104.84375 C109.093058,104.503471 109.494443,104.333333 109.966666,104.333333 C110.43889,104.333333 110.840275,104.503471 111.170833,104.84375 C111.50139,105.18403 111.666667,105.597221 111.666667,106.083333 Z M120.733332,109.583334 L120.733332,113.666667 L108.266666,113.666667 L108.266666,111.916667 L111.100001,109.000001 L112.516666,110.458333 L117.05,105.791667 L120.733332,109.583334 Z M121.583333,103.166668 L107.416667,103.166668 C107.33993,103.166668 107.273524,103.195529 107.217448,103.253255 C107.161371,103.310981 107.133333,103.37934 107.133333,103.458334 L107.133333,114.541667 C107.133333,114.62066 107.161371,114.689019 107.217448,114.746745 C107.273524,114.804471 107.33993,114.833333 107.416667,114.833333 L121.583333,114.833333 C121.66007,114.833333 121.726474,114.804471 121.782551,114.746745 C121.838627,114.689019 121.866666,114.62066 121.866666,114.541667 L121.866666,103.458334 C121.866666,103.37934 121.838627,103.310981 121.782551,103.253255 C121.726474,103.195529 121.66007,103.166668 121.583333,103.166668 Z M123,103.458334 L123,114.541667 C123,114.94271 122.861286,115.286023 122.583853,115.571615 C122.30642,115.857206 121.972917,116 121.583333,116 L107.416667,116 C107.027081,116 106.693578,115.857206 106.416146,115.571615 C106.138714,115.286023 106,114.94271 106,114.541667 L106,103.458334 C106,103.057289 106.138714,102.713977 106.416146,102.428387 C106.693578,102.142794 107.027081,102 107.416667,102 L121.583333,102 C121.972917,102 122.30642,102.142794 122.583853,102.428387 C122.861286,102.713977 123,103.057289 123,103.458334 Z"/><path fill="#111111" d="M16.7919922,57.9453125 C16.8863937,57.9453125 16.9702145,57.9396159 17.043457,57.9282227 C17.1166996,57.9168294 17.1809893,57.9038087 17.2363281,57.8891602 C17.2916669,57.8745116 17.3404946,57.8476564 17.3828125,57.8085938 C17.4251304,57.7695311 17.4601236,57.7353517 17.487793,57.7060547 C17.5154624,57.6767577 17.5390624,57.6287438 17.5585938,57.5620117 C17.5781251,57.4952796 17.5927734,57.4407554 17.6025391,57.3984375 C17.6123047,57.3561196 17.6196289,57.2877609 17.6245117,57.1933594 C17.6293946,57.0989579 17.6318359,57.023275 17.6318359,56.9663086 L17.6318359,56.6269531 C17.6318359,56.4999994 17.6310221,56.4039717 17.6293945,56.3388672 C17.6277669,56.2737627 17.6220704,56.1907557 17.6123047,56.0898438 C17.602539,55.9889318 17.5870769,55.913249 17.565918,55.862793 C17.544759,55.812337 17.5138348,55.7545576 17.4731445,55.6894531 C17.4324542,55.6243486 17.3828128,55.5771486 17.3242188,55.5478516 C17.2656247,55.5185545 17.1915695,55.4925131 17.1020508,55.4697266 C17.0125321,55.44694 16.9091803,55.4355469 16.7919922,55.4355469 L16.7919922,57.9453125 Z M15,62.9599609 L15,54.1708984 L17.1240234,54.1708984 C17.8890012,54.1708984 18.4456363,54.3841125 18.7939453,54.8105469 C19.1422543,55.2369813 19.3164062,55.8538371 19.3164062,56.6611328 C19.3164062,57.0582702 19.2781579,57.4033188 19.2016602,57.6962891 C19.1251624,57.9892593 19.0185554,58.2309561 18.8818359,58.4213867 C18.7451165,58.6118174 18.569337,58.7648106 18.3544922,58.8803711 C18.1396474,58.9959316 17.9069023,59.077311 17.65625,59.1245117 C17.4055977,59.1717125 17.1158871,59.1969401 16.7871094,59.2001953 L16.7871094,62.9599609 L15,62.9599609 Z M21.7675781,57.828125 L22.2753906,57.828125 C22.4121101,57.828125 22.5292964,57.7825525 22.6269531,57.6914062 C22.7246099,57.60026 22.7954099,57.4847012 22.8393555,57.3447266 C22.883301,57.2047519 22.9142252,57.0761725 22.9321289,56.9589844 C22.9500326,56.8417963 22.9589844,56.7311203 22.9589844,56.6269531 C22.9589844,56.5227859 22.9516602,56.4153651 22.9370117,56.3046875 C22.9223632,56.1940099 22.8963218,56.071127 22.8588867,55.9360352 C22.8214516,55.8009433 22.7596033,55.6902674 22.6733398,55.6040039 C22.5870764,55.5177405 22.482097,55.4746094 22.3583984,55.4746094 L21.7675781,55.4746094 L21.7675781,57.828125 Z M19.9902344,62.9599609 L19.9902344,54.1708984 L21.9238281,54.1708984 C22.3632834,54.1708984 22.7498356,54.2124019 23.0834961,54.2954102 C23.4171566,54.3784184 23.7093086,54.5086254 23.9599609,54.6860352 C24.2106132,54.8634449 24.401041,55.1027003 24.53125,55.4038086 C24.661459,55.7049169 24.7265625,56.0654276 24.7265625,56.4853516 C24.7265625,56.6676441 24.7200521,56.8304029 24.7070312,56.9736328 C24.6940104,57.1168627 24.6639,57.2804353 24.6166992,57.4643555 C24.5694985,57.6482757 24.5052087,57.8110344 24.4238281,57.9526367 C24.3424475,58.094239 24.2252612,58.2333978 24.0722656,58.3701172 C23.9192701,58.5068366 23.7386078,58.6207678 23.5302734,58.7119141 C24.0576198,60.3850995 24.5165996,61.801101 24.9072266,62.9599609 L23.0664062,62.9599609 L22.0605469,58.9121094 L21.7675781,58.9121094 L21.7675781,62.9599609 L19.9902344,62.9599609 Z M25.3564453,60.0693359 L25.3564453,57.1152344 C25.3564453,55.0384011 26.2125565,54 27.9248047,54 C29.6403081,54 30.4980469,55.0384011 30.4980469,57.1152344 L30.4980469,60.0253906 C30.4980469,60.3769549 30.4720055,60.7016587 30.4199219,60.9995117 C30.3678383,61.2973648 30.2791347,61.5797513 30.1538086,61.8466797 C30.0284824,62.1136081 29.8689788,62.3406566 29.675293,62.527832 C29.4816071,62.7150074 29.2366551,62.8623042 28.9404297,62.9697266 C28.6442042,63.077149 28.305666,63.1308594 27.9248047,63.1308594 C27.5471986,63.1308594 27.2102879,63.0779628 26.9140625,62.972168 C26.6178371,62.8663732 26.3736989,62.7231454 26.1816406,62.5424805 C25.9895824,62.3618155 25.8308926,62.1404635 25.7055664,61.878418 C25.5802403,61.6163724 25.4907229,61.3372411 25.4370117,61.0410156 C25.3833005,60.7447902 25.3564453,60.4209002 25.3564453,60.0693359 Z M28.7207031,60.4697266 L28.7207031,56.6708984 C28.7207031,55.8050087 28.4554063,55.3720703 27.9248047,55.3720703 C27.7652987,55.3720703 27.6302089,55.4119462 27.5195312,55.4916992 C27.4088536,55.5714522 27.3274742,55.6805006 27.2753906,55.8188477 C27.223307,55.9571947 27.1866863,56.0939121 27.1655273,56.2290039 C27.1443684,56.3640957 27.1337891,56.5113924 27.1337891,56.6708984 L27.1337891,60.4697266 C27.1337891,61.3323611 27.3974583,61.7636719 27.9248047,61.7636719 C28.4554063,61.7636719 28.7207031,61.3323611 28.7207031,60.4697266 Z M30.9082031,63.1259766 L30.9082031,61.8759766 C31.3378928,61.882487 31.6243482,61.8181973 31.7675781,61.6831055 C31.910808,61.5480136 31.9824219,61.2656271 31.9824219,60.8359375 L31.9824219,54.1708984 L33.7597656,54.1708984 L33.7597656,60.8505859 C33.7597656,61.1728532 33.7443035,61.4471017 33.7133789,61.6733398 C33.6824543,61.899578 33.6246749,62.1095368 33.5400391,62.3032227 C33.4554032,62.4969085 33.3398445,62.6507156 33.1933594,62.7646484 C33.0468743,62.8785813 32.8572603,62.9672848 32.6245117,63.0307617 C32.3917632,63.0942386 32.1110042,63.1259766 31.7822266,63.1259766 L30.9082031,63.1259766 Z M34.8046875,62.9599609 L34.8046875,54.1708984 L38.4716797,54.1708984 L38.4716797,55.3916016 L36.5820312,55.3916016 L36.5820312,57.7841797 L37.9199219,57.7841797 L37.9199219,59.0341797 L36.5820312,59.0341797 L36.5820312,61.7392578 L38.4716797,61.7392578 L38.4716797,62.9599609 L34.8046875,62.9599609 Z M38.9941406,60.0253906 L38.9941406,57.1152344 C38.9941406,55.0384011 39.8437415,54 41.5429688,54 C41.9010435,54 42.2192369,54.0480138 42.4975586,54.144043 C42.7758803,54.2400721 43.0094392,54.3727205 43.1982422,54.5419922 C43.3870452,54.7112639 43.5424799,54.9195951 43.6645508,55.1669922 C43.7866217,55.4143893 43.8745115,55.6829413 43.9282227,55.9726562 C43.9819339,56.2623712 44.0087891,56.5813785 44.0087891,56.9296875 L44.0087891,57.6865234 L42.2607422,57.6865234 L42.2607422,56.8759766 C42.2607422,56.7164706 42.257487,56.5789394 42.2509766,56.4633789 C42.2444661,56.3478184 42.2273764,56.2159838 42.199707,56.0678711 C42.1720376,55.9197584 42.1346031,55.7993169 42.0874023,55.706543 C42.0402016,55.6137691 41.9702153,55.5348311 41.8774414,55.4697266 C41.7846675,55.4046221 41.6731777,55.3720703 41.5429688,55.3720703 C41.0286433,55.3720703 40.7714844,55.8050087 40.7714844,56.6708984 L40.7714844,60.4648438 C40.7714844,61.3274783 41.0286433,61.7587891 41.5429688,61.7587891 C41.6959643,61.7587891 41.8245438,61.7148442 41.9287109,61.6269531 C42.0328781,61.5390621 42.1077472,61.4145516 42.1533203,61.253418 C42.1988935,61.0922844 42.2298176,60.9344083 42.2460938,60.7797852 C42.2623699,60.625162 42.2705078,60.4485687 42.2705078,60.25 L42.2705078,59.3466797 L44.0087891,59.3466797 L44.0087891,60.0888672 C44.0022786,60.4241553 43.9746096,60.733397 43.9257812,61.0166016 C43.8769529,61.2998061 43.7939459,61.5748685 43.6767578,61.8417969 C43.5595697,62.1087253 43.4106454,62.3341462 43.2299805,62.5180664 C43.0493155,62.7019866 42.8157566,62.8500971 42.5292969,62.9624023 C42.2428371,63.0747076 41.9140644,63.1308594 41.5429688,63.1308594 C41.1621075,63.1308594 40.824383,63.0763352 40.5297852,62.9672852 C40.2351873,62.8582351 39.9926767,62.7117522 39.8022461,62.527832 C39.6118155,62.3439118 39.4547532,62.1176771 39.3310547,61.8491211 C39.2073562,61.5805651 39.1202802,61.2981786 39.0698242,61.0019531 C39.0193682,60.7057277 38.9941406,60.3802101 38.9941406,60.0253906 Z M45.6738281,62.9599609 L45.6738281,55.4990234 L44.3847656,55.4990234 L44.3847656,54.1708984 L48.7158203,54.1708984 L48.7158203,55.4990234 L47.4511719,55.4990234 L47.4511719,62.9599609 L45.6738281,62.9599609 Z M52.1435547,62.9599609 L52.1435547,55.4990234 L50.8544922,55.4990234 L50.8544922,54.1708984 L55.1855469,54.1708984 L55.1855469,55.4990234 L53.9208984,55.4990234 L53.9208984,62.9599609 L52.1435547,62.9599609 Z M55.7763672,62.9599609 L55.7763672,54.1708984 L57.5537109,54.1708984 L57.5537109,62.9599609 L55.7763672,62.9599609 Z M59.4335937,62.9599609 L59.4335937,55.4990234 L58.1445312,55.4990234 L58.1445312,54.1708984 L62.4755859,54.1708984 L62.4755859,55.4990234 L61.2109375,55.4990234 L61.2109375,62.9599609 L59.4335937,62.9599609 Z M63.0664062,62.9599609 L63.0664062,54.1708984 L64.84375,54.1708984 L64.84375,61.7392578 L66.5917969,61.7392578 L66.5917969,62.9599609 L63.0664062,62.9599609 Z M67.1582031,62.9599609 L67.1582031,54.1708984 L70.8251953,54.1708984 L70.8251953,55.3916016 L68.9355469,55.3916016 L68.9355469,57.7841797 L70.2734375,57.7841797 L70.2734375,59.0341797 L68.9355469,59.0341797 L68.9355469,61.7392578 L70.8251953,61.7392578 L70.8251953,62.9599609 L67.1582031,62.9599609 Z"/></g></svg>