<svg xmlns="http://www.w3.org/2000/svg" width="18" height="18" viewBox="0 0 18 18"><path fill="#000000" fill-rule="evenodd" d="M17.235,10.89 C17.5650019,11.6100029 17.73,12.3449962 17.73,13.095 C17.73,14.4450058 17.2500048,15.5999952 16.29,16.56 C15.3299952,17.5200048 14.1750058,18 12.825,18 C12.0149971,18 11.2500029,17.8050019 10.53,17.415 C10.049999,17.5050006 9.52500384,17.55 8.955,17.55 C6.61498848,17.55 4.6200096,16.7250082 2.97,15.075 C1.31999184,13.4249904 0.495,11.4300115 0.495,9.09 C0.495,8.66999808 0.554999328,8.10000288 0.675,7.38 C0.224997754,6.65999712 0,5.83500384 0,4.905 C0,3.55499424 0.4799952,2.4000048 1.44,1.44 C2.4000048,0.4799952 3.55499424,0 4.905,0 C5.8650048,0 6.7349952,0.25499808 7.515,0.765 C7.96500288,0.675 8.44499808,0.63 8.955,0.63 C11.2950115,0.63 13.2899904,1.4549904 14.94,3.105 C16.5900096,4.7550096 17.415,6.74998848 17.415,9.09 C17.415,9.7800048 17.355001,10.3799981 17.235,10.89 Z M13.32,13.14 C13.710001,12.6299981 13.905,12.0000038 13.905,11.25 C13.905,10.6799962 13.7850019,10.1850019 13.545,9.765 C13.334999,9.37499904 13.0200019,9.045 12.6,8.775 C12.1799981,8.47499904 11.7000029,8.25000192 11.16,8.1 C10.5599981,7.92 9.93000384,7.75500192 9.27,7.605 C8.78999904,7.48499904 8.40000096,7.39499904 8.1,7.335 L7.425,7.065 C7.335,7.03499904 7.17000192,6.90000192 6.93,6.66 C6.80999904,6.53999904 6.75,6.37500096 6.75,6.165 C6.75,5.83499808 6.92999712,5.56500096 7.29,5.355 C7.68000096,5.11499808 8.15999616,4.995 8.73,4.995 C9.45000288,4.995 9.92999808,5.09999904 10.17,5.31 C10.44,5.49 10.6949981,5.80499712 10.935,6.255 C11.145001,6.61500288 11.309999,6.84 11.43,6.93 C11.640001,7.08000192 11.88,7.155 12.15,7.155 C12.4800019,7.155 12.7649981,7.03500192 13.005,6.795 C13.2450019,6.55499808 13.365,6.28500096 13.365,5.985 C13.365,5.65499808 13.275,5.34000096 13.095,5.04 C12.884999,4.64999904 12.6150019,4.33500192 12.285,4.095 C11.9549981,3.85499808 11.4900019,3.63000096 10.89,3.42 C10.3499971,3.24 9.6900048,3.15 8.91,3.15 C7.88999616,3.15 7.06500288,3.26999808 6.435,3.51 C5.68499616,3.78 5.13000288,4.16999808 4.77,4.68 C4.40999712,5.16000096 4.23,5.72999616 4.23,6.39 C4.23,7.0800048 4.40999712,7.64999712 4.77,8.1 C5.07000096,8.49000096 5.54999616,8.83499904 6.21,9.135 C6.81000192,9.405 7.5449952,9.63 8.415,9.81 C9.34500384,10.020001 9.86999904,10.139999 9.99,10.17 C10.380001,10.3200019 10.679999,10.499999 10.89,10.71 C11.100001,10.920001 11.205,11.174999 11.205,11.475 C11.205,11.9250029 10.9950019,12.285 10.575,12.555 C10.1549981,12.855001 9.58500288,13.005 8.865,13.005 C8.41499712,13.005 8.01000288,12.9300019 7.65,12.78 C7.34999904,12.659999 7.11,12.4800019 6.93,12.24 C6.71999904,11.97 6.55500096,11.685001 6.435,11.385 C6.28499808,11.0549981 6.12,10.8 5.94,10.62 C5.76,10.4699981 5.52000096,10.395 5.22,10.395 C4.82999904,10.395 4.53000096,10.499999 4.32,10.71 C4.07999808,10.9500019 3.96,11.219999 3.96,11.52 C3.96,12.000001 4.13999712,12.5099971 4.5,13.05 C4.86000288,13.5600019 5.32499616,13.964999 5.895,14.265 C6.73500384,14.6850019 7.75499328,14.895 8.955,14.895 C9.97500384,14.895 10.8449971,14.745001 11.565,14.445 C12.3150038,14.144999 12.8999981,13.7100038 13.32,13.14 Z"/></svg>