<?xml version="1.0" encoding="UTF-8" standalone="no"?>
<svg width="20px" height="20px" viewBox="0 0 20 20" version="1.1" xmlns="http://www.w3.org/2000/svg" xmlns:xlink="http://www.w3.org/1999/xlink" xmlns:sketch="http://www.bohemiancoding.com/sketch/ns">
    <!-- Generator: Sketch 3.5.1 (25234) - http://www.bohemiancoding.com/sketch -->
    <title>blog_icon</title>
    <desc>Created with Sketch.</desc>
    <defs></defs>
    <g id="Page-1" stroke="none" stroke-width="1" fill="none" fill-rule="evenodd" sketch:type="MSPage">
        <g id="blog_icon" sketch:type="MSArtboardGroup" fill="#3E6274">
            <path d="M16.9953052,4.97652582 L16.9953052,3.00469484 L6.99530516,3.00469484 L6.99530516,4.97652582 L16.9953052,4.97652582 Z M13.0046948,13.0046948 L13.0046948,10.9859155 L6.99530516,10.9859155 L6.99530516,13.0046948 L13.0046948,13.0046948 Z M16.9953052,9.01408451 L16.9953052,6.99530516 L6.99530516,6.99530516 L6.99530516,9.01408451 L16.9953052,9.01408451 Z M18.028169,0 C18.5602524,0 19.0219087,0.195617653 19.413147,0.586852958 C19.8043823,0.978091268 20,1.43974761 20,1.97183099 L20,13.9906103 C20,14.5226937 19.8043823,14.9921743 19.413147,15.399061 C19.0219087,15.8059478 18.5602524,16.0093897 18.028169,16.0093897 L6.00938967,16.0093897 C5.47730629,16.0093897 5.00782573,15.8059478 4.60093897,15.399061 C4.19405221,14.9921743 3.99061033,14.5226937 3.99061033,13.9906103 L3.99061033,1.97183099 C3.99061033,1.43974761 4.19405221,0.978091268 4.60093897,0.586852958 C5.00782573,0.195617653 5.47730629,0 6.00938967,0 L18.028169,0 Z M1.97183099,3.99061033 L1.97183099,18.028169 L16.0093897,18.028169 L16.0093897,20 L1.97183099,20 C1.439747,20 0.97809277,19.8043838 0.58685446,19.4131455 C0.19561621,19.0219072 0,18.560253 0,18.028169 L0,3.99061033 L1.97183099,3.99061033 Z" id="Page-1" sketch:type="MSShapeGroup"></path>
        </g>
    </g>
</svg>