<?xml version="1.0" encoding="UTF-8" standalone="no"?>
<svg width="20px" height="20px" viewBox="0 0 20 20" version="1.1" xmlns="http://www.w3.org/2000/svg" xmlns:xlink="http://www.w3.org/1999/xlink" xmlns:sketch="http://www.bohemiancoding.com/sketch/ns">
    <!-- Generator: Sketch 3.5.1 (25234) - http://www.bohemiancoding.com/sketch -->
    <title>image_icon</title>
    <desc>Created with Sketch.</desc>
    <defs></defs>
    <g id="Page-1" stroke="none" stroke-width="1" fill="none" fill-rule="evenodd" sketch:type="MSPage">
        <g id="image_icon" sketch:type="MSArtboardGroup" fill="#3E6274">
            <path d="M6.09375,11.6666667 L2.23958333,16.6666667 L17.7604167,16.6666667 L12.7604167,10 L8.90625,15 L6.09375,11.6666667 Z M20,17.7604167 C20,18.3506973 19.7743067,18.8715257 19.3229167,19.3229167 C18.8715267,19.7743078 18.3506967,20 17.7604167,20 L2.23958333,20 C1.64930267,20 1.12847433,19.7743078 0.677083333,19.3229167 C0.2256922,18.8715257 0,18.3506973 0,17.7604167 L0,2.23958333 C0,1.64930333 0.2256922,1.12847333 0.677083333,0.677083333 C1.12847433,0.225693333 1.64930267,0 2.23958333,0 L17.7604167,0 C18.3506967,0 18.8715267,0.225693333 19.3229167,0.677083333 C19.7743067,1.12847333 20,1.64930333 20,2.23958333 L20,17.7604167 Z" id="Page-1" sketch:type="MSShapeGroup"></path>
        </g>
    </g>
</svg>