<svg xmlns="http://www.w3.org/2000/svg" width="24" height="24" viewBox="0 0 24 24" xmlns:xlink="http://www.w3.org/1999/xlink"><defs><rect id="a" width="268" height="60" rx="3"/><mask id="b" width="270" height="62" x="-1" y="-1"><rect width="270" height="62" x="-1" y="-1" fill="white"/><use fill="black" xlink:href="#a"/></mask></defs><g fill="none" fill-rule="evenodd"><g transform="translate(-122 -18)"><use stroke="#E5E5E5" stroke-width="2" mask="url(#b)" stroke-dasharray="4" xlink:href="#a"/><path fill="#000000" d="M17.015625,12.984375 L17.015625,11.015625 L12.984375,11.015625 L12.984375,6.984375 L11.015625,6.984375 L11.015625,11.015625 L6.984375,11.015625 L6.984375,12.984375 L11.015625,12.984375 L11.015625,17.015625 L12.984375,17.015625 L12.984375,12.984375 L17.015625,12.984375 Z M18.984375,3 C19.515627,3 19.984374,3.203124 20.390625,3.609375 C20.796876,4.015626 21,4.484373 21,5.015625 L21,18.984375 C21,19.5156276 20.796876,19.9843731 20.390625,20.390625 C19.984374,20.796877 19.515627,21 18.984375,21 L5.015625,21 C4.4531223,21 3.9765645,20.796877 3.5859375,20.390625 C3.19531056,19.9843731 3,19.5156276 3,18.984375 L3,5.015625 C3,4.484373 3.19531056,4.015626 3.5859375,3.609375 C3.9765645,3.203124 4.4531223,3 5.015625,3 L18.984375,3 Z" transform="translate(122 18)"/></g></g></svg>