<svg xmlns="http://www.w3.org/2000/svg" width="24" height="24" viewBox="0 0 24 24"><path fill="#000000" fill-rule="evenodd" d="M18.4615396,0.173075548 L18.4615396,3.98076669 L16.197116,3.98076669 C15.3701876,3.98076669 14.8125019,4.15384224 14.5240394,4.4999998 C14.2355769,4.84615413 14.0913457,5.36538077 14.0913457,6.05769266 L14.0913457,8.78365435 L18.3173084,8.78365435 L17.7548088,13.0528835 L14.0913457,13.0528835 L14.0913457,24 L9.67788529,24 L9.67788529,13.0528835 L6,13.0528835 L6,8.78365435 L9.67788529,8.78365435 L9.67788529,5.63942109 C9.67788529,3.85095115 10.1778792,2.4639463 11.1778863,1.47836455 C12.1778902,0.492782798 13.5096069,0 15.1730784,0 C16.5865465,0 17.6826884,0.0576918495 18.4615396,0.173075548 Z"/></svg>