<svg xmlns="http://www.w3.org/2000/svg" width="24" height="24" viewBox="0 0 24 24"><path fill="#171819" fill-rule="evenodd" d="M14.2879377,0 C11.610881,0 9.32296716,0.949406381 7.42412451,2.84824903 C5.52528187,4.74709167 4.57587549,7.03500551 4.57587549,9.71206226 C4.57587549,11.9844458 5.29182182,14.0233363 6.72373541,15.8287938 L0.326848249,22.2256809 C0.108948331,22.4124523 0,22.6536951 0,22.9494163 C0,23.2451376 0.101166309,23.4941623 0.303501946,23.6964981 C0.505837672,23.8988337 0.754862419,24 1.05058366,24 C1.3463049,24 1.58754774,23.8910517 1.77431907,23.6731518 L8.17120623,17.2762646 C9.97666366,18.7081782 12.0155542,19.4241245 14.2879377,19.4241245 C16.9649945,19.4241245 19.2529083,18.4747181 21.151751,16.5758755 C23.0505936,14.6770328 24,12.389119 24,9.71206226 C24,7.03500551 23.0505936,4.74709167 21.151751,2.84824903 C19.2529083,0.949406381 16.9649945,0 14.2879377,0 L14.2879377,0 Z M14.2879377,17.9299611 C12.0155542,17.9299611 10.0778305,17.1284141 8.47470967,15.5252903 C6.87158587,13.9221695 6.07003891,11.9844458 6.07003891,9.71206226 C6.07003891,7.43967875 6.87158587,5.50195499 8.47470967,3.89883418 C10.0778305,2.29571038 12.0155542,1.49416342 14.2879377,1.49416342 C16.5603212,1.49416342 18.498045,2.29571038 20.1011658,3.89883418 C21.7042896,5.50195499 22.5058366,7.43967875 22.5058366,9.71206226 C22.5058366,11.9844458 21.7042896,13.9221695 20.1011658,15.5252903 C18.498045,17.1284141 16.5603212,17.9299611 14.2879377,17.9299611 L14.2879377,17.9299611 Z" transform="matrix(-1 0 0 1 24 0)"/></svg>