<svg xmlns="http://www.w3.org/2000/svg" width="24" height="24" viewBox="0 0 24 24"><path fill="#000000" fill-rule="evenodd" d="M23.99706,4.31443931 C23.3169395,5.30924588 22.4947134,6.1568479 21.530358,6.85727265 C21.5405084,6.99938836 21.5455836,7.21256022 21.5455836,7.49678824 C21.5455836,8.8164312 21.352716,10.1335161 20.9669738,11.4480839 C20.5812351,12.7626482 19.9950158,14.0239026 19.2083059,15.2318844 C18.4215995,16.4398629 17.4851747,17.5082495 16.3990078,18.4370741 C15.3128409,19.3658991 14.0033687,20.1069175 12.4705539,20.6601521 C10.9377391,21.2133867 9.2983622,21.4899998 7.55237551,21.4899998 C4.80142844,21.4899998 2.28399564,20.7540565 0,19.2821484 C0.355288255,19.3227527 0.751175007,19.3430545 1.18767185,19.3430545 C3.47166578,19.3430545 5.50693181,18.6426397 7.29352347,17.2417881 C6.22765734,17.2214873 5.27346939,16.8941202 4.43092893,16.2596764 C3.58838846,15.6252326 3.00978511,14.8156945 2.69510149,13.8310383 C3.03008726,13.8817937 3.33969091,13.9071731 3.62392165,13.9071731 C4.06041918,13.9071731 4.49183469,13.8513425 4.91817841,13.7396814 C3.78125613,13.5062053 2.83975753,12.9402903 2.09365226,12.0419193 C1.34754699,11.1435483 0.974499989,10.1005376 0.974499989,8.91285992 L0.974499989,8.85195416 C1.66477401,9.23769632 2.40579283,9.44578958 3.19757793,9.47624416 C2.52760571,9.02959624 1.99468151,8.44591463 1.59878896,7.7251891 C1.20289641,7.00446015 1.00495321,6.22283908 1.00495321,5.38029862 C1.00495321,4.48700278 1.22827376,3.65970154 1.67492167,2.89836762 C2.90320396,4.41088167 4.39792992,5.62138064 6.15914561,6.52990206 C7.92035789,7.4384269 9.80589541,7.94343615 11.8158127,8.04494689 C11.7346028,7.65920473 11.6939978,7.28361978 11.6939978,6.91818182 C11.6939978,5.55793388 12.1736311,4.39819027 13.1329079,3.43891007 C14.0921881,2.47963328 15.2519317,2 16.6121796,2 C18.0333299,2 19.2311409,2.51769725 20.2056467,3.55310879 C21.3121178,3.33993693 22.3525875,2.9440512 23.3270933,2.36543796 C22.9515015,3.53281483 22.2307862,4.43624741 21.1649201,5.07576641 C22.1089713,4.97425567 23.0530088,4.72048225 23.99706,4.31443931 Z"/></svg>