<svg xmlns="http://www.w3.org/2000/svg" width="24" height="24" viewBox="0 0 24 24"><path fill="#ffffff" fill-rule="evenodd" d="M12.421875,4.5 L12,4.5 L11.578125,4.5 C9.453114,4.5 6.828141,4.562499 3.703125,4.6875 L3.65625,4.6875 L3.609375,4.6875 C3.078123,4.6875 2.6171895,4.91406 2.2265625,5.367186 C1.8359355,5.820315 1.640625,6.359373 1.640625,6.984375 L1.640625,7.03125 L1.640625,7.078125 C1.5468744,8.671884 1.5,10.312491 1.5,12 C1.5,13.656258 1.5468744,15.281241 1.640625,16.875 L1.640625,16.96875 L1.640625,17.015625 C1.640625,17.640627 1.8593727,18.2031225 2.296875,18.703125 C2.6718768,19.1093769 3.109374,19.3125 3.609375,19.3125 L3.65625,19.3125 L3.703125,19.3125 C6.953142,19.4375007 9.546864,19.5 11.484375,19.5 L12,19.5 L12.515625,19.5 C14.390634,19.5 16.984359,19.4375007 20.296875,19.3125 L20.34375,19.3125 L20.390625,19.3125 C20.890626,19.3125 21.328122,19.1093769 21.703125,18.703125 C22.140627,18.2031225 22.359375,17.640627 22.359375,17.015625 L22.359375,16.96875 L22.359375,16.875 C22.453125,15.281241 22.5,13.656258 22.5,12 C22.5,10.312491 22.453125,8.671884 22.359375,7.078125 L22.359375,7.03125 L22.359375,6.9375 C22.359375,6.312498 22.164063,5.77344 21.773436,5.320314 C21.382812,4.867185 20.921877,4.640625 20.390625,4.640625 L20.34375,4.640625 L20.296875,4.640625 C18.015615,4.546875 15.390639,4.5 12.421875,4.5 Z M12.421875,3 C16.015644,3 18.671865,3.046875 20.390625,3.140625 C21.359379,3.140625 22.179684,3.50781 22.851564,4.242186 C23.523441,4.976565 23.859375,5.874996 23.859375,6.9375 C23.953125,8.625009 24,10.312491 24,12 C24,13.656258 23.953125,15.328116 23.859375,17.015625 C23.859375,18.0781302 23.523441,18.9765588 22.851564,19.7109375 C22.179684,20.4453162 21.359379,20.8125 20.390625,20.8125 C18.109365,20.9375006 15.484389,21 12.515625,21 L12,21 L11.484375,21 C8.515611,21 5.890635,20.9375006 3.609375,20.8125 C2.6406201,20.8125 1.820316,20.4453162 1.1484375,19.7109375 C0.476559,18.9765588 0.140625,18.0781302 0.140625,17.015625 C0.04687452,15.328116 0,13.656258 0,12 C0,10.906245 0.06249939,9.234387 0.1875,6.984375 C0.1875,5.921871 0.5156217,5.015628 1.171875,4.265625 C1.8281283,3.515622 2.6406201,3.140625 3.609375,3.140625 C6.203139,3.046875 8.85936,3 11.578125,3 L12,3 L12.421875,3 Z M9.703125,16.59375 L9.703125,7.359375 L16.5,12 L9.703125,16.59375 Z"/></svg>